<ttFont>
          <CharString index="0">
            -122 -48 -78 -54 -55 30 -40 40 39 28 24 44 0 -1 33 -32 20 hvcurveto
            18 13 20 15 30 hhcurveto
            41 22 -24 -89 5 hvcurveto
            -13 -28 -22 -26 -28 -23 rrcurveto
            -46 -38 -129 -26 18 callsubr
            -107 62 -28 51 49 43 25 44 30 vhcurveto
            2 -22 3 -21 4 -20 rrcurveto
            -11 182 rmoveto
            -36 -12 -28 -59 -48 hhcurveto
            -26 -15 24 29 43 57 40 39 28 hvcurveto
            13 9 13 13 11 13 rrcurveto
            return
          </CharString>
          <CharString index="1">
            29 -24 23 -28 -28 -24 -23 -29 -28 24 -23 28 28 24 23 28 vhcurveto
            return
          </CharString>
          <CharString index="2">
            25 0 24 1 25 vhcurveto
            -138 -4 rlineto
            18 -140 12 -144 -154 vvcurveto
            -142 -30 -64 -56 -50 -20 53 99 160 15 28 30 300 vhcurveto
            -146 5 rlineto
            -12 -386 -5 18 -51 vvcurveto
            -151 29 -164 164 172 26 192 165 vhcurveto
            return
          </CharString>
          <CharString index="3">
            -91 callsubr
            132 hmoveto
            -100 callgsubr
          </CharString>
          <CharString index="4">
            480 350 rmoveto
            207 -69 168 -159 -154 -74 -168 -207 -208 77 -168 151 149 79 168 208 vhcurveto
            -128 hmoveto
            -162 -28 -132 -72 -73 -27 132 162 162 26 131 74 77 23 -131 -162 vhcurveto
            return
          </CharString>
          <CharString index="5">
            207 -28 rmoveto
            156 38 205 125 161 -57 112 -127 -126 -69 -132 -189 -163 56 -119 129 hvcurveto
            76 366 rmoveto
            -120 -21 -168 -62 -41 -21 66 109 170 38 102 46 43 18 -60 -99 vhcurveto
            return
          </CharString>
          <CharString index="6">
            290 559 rmoveto
            -3 -47 rlineto
            -47 56 -51 -68 callgsubr
            -79 -86 -65 -230 -233 77 -68 66 hvcurveto
            0 60 2 51 86 vhcurveto
            -2 -135 rlineto
            -99 callsubr
            207 14 152 vhcurveto
            -121 -124 rmoveto
            -3 -82 -1 -83 -1 -85 rrcurveto
            -30 -10 -19 -59 -43 hhcurveto
            -32 -28 41 144 hvcurveto
            return
          </CharString>
          <CharString index="7">
            -112 -11 -122 -45 -37 -14 96 81 71 10 71 13 77 vhcurveto
            -125 6 rlineto
            8 -76 1 -45 -54 vvcurveto
            -77 -17 -145 -39 -28 -8 31 72 110 6 112 22 115 vhcurveto
            -139 4 rlineto
            1 -18 0 -22 -22 -213 -3 53 -47 vvcurveto
            -139 9 -151 105 vhcurveto
            0 81 2 43 112 vhcurveto
            32 -121 93 0 -29 callsubr
            20 179 143 3 hvcurveto
            0 0 124 4 111 vhcurveto
            return
          </CharString>
          <CharString index="8">
            -90 -2 -45 -40 -34 hhcurveto
            -6 -7 1 3 -8 hvcurveto
            29 22 0 26 0 vvcurveto
            37 -27 40 -48 -45 -28 -36 -44 -41 15 -75 115 229 -39 230 230 12 vhcurveto
            0 4 return
          </CharString>
          <CharString index="9">
            475 -13 rmoveto
            -31 28 -12 73 0 vvcurveto
            -16 111 27 106 -125 48 rrcurveto
            112 32 22 127 0 vvcurveto
            -3 139 -106 59 -130 -6 rrcurveto
            0 -104 0 -72 -14 vhcurveto
            5 -69 4 -261 -62 vvcurveto
            -83 -2 -147 -12 -69 vhcurveto
            135 3 rlineto
            304 vlineto
            5 6 1 5 hhcurveto
            114 10 -146 -63 -6 -1 -63 27 -38 hvcurveto
            -5 515 rmoveto
            0 -9 -117 -124 -10 -12 1 2 -12 vhcurveto
            -2 221 rlineto
            3 15 15 2 12 hhcurveto
            133 -6 -112 0 hvcurveto
            return
          </CharString>
          <CharString index="10">
            46 58 rmoveto
            -25 0 -25 -1 -24 vhcurveto
            138 4 -10 67 -6 86 -4 68 rlinecurve
            1 15 20 1 22 hhcurveto
            21 24 -1 -2 25 hvcurveto
            -6 -64 -9 -78 -11 -74 146 -5 rcurveline
            return
          </CharString>
          <CharString index="11">
            424 696 rmoveto
            -46 1 -46 3 -45 6 -17 -114 -22 -122 -28 -116 -33 115 -17 123 -24 119 -46 -7 -58 -3 -48 -1 62 -139 57 -141 50 -144 -2 -101 -4 -100 -8 -101 149 6 rcurveline
            -9 86 -5 86 -4 87 44 154 42 152 58 151 rrcurveto
            return
          </CharString>
          <CharString index="12">
            -20 hstemhm
            11 158 -132 110 81 126 -126 143 hintmask 1010001100000000
            371 440 rmoveto
            hintmask 1100010100000000
            82 -48 72 -109 -108 -69 -78 -84 -84 39 -54 71 -62 vhcurveto
            71 -62 10 -22 -42 vvcurveto
            hintmask 1010001100000000
            -41 -33 -20 -17 vhcurveto
            0 -19 0 -18 13 vhcurveto
            28 21 0 29 0 vvcurveto
            51 -33 30 -46 -56 -23 -38 -48 -45 52 -86 127 vhcurveto
            hintmask 1100010010000000
            128 36 106 62 62 -38 53 -81 63 hvcurveto
            -81 63 -7 25 48 vvcurveto
            38 26 35 40 vhcurveto
            0 25 -1 23 -34 vhcurveto
            -35 -21 0 -41 0 vvcurveto
            -57 47 -15 24 24 50 22 60 vhcurveto
            hintmask 0001100000000000
            return
          </CharString>
          <CharString index="13">
            29 565 rmoveto
            10 -113 4 -113 -113 vvcurveto
            -84 -2 -84 -5 -84 vhcurveto
            131 4 rlineto
            -6 86 -4 86 88 vvcurveto
            108 5 110 11 111 vhcurveto
            return
          </CharString>
          <CharString index="14">
            -20 hstemhm
            25 117 -117 177 107 112 hintmask 10100101
            420 168 rmoveto
            1 9 0 8 8 vvcurveto
            89 -45 63 -106 67 vhcurveto
            -90 57 -38 35 62 vvcurveto
            53 43 26 36 vhcurveto
            0 23 0 20 -19 vhcurveto
            -20 -26 0 -36 0 vvcurveto
            -45 40 -24 32 25 66 9 87 86 -85 56 -98 -97 -102 -68 -134 -135 120 -62 51 -29 vhcurveto
            hintmask 11000011
            51 -29 62 -43 -82 vvcurveto
            -70 -60 -21 -34 -17 -28 12 22 -18 vhcurveto
            50 12 0 52 1 vvcurveto
            -64 callsubr
            93 104 42 147 13 vhcurveto
            hintmask 00011000
            return
          </CharString>
          <CharString index="15">
            41 1 17 0 vhcurveto
            0 -102 -38 -101 vhcurveto
            -2 hlineto
            -2 41 -3 81 110 vvcurveto
            114 4 141 12 146 vhcurveto
            -144 -7 rlineto
            19 -153 3 callgsubr
            0 vvcurveto
            0 3 callgsubr
            -19 -175 vhcurveto
            0 66 6 147 36 42 0 -1 47 vhcurveto
            return
          </CharString>
          <CharString index="16">
            rmoveto
            -106 callsubr
            return
          </CharString>
          <CharString index="17">
            rmoveto
            -33 -23 -46 -38 -29 callsubr
            -139 46 34 rlineto
            endchar
          </CharString>
          <CharString index="18">
            -14 callsubr
            hintmask 10000000
            -50 callgsubr
            hintmask 01100000
            24 callsubr
            hintmask 10000000
            13 callgsubr
            hintmask 01100000
            -84 callgsubr
            endchar
          </CharString>
          <CharString index="19">
            36 -12 callsubr
            -36 -29 -29 -36 -35 29 -29 36 35 29 29 35 vhcurveto
            return
          </CharString>
          <CharString index="20">
            356 699 rmoveto
            -331 hlineto
            2 -126 72 14 72 8 73 1 rlinecurve
            -64 -173 -77 -170 -87 -170 10 -104 rcurveline
            331 hlineto
            1 120 -65 -11 -71 1 -67 -1 rlinecurve
            59 163 74 180 68 157 rrcurveto
            return
          </CharString>
          <CharString index="21">
            rmoveto
            0 -74 -1 -68 -34 -32 0 1 -21 vhcurveto
            1 -10 1 -13 -13 vvcurveto
            return
          </CharString>
          <CharString index="22">
            84 -31 79 235 101 244 77 hstemhm
            2 238 -189 117 163 127 hintmask 11110100
            458 335 rmoveto
            196 -62 174 -230 -30 -43 -1 -3 -51 vhcurveto
            6 -54 4 -217 1 -46 -19 1 -18 2 -17 2 rrcurveto
            2 -15 1 -16 -14 vvcurveto
            -21 -2 -19 -1 -17 vhcurveto
            52 hlineto
            1 hlineto
            -2 -300 rlineto
            -17 71 64 -1 11 hhcurveto
            67 195 48 318 hvcurveto
            -216 54 rmoveto
            0 -31 -3 -42 -2 vhcurveto
            -2 244 rlineto
            15 hlineto
            hintmask 11101100
            108 41 -47 -231 -227 -36 -75 -87 -11 -11 1 5 -13 hvcurveto
            -3 231 72 -3 rlineto
            -2 9 0 25 24 vvcurveto
            24 0 22 2 3 vhcurveto
            endchar
          </CharString>
          <CharString index="23">
            rmoveto
            -4 -38 -31 -1 -23 hhcurveto
            -36 -18 3 0 hvcurveto
            18 -167 -1 -170 -177 vvcurveto
            -78 -10 -60 -69 -18 -40 5 38 -23 vhcurveto
            62 14 0 64 0 vvcurveto
            63 -56 21 -28 -27 -55 -21 -73 -83 42 -107 140 159 46 121 130 221 -16 -23 22 284 vhcurveto
            return
          </CharString>
          <CharString index="24">
            -5 -8 1 3 -8 hvcurveto
            29 22 0 26 0 vvcurveto
            37 -27 40 -48 -47 -27 -37 -44 -42 19 -73 112 229 -35 229 231 8 vhcurveto
            0 3 167 10 177 vhcurveto
            return
          </CharString>
          <CharString index="25">
            rmoveto
            29 -23 23 -28 -29 -23 -23 -29 -25 18 -21 24 -4 vhcurveto
            -7 -21 -10 -11 0 vvcurveto
            32 -15 rlineto
            30 30 16 25 42 vvcurveto
            endchar
          </CharString>
          <CharString index="26">
            -26 -2 -33 -7 -29 vhcurveto
            44 9 34 5 23 3 rrcurveto
            12 -48 0 -53 0 vvcurveto
            -91 -24 -43 -48 -48 -77 106 204 vhcurveto
            return
          </CharString>
          <CharString index="27">
            -51 callgsubr
            -5 vhcurveto
            -9 -27 -13 -14 -45 callgsubr
            return
          </CharString>
          <CharString index="28">
            61 0 60 2 62 vhcurveto
            120 3 rlineto
            26 vlineto
            25 1 20 3 33 vhcurveto
            -6 -109 -93 -2 -104 hhcurveto
            -59 hlineto
            5 -44 2 -25 1 -45 123 9 rcurveline
            4 -74 2 -74 -77 vvcurveto
            -118 -5 -124 -8 -143 vhcurveto
            return
          </CharString>
          <CharString index="29">
            -20 hstemhm
            44 99 -99 115 70 164 hintmask 11000011
            -83 callgsubr
            hintmask 10100101
            -66 callsubr
            hintmask 11000011
            -41 callgsubr
            hintmask 00011000
            return
          </CharString>
          <CharString index="30">
            425 321 rmoveto
            44 -10 125 137 vvcurveto
            return
          </CharString>
          <CharString index="31">
            285 529 rmoveto
            4 -47 2 -41 -46 vvcurveto
            -38 -1 -41 -2 -51 vhcurveto
            -26 -163 -50 -68 callgsubr
            return
          </CharString>
          <CharString index="32">
            rmoveto
            0 163 80 82 27 vhcurveto
            -2 23 -1 23 20 vvcurveto
            40 3 30 0 vhcurveto
            -67 32 -158 119 0 vvcurveto
            -41 -129 55 -16 68 -24 62 -38 rlinecurve
            -48 -32 -36 -10 -101 -32 rrcurveto
            return
          </CharString>
          <CharString index="33">
            rmoveto
            -101 32 -36 10 -48 32 62 38 68 24 55 16 -41 129 rcurveline
            0 -158 -119 -67 -32 vhcurveto
            0 3 -30 -40 vvcurveto
            -20 -1 -23 -2 -23 vhcurveto
            82 -27 163 -80 0 vvcurveto
            return
          </CharString>
          <CharString index="34">
            rmoveto
            -3 31 -2 27 -1 22 rrcurveto
            28 53 -31 hlineto
            -2 55 2 10 13 vvcurveto
            31 0 55 3 49 vhcurveto
            -100 hlineto
            0 -101 -205 -21 -22 vhcurveto
            2 -39 rlineto
            140 hlineto
            -31 -1 -29 -1 -27 vhcurveto
            -91 604 -80 callgsubr
            return
          </CharString>
          <CharString index="35">
            453 335 rmoveto
            196 -62 174 -230 -30 -43 -1 -3 -51 vhcurveto
            11 -44 2 -85 -72 vvcurveto
            -69 -2 -57 -3 -387 vhcurveto
            -17 71 64 -1 11 hhcurveto
            67 195 48 318 hvcurveto
            -127 15 rmoveto
            -227 -36 -75 -87 -11 -11 1 5 -13 vhcurveto
            -6 574 rlineto
            15 hlineto
            108 41 -47 -231 hvcurveto
            return
          </CharString>
          <CharString index="36">
            30 745 rmoveto
            8 -132 5 -132 18 callsubr
            -120 -4 -120 -7 -119 -11 callsubr
            -2 rlineto
            -1 41 0 42 41 vvcurveto
            65 0 66 2 66 vhcurveto
            28 154 56 1 0 vvcurveto
            56 2 26 callsubr
            -30 -154 hvcurveto
            114 -14 rlineto
            26 109 6 116 122 vvcurveto
            return
          </CharString>
          <CharString index="37">
            2 -20 1 -19 -18 vvcurveto
            return
          </CharString>
          <CharString index="38">
            -5 98 -2 99 98 vvcurveto
            55 0 54 2 55 vhcurveto
            29 -2 31 -3 31 -5 -2 125 rcurveline
            -29 -2 -28 -1 -28 -1 3 65 3 65 5 66 rrcurveto
            return
          </CharString>
          <CharString index="39">
            -9 -24 4 6 -6 hvcurveto
            -54 vlineto
            0 16 -10 27 44 43 25 47 vhcurveto
            endchar
          </CharString>
          <CharString index="40">
            rmoveto
            -14 -12 -13 -16 -19 hhcurveto
            -10 -8 6 11 return
          </CharString>
          <CharString index="41">
            0 -70 -2 -46 -71 vhcurveto
            13 1 14 1 14 vhcurveto
            -110 -6 rlineto
            6 -81 2 -77 -76 vvcurveto
            return
          </CharString>
          <CharString index="42">
            6 -26 93 274 227 -73 73 return
          </CharString>
          <CharString index="43">
            69 -48 21 -38 -36 -57 -25 -84 -108 89 -53 98 return
          </CharString>
          <CharString index="44">
            10 -22 -25 6 -30 hhcurveto
            -173 -26 -192 -166 hvcurveto
            -37 callgsubr
            -7 -73 -11 -70 -8 -70 rrcurveto
            return
          </CharString>
          <CharString index="45">
            rmoveto
            -134 -9 -22 -90 -50 hhcurveto
            -41 -21 66 109 170 38 102 46 43 18 -60 -99 -20 -1 -21 -1 -23 hvcurveto
            return
          </CharString>
          <CharString index="46">
            40 57 -2 -7 75 hvcurveto
            return
          </CharString>
          <CharString index="47">
            hvcurveto
            -70 callsubr
            return
          </CharString>
          <CharString index="48">
            171 685 rmoveto
            -35 callgsubr
            42 34 34 42 vhcurveto
            -144 -150 rmoveto
            13 -155 5 -130 -147 vvcurveto
            -42 0 -42 -1 -45 -11 callsubr
            4 rlineto
            0 0 21 34 vvcurveto
            return
          </CharString>
          <CharString index="49">
            29 -29 35 36 29 29 36 31 -23 26 -30 5 vhcurveto
            8 27 14 14 0 vvcurveto
            -40 19 -37 -37 -20 -30 -1 return
          </CharString>
          <CharString index="50">
            5 -21 227 100 321 89 return
          </CharString>
          <CharString index="51">
            14 1 7 0 vhcurveto
            -2 return
          </CharString>
          <CharString index="52">
            -26 callsubr
            156 117 return
          </CharString>
          <CharString index="53">
            41 -64 callgsubr
            64 114 444 -20 return
          </CharString>
          <CharString index="54">
            114 -114 129 return
          </CharString>
          <CharString index="55">
            125 87 140 -112 112 return
          </CharString>
          <CharString index="56">
            420 531 rmoveto
            19 -119 1 -78 -12 vvcurveto
            return
          </CharString>
          <CharString index="57">
            68 -33 76 90 146 208 227 -72 72 return
          </CharString>
          <CharString index="58">
            -188 3 -21 725 -20 return
          </CharString>
          <CharString index="59">
            88 -69 -21 91 -20 hstemhm
            return
          </CharString>
          <CharString index="60">
            -66 82 17 113 -38 61 rrcurveto
            0 -25 37 -55 17 vhcurveto
            36 33 59 67 60 126 return
          </CharString>
          <CharString index="61">
            156 42 45 36 24 20 -22 -25 15 vhcurveto
            return
          </CharString>
          <CharString index="62">
            -21 149 -20 return
          </CharString>
          <CharString index="63">
            43 34 35 60 60 -51 72 -116 return
          </CharString>
          <CharString index="64">
            294 487 -3 callgsubr
            346 -268 rmoveto
            -20 callgsubr
            return
          </CharString>
          <CharString index="65">
            rrcurveto
            21 callgsubr
            return
          </CharString>
          <CharString index="66">
            86 112 -20 hstemhm
            return
          </CharString>
          <CharString index="67">
            hstemhm
            34 118 -101 101 return
          </CharString>
          <CharString index="68">
            107 -26 82 587 82 return
          </CharString>
          <CharString index="69">
            0 0 -37 34 -16 vhcurveto
            return
          </CharString>
          <CharString index="70">
            -67 callgsubr
            endchar
          </CharString>
          <CharString index="71">
            -103 -18 -28 -29 -31 -16 32 99 91 18 39 29 31 16 -29 -101 vhcurveto
            return
          </CharString>
          <CharString index="72">
            8 41 34 4 40 hhcurveto
            14 hlineto
            return
          </CharString>
          <CharString index="73">
            hstemhm
            44 -53 callsubr
            return
          </CharString>
          <CharString index="74">
            -55 vlineto
            -21 1 -21 2 -20 2 5 -116 rcurveline
            20 2 19 2 20 1 rrcurveto
            2 -89 3 -107 -95 vvcurveto
            -64 -1 -59 -3 -47 vhcurveto
            return
          </CharString>
          <CharString index="75">
            620 105 rmoveto
            -23 callgsubr
            -37 34 -16 vhcurveto
            -14 -27 15 callsubr
            -40 -21 54 81 -8 hvcurveto
            return
          </CharString>
          <CharString index="76">
            47 26 31 26 37 56 30 -72 60 hhcurveto
            93 56 120 1 hvcurveto
            return
          </CharString>
          <CharString index="77">
            -103 48 -79 88 86 50 79 103 vhcurveto
            return
          </CharString>
          <CharString index="78">
            0 vvcurveto
            129 return
          </CharString>
          <CharString index="79">
            -2 -35 -2 -36 -34 vvcurveto
            -36 -12 -28 -58 -48 hhcurveto
            -26 -15 24 29 43 57 40 39 28 hvcurveto
            13 9 12 13 12 13 rrcurveto
            return
          </CharString>
          <CharString index="80">
            vvcurveto
            39 0 38 1 39 vhcurveto
            30 -1 31 -1 36 -2 rrcurveto
            -2 12 0 31 29 vvcurveto
            28 0 27 2 4 vhcurveto
            endchar
          </CharString>
          <CharString index="81">
            -20 -40 callsubr
            return
          </CharString>
          <CharString index="82">
            rmoveto
            -8 79 -2 80 93 vvcurveto
            29 1 34 1 31 vhcurveto
            -99 -3 rlineto
            0 -52 -57 -22 -22 vhcurveto
            58 -50 42 50 return
          </CharString>
          <CharString index="83">
            -19 -26 0 -30 -3 vvcurveto
            -34 32 -29 40 40 31 40 54 return
          </CharString>
          <CharString index="84">
            -11 -28 217 169 236 -67 67 return
          </CharString>
          <CharString index="85">
            hstemhm
            35 118 154 103 -103 119 return
          </CharString>
          <CharString index="86">
            -124 rmoveto
            39 -26 25 -38 vhcurveto
            return
          </CharString>
          <CharString index="87">
            -36 89 648 -20 return
          </CharString>
          <CharString index="88">
            740 -21 200 -20 hstem
            753 vmoveto
            46 -34 129 139 rlineto
            0 -46 38 -33 23 vhcurveto
            return
          </CharString>
          <CharString index="89">
            42 -21 81 435 238 -88 88 return
          </CharString>
          <CharString index="90">
            -20 -34 callsubr
            return
          </CharString>
          <CharString index="91">
            4 -76 2 -75 -74 vvcurveto
            -82 -2 -82 -5 -84 vhcurveto
            131 4 rlineto
            -6 86 -4 84 85 vvcurveto
            return
          </CharString>
          <CharString index="92">
            147 -38 95 -94 vhcurveto
            0 -75 -2 -46 -86 vhcurveto
            return
          </CharString>
          <CharString index="93">
            rmoveto
            -38 callgsubr
            return
          </CharString>
          <CharString index="94">
            29 115 145 102 return
          </CharString>
          <CharString index="95">
            -29 29 -35 return
          </CharString>
          <CharString index="96">
            vhcurveto
            111 return
          </CharString>
          <CharString index="97">
            51 -44 58 -86 -125 -48 -85 -126 vhcurveto
            return
          </CharString>
          <CharString index="98">
            hstemhm
            21 104 -104 140 98 106 return
          </CharString>
          <CharString index="99">
            199 -150 150 -95 95 return
          </CharString>
          <CharString index="100">
            -132 12 -23 -85 -44 -91 -63 -69 rlinecurve
            131 5 116 13 195 vhcurveto
            return
          </CharString>
          <CharString index="101">
            0 17 hhcurveto
            4 callgsubr
            return
          </CharString>
          <CharString index="102">
            13 callgsubr
            -84 callgsubr
            return
          </CharString>
          <CharString index="103">
            241 -26 93 -93 222 -208 -21 374 233 -75 75 -6 -20 return
          </CharString>
          <CharString index="104">
            -20 hstemhm
            38 110 92 93 107 110 return
          </CharString>
          <CharString index="105">
            12 -33 73 468 67 return
          </CharString>
          <CharString index="106">
            42 -5 0 callsubr
            return
          </CharString>
          <CharString index="107">
            -21 737 -20 return
          </CharString>
          <CharString index="108">
            -21 320 82 229 86 return
          </CharString>
          <CharString index="109">
            -16 -21 109 508 103 return
          </CharString>
          <CharString index="110">
            hlineto
            55 72 -11 0 hvcurveto
            70 239 139 346 60 124 return
          </CharString>
          <CharString index="111">
            -26 -34 -7 -29 -20 -67 callgsubr
            return
          </CharString>
          <CharString index="112">
            263 -8 85 -72 -21 227 100 298 92 -69 69 -69 89 return
          </CharString>
          <CharString index="113">
            9 -21 476 return
          </CharString>
          <CharString index="114">
            -21 29 -21 747 -20 hstemhm
            28 121 -103 103 -103 117 return
          </CharString>
          <CharString index="115">
            hhcurveto
            -126 -69 -132 -189 -163 56 -119 129 return
          </CharString>
          <CharString index="116">
            -177 -21 177 97 394 return
          </CharString>
          <CharString index="117">
            3 rrcurveto
            2 -13 0 -13 -12 vvcurveto
            return
          </CharString>
          <CharString index="118">
            -20 hstemhm
            29 115 147 101 return
          </CharString>
          <CharString index="119">
            hstemhm
            24 123 -92 92 return
          </CharString>
          <CharString index="120">
            105 20 -21 718 -20 return
          </CharString>
          <CharString index="121">
            77 -21 394 -20 hstem
            return
          </CharString>
          <CharString index="122">
            -34 -68 callgsubr
            return
          </CharString>
          <CharString index="123">
            hstemhm
            32 110 -99 99 -99 119 124 116 return
          </CharString>
          <CharString index="124">
            0 -18 -94 -95 -44 vhcurveto
            36 vlineto
            114 14 105 53 return
          </CharString>
          <CharString index="125">
            -132 vvcurveto
            return
          </CharString>
          <CharString index="126">
            -1 7 0 22 21 vvcurveto
            20 0 19 1 3 vhcurveto
            return
          </CharString>
          <CharString index="127">
            307 595 rmoveto
            -3 -11 -5 -13 -5 -14 rrcurveto
            return
          </CharString>
          <CharString index="128">
            -21 457 112 197 -20 hstemhm
            71 127 return
          </CharString>
          <CharString index="129">
            53 30 55 60 93 vvcurveto
            134 -102 68 -97 return
          </CharString>
          <CharString index="130">
            hhcurveto
            32 26 -55 -125 -153 -41 -61 -39 return
          </CharString>
          <CharString index="131">
            -70 callgsubr
            28 28 0 28 hhcurveto
            return
          </CharString>
          <CharString index="132">
            -21 33 -21 593 118 return
          </CharString>
          <CharString index="133">
            -59 14 callgsubr
            return
          </CharString>
          <CharString index="134">
            133 -113 -21 73 61 -61 128 return
          </CharString>
          <CharString index="135">
            42 34 34 42 hvcurveto
            endchar
          </CharString>
        <CharString name=".notdef">
          -187 endchar
        </CharString>
        <CharString name="A">
          -57 callsubr
          -22 callsubr
          hintmask 11111000
          -97 callsubr
          hintmask 11110100
          -103 callgsubr
          endchar
        </CharString>
        <CharString name="AE">
          5 callsubr
          hstemhm
          35 118 154 119 hintmask 10110011
          -75 callgsubr
          hintmask 01100111
          -63 callsubr
          hintmask 10101011
          -62 callgsubr
          endchar
        </CharString>
        <CharString name="AEacute">
          5 callsubr
          39 -21 200 -20 hstemhm
          35 118 154 119 hintmask 1011000011000000
          -75 callgsubr
          hintmask 0110010011000000
          -63 callsubr
          hintmask 1010100011000000
          -62 callgsubr
          hintmask 0000001100000000
          123 461 -102 callgsubr
          endchar
        </CharString>
        <CharString name="Aacute">
          -57 callsubr
          44 -21 200 -9 callgsubr
          hintmask 11100110
          -97 callsubr
          hintmask 11100101
          -103 callgsubr
          hintmask 00011000
          68 466 -102 callgsubr
          endchar
        </CharString>
        <CharString name="Abreve">
          -57 callsubr
          27 -41 callsubr
          35 118 -30 77 68 70 -31 103 -103 119 hintmask 1110010010000000
          -97 callsubr
          hintmask 1110010001000000
          -103 callgsubr
          hintmask 0001101100000000
          181 619 -105 callgsubr
        </CharString>
        <CharString name="Acircumflex">
          -57 callsubr
          41 -21 194 -9 callgsubr
          hintmask 11100110
          -97 callsubr
          hintmask 11100101
          -103 callgsubr
          hintmask 00011000
          197 460 rmoveto
          -25 42 -53 121 0 vvcurveto
          0 -17 -2 -23 -12 -13 1 1 -14 vhcurveto
          0 -56 -99 -33 -65 vhcurveto
          34 -10 24 -6 32 -14 rrcurveto
          9 34 23 84 0 vvcurveto
          -10 27 -56 11 -49 vhcurveto
          30 8 19 10 37 10 rrcurveto
          endchar
        </CharString>
        <CharString name="Adieresis">
          -57 callsubr
          34 103 hstemhm
          35 118 -40 104 28 104 -42 103 -103 119 hintmask 1110100100000000
          -97 callsubr
          hintmask 1110100010000000
          -103 callgsubr
          hintmask 0001011000000000
          60 494 -104 callsubr
        </CharString>
        <CharString name="Agrave">
          -57 callsubr
          49 -21 200 -9 callgsubr
          hintmask 11100110
          -97 callsubr
          hintmask 11100101
          -103 callgsubr
          hintmask 00011000
          1 637 -90 callsubr
        </CharString>
        <CharString name="Amacron">
          -57 callsubr
          35 -48 callsubr
          35 118 -35 227 -38 103 -103 119 hintmask 1110001010000000
          -97 callsubr
          hintmask 1110001001000000
          -103 callgsubr
          hintmask 0000110100000000
          188 533 -86 callsubr
          hintmask 0001000100000000
          -33 callgsubr
          hintmask 0000110100000000
          -60 callgsubr
        </CharString>
        <CharString name="Aogonek">
          -173 67 317 100 321 89 hstemhm
          35 118 116 56 -18 103 -103 119 hintmask 11111000
          387 -76 -67 callsubr
          28 19 29 17 21 hvcurveto
          hintmask 11110100
          49 -2 rlineto
          hintmask 11110010
          12 387 4 -20 52 vvcurveto
          151 -28 164 -164 -173 -26 -192 -166 vhcurveto
          -37 callgsubr
          -6 -64 -9 -78 -11 -74 46 -1 rcurveline
          hintmask 11111000
          -33 -38 -8 -34 -21 vvcurveto
          -37 27 -34 39 vhcurveto
          hintmask 11110010
          34 26 16 30 31 hvcurveto
          -269 439 rmoveto
          -2 42 -2 29 26 vvcurveto
          153 37 70 49 44 24 -61 -112 -53 -5 -46 -4 -46 vhcurveto
          -2 -21 -29 -1 -34 hhcurveto
          -18 -19 0 1 -20 hvcurveto
          endchar
        </CharString>
        <CharString name="Aring">
          -57 callsubr
          36 58 69 59 hstemhm
          35 118 -16 58 71 59 -18 103 -103 119 hintmask 1110010010000000
          -97 callsubr
          hintmask 1110010001000000
          -103 callgsubr
          hintmask 0001101100000000
          109 537 -89 callgsubr
        </CharString>
        <CharString name="Atilde">
          -57 callsubr
          30 86 -39 39 -39 81 10 -9 callgsubr
          hintmask 1110000110000000
          -97 callsubr
          hintmask 1110000101000000
          -103 callgsubr
          hintmask 0001001000000000
          176 577 -55 callgsubr
        </CharString>
        <CharString name="B">
          81 -29 84 281 80 210 81 hstem
          41 141 vstem
          457 193 rmoveto
          6 3 148 -127 33 vhcurveto
          118 34 2 111 0 vvcurveto
          139 -130 43 -158 -35 -52 -1 -5 -37 vhcurveto
          7 -100 2 -244 0 vvcurveto
          -41 0 -211 -12 -123 vhcurveto
          -8 46 48 -3 55 hhcurveto
          87 174 31 191 9 hvcurveto
          -137 -5 rmoveto
          0 -2 -133 -109 -9 -10 1 2 -10 vhcurveto
          4 276 rlineto
          1 9 8 1 7 hhcurveto
          113 -1 -148 0 hvcurveto
          -2 340 rmoveto
          -5 -1 -107 -122 vhcurveto
          -11 hlineto
          -6 207 rlineto
          2 13 11 1 11 hhcurveto
          104 1 -98 7 callgsubr
        </CharString>
        <CharString name="C">
          -50 callsubr
          hstemhm
          23 140 117 159 -78 92 hintmask 11101010
          hintmask 11101100
          453 147 rmoveto
          123 -78 9 -15 -15 -65 -17 -61 -40 31 -28 31 6 7 1 2 6 vhcurveto
          hintmask 11011010
          -88 callgsubr
          vhcurveto
          hintmask 11101100
          -44 callsubr
          hvcurveto
          hintmask 11101010
          -116 -133 -94 -271 -271 127 -111 127 77 99 58 122 hvcurveto
          endchar
        </CharString>
        <CharString name="Cacute">
          -50 callsubr
          46 -21 200 -92 callgsubr
          -223 626 -102 callgsubr
          endchar
        </CharString>
        <CharString name="Ccaron">
          -50 callsubr
          50 -21 194 -92 callgsubr
          -98 759 -106 callgsubr
        </CharString>
        <CharString name="Ccedilla">
          68 332 -21 callsubr
          6 27 rlineto
          3 hlineto
          77 99 58 122 123 -78 9 -15 -15 -65 -17 -61 -40 31 -28 31 6 7 1 2 6 hvcurveto
          -88 callgsubr
          -44 callsubr
          -116 -133 -94 -271 -242 100 -113 112 -22 vhcurveto
          -27 -73 -61 callgsubr
          -68 callsubr
        </CharString>
        <CharString name="Ccircumflex">
          -50 callsubr
          47 -21 194 -92 callgsubr
          -79 624 rmoveto
          -25 42 -53 121 0 vvcurveto
          0 -17 -2 -23 -12 -13 1 1 -14 vhcurveto
          0 -56 -99 -33 -65 vhcurveto
          34 -10 24 -6 32 -14 rrcurveto
          9 34 23 84 0 vvcurveto
          -10 27 -56 11 -49 vhcurveto
          30 8 19 10 37 10 rrcurveto
          endchar
        </CharString>
        <CharString name="Cdotaccent">
          -50 callsubr
          27 103 hstemhm
          23 140 26 104 -13 159 -78 92 hintmask 1110010010000000
          hintmask 1110010100000000
          453 147 rmoveto
          123 -78 9 -15 -15 -65 -17 -61 -40 31 -28 31 6 7 1 2 6 vhcurveto
          hintmask 1101010010000000
          -88 callgsubr
          vhcurveto
          hintmask 1110010100000000
          -44 callsubr
          hvcurveto
          hintmask 1110010010000000
          -116 -133 -94 -271 -271 127 -111 127 77 99 58 122 hvcurveto
          hintmask 0000101000000000
          -160 645 rmoveto
          -100 callgsubr
        </CharString>
        <CharString name="D">
          80 -31 79 580 77 hstem
          45 120 161 127 vstem
          -72 callsubr
          endchar
        </CharString>
        <CharString name="Dcaron">
          80 -31 79 580 77 52 -21 194 -20 hstemhm
          45 120 161 127 hintmask 11001100
          -72 callsubr
          hintmask 00110000
          16 549 -106 callgsubr
        </CharString>
        <CharString name="Dcroat">
          -85 callsubr
        </CharString>
        <CharString name="Delta">
          98 -19 129 -113 -21 496 248 -80 80 hstemhm
          22 140 -108 176 77 126 hintmask 10101010
          472 -21 rmoveto
          -32 43 -7 140 142 vvcurveto
          hintmask 10100110
          73 3 73 61 vvcurveto
          170 -75 39 -118 -121 -68 -69 -70 -69 48 -40 40 vhcurveto
          hintmask 10011010
          41 47 19 62 0 -1 45 -37 24 hvcurveto
          12 14 16 6 17 hhcurveto
          43 18 -31 -74 7 hvcurveto
          -9 -52 -23 -25 0 vvcurveto
          -94 -99 -159 -22 -175 vvcurveto
          -109 85 -72 76 60 39 41 59 30 vhcurveto
          6 -38 10 -39 18 -28 rrcurveto
          -41 224 rmoveto
          hintmask 01101010
          -38 -12 -28 -52 -49 hhcurveto
          -32 -22 30 35 61 48 48 99 100 hvcurveto
          -4 -183 rlineto
          endchar
        </CharString>
        <CharString name="E">
          -56 callgsubr
          hstemhm
          hintmask 10100000
          383 -11 rmoveto
          hintmask 01100000
          -5 43 -1 31 18 vvcurveto
          hintmask 10100000
          -56 callsubr
          -77 -20 -133 16 callgsubr
          38 -3 75 135 -19 callgsubr
          56 1 64 1 72 vhcurveto
          1 11 12 -6 callsubr
          -50 -64 2 3 -81 vhcurveto
          19 -153 3 callgsubr
          0 vvcurveto
          0 0 -192 -19 -175 vhcurveto
          0 54 6 156 40 45 -12 callgsubr
          endchar
        </CharString>
        <CharString name="Eacute">
          -56 callgsubr
          55 -21 200 -20 hstemhm
          hintmask 10100000
          383 -11 rmoveto
          hintmask 01100000
          -5 43 -1 31 18 vvcurveto
          hintmask 10100000
          -56 callsubr
          -77 -20 -133 16 callgsubr
          38 -3 75 135 -19 callgsubr
          56 1 64 1 72 vhcurveto
          1 11 12 -6 callsubr
          -50 -64 2 3 -81 vhcurveto
          19 -153 3 callgsubr
          0 vvcurveto
          0 0 -192 -19 -175 vhcurveto
          0 54 6 156 40 45 -12 callgsubr
          hintmask 00011000
          -204 780 -102 callgsubr
          endchar
        </CharString>
        <CharString name="Ebreve">
          -56 callgsubr
          26 -41 callsubr
          91 77 68 70 hintmask 10100000
          383 -11 rmoveto
          hintmask 01100000
          -5 43 -1 31 18 vvcurveto
          hintmask 10100000
          -56 callsubr
          -77 -20 -133 16 callgsubr
          38 -3 75 135 -19 callgsubr
          56 1 64 1 72 vhcurveto
          1 11 12 -6 callsubr
          -50 -64 2 3 -81 vhcurveto
          19 -153 3 callgsubr
          0 vvcurveto
          0 0 -192 -19 -175 vhcurveto
          0 54 6 156 40 45 -12 callgsubr
          hintmask 00011110
          -77 921 -105 callgsubr
        </CharString>
        <CharString name="Ecaron">
          -56 callgsubr
          49 -21 194 -20 hstemhm
          hintmask 10100000
          383 -11 rmoveto
          hintmask 01100000
          -5 43 -1 31 18 vvcurveto
          hintmask 10100000
          -56 callsubr
          -77 -20 -133 16 callgsubr
          38 -3 75 135 -19 callgsubr
          56 1 64 1 72 vhcurveto
          1 11 12 -6 callsubr
          -50 -64 2 3 -81 vhcurveto
          19 -153 3 callgsubr
          0 vvcurveto
          0 0 -192 -19 -175 vhcurveto
          0 54 6 156 40 45 -12 callgsubr
          hintmask 00011000
          -62 903 -106 callgsubr
        </CharString>
        <CharString name="Ecircumflex">
          -56 callgsubr
          51 -21 194 -20 hstemhm
          hintmask 10100000
          383 -11 rmoveto
          hintmask 01100000
          -5 43 -1 31 18 vvcurveto
          hintmask 10100000
          -56 callsubr
          -77 -20 -133 16 callgsubr
          38 -3 75 135 -19 callgsubr
          56 1 64 1 72 vhcurveto
          1 11 12 -6 callsubr
          -50 -64 2 3 -81 vhcurveto
          19 -153 3 callgsubr
          0 vvcurveto
          0 0 -192 -19 -175 vhcurveto
          0 54 6 156 40 45 -12 callgsubr
          hintmask 00011000
          -51 773 rmoveto
          -25 42 -53 121 0 vvcurveto
          0 -17 -2 -23 -12 -13 1 1 -14 vhcurveto
          0 -56 -99 -33 -65 vhcurveto
          34 -10 24 -6 32 -14 rrcurveto
          9 34 23 84 0 vvcurveto
          -10 27 -56 11 -49 vhcurveto
          30 8 19 10 37 10 rrcurveto
          endchar
        </CharString>
        <CharString name="Edieresis">
          -56 callgsubr
          35 103 hstemhm
          91 104 28 104 hintmask 10100000
          383 -11 rmoveto
          hintmask 01100000
          -5 43 -1 31 18 vvcurveto
          hintmask 10100000
          -56 callsubr
          -77 -20 -133 16 callgsubr
          38 -3 75 135 -19 callgsubr
          56 1 64 1 72 vhcurveto
          1 11 12 -6 callsubr
          -50 -64 2 3 -81 vhcurveto
          19 -153 3 callgsubr
          0 vvcurveto
          0 0 -192 -19 -175 vhcurveto
          0 54 6 156 40 45 -12 callgsubr
          hintmask 00011100
          -188 798 -104 callsubr
        </CharString>
        <CharString name="Edotaccent">
          -56 callgsubr
          31 103 hstemhm
          146 104 hintmask 10100000
          383 -11 rmoveto
          hintmask 01100000
          -5 43 -1 31 18 vvcurveto
          hintmask 10100000
          -56 callsubr
          -77 -20 -133 16 callgsubr
          38 -3 75 135 -19 callgsubr
          56 1 64 1 72 vhcurveto
          1 11 12 -6 callsubr
          -50 -64 2 3 -81 vhcurveto
          19 -153 3 callgsubr
          0 vvcurveto
          0 0 -192 -19 -175 vhcurveto
          0 54 6 156 40 45 -12 callgsubr
          hintmask 00011000
          -133 794 rmoveto
          -100 callgsubr
        </CharString>
        <CharString name="Egrave">
          -56 callgsubr
          50 -21 200 -20 hstemhm
          hintmask 10100000
          383 -11 rmoveto
          hintmask 01100000
          -5 43 -1 31 18 vvcurveto
          hintmask 10100000
          -56 callsubr
          -77 -20 -133 16 callgsubr
          38 -3 75 135 -19 callgsubr
          56 1 64 1 72 vhcurveto
          1 11 12 -6 callsubr
          -50 -64 2 3 -81 vhcurveto
          19 -153 3 callgsubr
          0 vvcurveto
          0 0 -192 -19 -175 vhcurveto
          0 54 6 156 40 45 -12 callgsubr
          hintmask 00011000
          -239 941 -90 callsubr
        </CharString>
        <CharString name="Emacron">
          -56 callgsubr
          40 -48 callsubr
          86 227 hintmask 10100000
          383 -11 rmoveto
          hintmask 01100000
          -5 43 -1 31 18 vvcurveto
          hintmask 10100000
          -56 callsubr
          -77 -20 -133 16 callgsubr
          38 -3 75 135 -19 callgsubr
          56 1 64 1 72 vhcurveto
          1 11 12 -6 callsubr
          -50 -64 2 3 -81 vhcurveto
          19 -153 3 callgsubr
          0 vvcurveto
          0 0 -192 -19 -175 vhcurveto
          0 54 6 156 40 45 -12 callgsubr
          hintmask 00001110
          -70 841 -86 callsubr
          hintmask 00010010
          -33 callgsubr
          hintmask 00001110
          -60 callgsubr
        </CharString>
        <CharString name="Eng">
          105 -307 79 226 -21 740 -20 hstemhm
          41 121 -91 166 103 113 hintmask 11110100
          458 -56 rmoveto
          100 -5 100 124 vvcurveto
          83 1 208 10 158 vhcurveto
          -130 -4 rlineto
          hintmask 11101100
          11 -94 1 -154 0 vvcurveto
          -29 0 -131 -6 -110 vhcurveto
          -51 156 -72 291 -11 63 rrcurveto
          0 -36 -6 -132 vhcurveto
          9 -109 1 -120 -65 vvcurveto
          -40 3 -11 -10 -350 vhcurveto
          24 hlineto
          19 31 0 -2 50 hvcurveto
          -13 111 0 111 0 vvcurveto
          0 0 127 10 165 vhcurveto
          41 -125 99 -341 33 -130 rrcurveto
          -88 -10 -60 -69 -18 -40 5 38 -23 vhcurveto
          62 14 0 64 0 vvcurveto
          63 -56 21 -28 -27 -55 -21 -73 -83 42 -107 140 159 46 121 130 vhcurveto
          endchar
        </CharString>
        <CharString name="Eogonek">
          0 -173 67 96 87 532 92 hstem
          344 -76 -67 callsubr
          28 19 30 18 21 hvcurveto
          20 21 0 -1 23 hvcurveto
          -5 43 -1 31 18 vvcurveto
          -56 callsubr
          -77 -20 -133 16 callgsubr
          38 -3 75 135 -19 callgsubr
          56 1 64 1 72 vhcurveto
          1 11 12 -6 callsubr
          -50 -64 2 3 -81 vhcurveto
          19 -153 3 callgsubr
          0 vvcurveto
          0 0 -192 -19 -175 vhcurveto
          0 54 6 156 vhcurveto
          21 hlineto
          -32 -37 -8 -34 -21 -37 callsubr
        </CharString>
        <CharString name="Eth">
          -85 callsubr
        </CharString>
        <CharString name="Euro">
          85 -33 61 145 74 40 74 22 182 -58 58 hstemhm
          315 138 -73 73 hintmask 11101100
          332 369 rmoveto
          -6 -21 -41 -2 -45 hhcurveto
          81 8 20 65 46 hhcurveto
          0 21 -1 15 -15 vhcurveto
          -16 -23 0 -27 0 vvcurveto
          -37 32 -21 29 35 27 28 48 48 -41 58 -93 -79 -88 -55 -147 -25 vhcurveto
          hintmask 11110010
          -19 1 -17 2 -14 3 -4 -31 -9 -29 -7 -22 rrcurveto
          hintmask 11110100
          49 hlineto
          14 -14 hlineto
          -25 vlineto
          -26 1 -25 2 -20 3 -4 -30 -10 -29 -7 -22 rrcurveto
          49 hlineto
          51 hlineto
          -145 27 84 -61 84 hhcurveto
          62 79 46 98 98 -62 8 -12 -12 -52 -14 -49 -32 25 -23 25 5 5 1 2 5 hvcurveto
          -4 -74 -59 -68 callgsubr
          -52 -27 63 80 -11 hvcurveto
          -1 19 19 -1 18 hhcurveto
          hintmask 11110010
          1 15 16 65 4 5 -17 -4 -31 -2 -35 -1 rrcurveto
          22 vlineto
          16 vlineto
          32 30 -1 -1 28 hvcurveto
          1 15 16 66 4 5 rrcurveto
          endchar
        </CharString>
        <CharString name="F">
          -17 5 -21 26 -21 620 92 hstemhm
          hintmask 10100000
          377 600 rmoveto
          -7 52 1 55 -1 vvcurveto
          0 -42 -5 -99 -50 -64 2 3 -81 vhcurveto
          19 -153 3 callgsubr
          0 vvcurveto
          0 0 -192 -19 -175 vhcurveto
          0 53 5 46 18 17 -1 -2 12 vhcurveto
          0 -13 91 -3 248 vhcurveto
          hintmask 01100000
          28 51 -1 -9 69 hvcurveto
          -4 33 -1 30 21 vvcurveto
          18 1 11 0 vhcurveto
          0 -55 -10 -90 -2 vhcurveto
          192 vlineto
          1 11 12 0 18 hhcurveto
          -61 callsubr
          endchar
        </CharString>
        <CharString name="G">
          -17 callgsubr
          hstemhm
          23 123 93 -8 callsubr
          hintmask 11011000
          -82 callgsubr
          hintmask 10110010
          -81 callsubr
          hintmask 11010100
          -90 callgsubr
          endchar
        </CharString>
        <CharString name="Gbreve">
          -17 callgsubr
          27 -41 callsubr
          23 123 2 77 14 199 -150 150 -145 70 -20 95 hintmask 1100010100000000
          -82 callgsubr
          hintmask 1010010000100000
          -81 callsubr
          hintmask 1100010010000000
          -90 callgsubr
          hintmask 0001101001000000
          -84 770 -105 callgsubr
        </CharString>
        <CharString name="Gcircumflex">
          -17 callgsubr
          48 -21 194 -20 hstemhm
          23 123 93 -8 callsubr
          hintmask 1100011000000000
          -82 callgsubr
          hintmask 1010010010000000
          -81 callsubr
          hintmask 1100010100000000
          -90 callgsubr
          hintmask 0001100000000000
          -88 618 rmoveto
          -25 42 -53 121 0 vvcurveto
          0 -17 -2 -23 -12 -13 1 1 -14 vhcurveto
          0 -56 -99 -33 -65 vhcurveto
          34 -10 24 -6 32 -14 rrcurveto
          9 34 23 84 0 vvcurveto
          -10 27 -56 11 -49 vhcurveto
          30 8 19 10 37 10 rrcurveto
          endchar
        </CharString>
        <CharString name="Gcommaaccent">
          76 -194 -45 callsubr
          54 70 451 229 -77 77 hstemhm
          23 123 55 103 -65 -8 callsubr
          hintmask 0011010100000000
          -82 callgsubr
          hintmask 0010110001000000
          -81 callsubr
          hintmask 0011010010000000
          -90 callgsubr
          hintmask 1100001000000000
          -143 -276 -97 callgsubr
        </CharString>
        <CharString name="Gdotaccent">
          -17 callgsubr
          32 103 hstemhm
          23 123 52 104 -63 -8 callsubr
          hintmask 1100101000000000
          -82 callgsubr
          hintmask 1010100010000000
          -81 callsubr
          hintmask 1100100100000000
          -90 callgsubr
          hintmask 0001010000000000
          -145 643 rmoveto
          -100 callgsubr
        </CharString>
        <CharString name="H">
          12 callgsubr
          337 -20 hstemhm
          169 142 0 113 hintmask 01110100
          hintmask 10111000
          169 -17 rmoveto
          -57 callgsubr
          hintmask 01111000
          -74 callgsubr
          endchar
        </CharString>
        <CharString name="Hbar">
          12 callgsubr
          52 89 196 -20 hstemhm
          4 157 -110 110 149 114 -114 148 hintmask 1011101100000000
          459 521 rmoveto
          -7 -2 -15 -2 -20 -1 1 59 3 68 3 65 rrcurveto
          0 -31 -5 -67 vhcurveto
          -31 hlineto
          hintmask 1011110100000000
          8 -49 4 -76 3 -66 rrcurveto
          -65 hlineto
          -84 hlineto
          2 61 2 68 4 67 rrcurveto
          0 -32 -5 -70 vhcurveto
          hintmask 0111110100000000
          -32 hlineto
          8 -48 5 -73 3 -66 -21 1 -17 2 -11 2 rrcurveto
          1 -14 1 -14 -13 vvcurveto
          -21 -1 -20 -1 -16 vhcurveto
          51 hlineto
          1 -38 0 -25 0 vvcurveto
          0 0 -235 -21 -147 vhcurveto
          0 24 5 112 vhcurveto
          -57 callgsubr
          0 23 5 108 vhcurveto
          -8 140 0 195 0 vvcurveto
          76 vlineto
          -1 17 15 -1 11 hhcurveto
          22 callgsubr
          -299 -98 rmoveto
          hintmask 1011110010000000
          50 53 -1 49 hhcurveto
          1 -26 0 -18 -3 vvcurveto
          -2 -21 -32 -2 -41 hhcurveto
          -19 -19 0 1 -21 hvcurveto
          endchar
        </CharString>
        <CharString name="Hcircumflex">
          12 callgsubr
          337 -20 67 -21 194 -20 hstemhm
          169 142 0 113 hintmask 01110001
          hintmask 10110010
          169 -17 rmoveto
          -57 callgsubr
          hintmask 01110010
          -74 callgsubr
          hintmask 00001100
          186 782 rmoveto
          -25 42 -53 121 0 vvcurveto
          0 -17 -2 -23 -12 -13 1 1 -14 vhcurveto
          0 -56 -99 -33 -65 vhcurveto
          34 -10 24 -6 32 -14 rrcurveto
          9 34 23 84 0 vvcurveto
          -10 27 -56 11 -49 vhcurveto
          30 8 19 10 37 10 rrcurveto
          endchar
        </CharString>
        <CharString name="I">
          -188 3 -21 725 -17 callsubr
          hintmask 11010000
          hintmask 11100000
          -93 callgsubr
          hintmask 11010000
          -76 callgsubr
          endchar
        </CharString>
        <CharString name="IJ">
          244 -32 79 -44 -21 719 -20 26 -17 callsubr
          41 166 98 123 hintmask 01010100
          hintmask 01011000
          -93 callgsubr
          hintmask 01010100
          -76 callgsubr
          hintmask 10100011
          434 706 -84 callsubr
          endchar
        </CharString>
        <CharString name="Iacute">
          -49 callsubr
          71 -21 200 -17 callsubr
          hintmask 11000100
          hintmask 11001000
          -93 callgsubr
          hintmask 11000100
          -76 callgsubr
          hintmask 00110000
          -93 776 -102 callgsubr
          endchar
        </CharString>
        <CharString name="Ibreve">
          -49 callsubr
          47 -41 callsubr
          -3 77 -30 -53 callsubr
          -31 70 hintmask 11000010
          hintmask 11000100
          -93 callgsubr
          hintmask 11000010
          -76 callgsubr
          hintmask 00111001
          39 922 -105 callgsubr
        </CharString>
        <CharString name="Icircumflex">
          -49 callsubr
          68 -21 194 -17 callsubr
          hintmask 11000100
          hintmask 11001000
          -93 callgsubr
          hintmask 11000100
          -76 callgsubr
          hintmask 00110000
          52 770 rmoveto
          -25 42 -53 121 0 vvcurveto
          0 -17 -2 -23 -12 -13 1 1 -14 vhcurveto
          0 -56 -99 -33 -65 vhcurveto
          34 -10 24 -6 32 -14 rrcurveto
          9 34 23 84 0 vvcurveto
          -10 27 -56 11 -49 vhcurveto
          30 8 19 10 37 10 rrcurveto
          endchar
        </CharString>
        <CharString name="Idieresis">
          -49 callsubr
          45 103 hstemhm
          -12 104 -48 -53 callsubr
          -53 104 hintmask 11000100
          hintmask 11001000
          -93 callgsubr
          hintmask 11000100
          -76 callgsubr
          hintmask 00110010
          -81 788 -104 callsubr
        </CharString>
        <CharString name="Idotaccent">
          -49 callsubr
          44 103 -34 callsubr
          -124 104 hintmask 11001000
          hintmask 11010000
          -93 callgsubr
          hintmask 11001000
          -76 callgsubr
          hintmask 00100100
          -20 787 rmoveto
          -100 callgsubr
        </CharString>
        <CharString name="Igrave">
          -49 callsubr
          70 -21 200 -17 callsubr
          hintmask 11000100
          hintmask 11001000
          -93 callgsubr
          hintmask 11000100
          -76 callgsubr
          hintmask 00110000
          -150 941 -90 callsubr
        </CharString>
        <CharString name="Imacron">
          -49 callsubr
          52 -48 callsubr
          -8 227 -175 -53 callsubr
          hintmask 11000001
          hintmask 11000010
          -93 callgsubr
          hintmask 11000001
          -76 callgsubr
          hintmask 00011100
          46 833 -86 callsubr
          hintmask 00100100
          -33 callgsubr
          hintmask 00011100
          -60 callgsubr
        </CharString>
        <CharString name="Iogonek">
          -188 -173 67 813 -20 hstemhm
          44 49 -49 -53 callsubr
          hintmask 11100000
          155 -76 -67 callsubr
          29 20 30 17 21 hvcurveto
          43 4 rlineto
          -11 150 -4 151 170 vvcurveto
          67 1 93 3 81 vhcurveto
          -123 -6 rlineto
          hintmask 11001000
          10 -92 0 -215 0 vvcurveto
          hintmask 11010000
          0 0 -236 -5 -176 vhcurveto
          29 3 rlineto
          -29 -35 -7 -32 -20 -37 callsubr
        </CharString>
        <CharString name="Itilde">
          -49 callsubr
          45 86 -39 39 -39 81 10 -17 callsubr
          hintmask 11000001
          hintmask 11000010
          -93 callgsubr
          hintmask 11000001
          -76 callgsubr
          hintmask 00100100
          34 875 -94 callgsubr
        </CharString>
        <CharString name="J">
          35 -32 79 654 -20 hstem
          5 166 98 123 vstem
          398 701 -84 callsubr
          endchar
        </CharString>
        <CharString name="Jcircumflex">
          35 -32 79 654 -20 69 -21 194 -20 hstemhm
          5 166 98 123 hintmask 11001100
          398 701 -84 callsubr
          hintmask 00110000
          42 59 rmoveto
          -25 42 -53 121 0 vvcurveto
          0 -17 -2 -23 -12 -13 1 1 -14 vhcurveto
          0 -56 -99 -33 -65 vhcurveto
          34 -10 24 -6 32 -14 rrcurveto
          9 34 23 84 0 vvcurveto
          -10 27 -56 11 -49 vhcurveto
          30 8 19 10 37 10 rrcurveto
          endchar
        </CharString>
        <CharString name="K">
          65 1 17 callgsubr
          hintmask 01011000
          hintmask 10011000
          177 -17 rmoveto
          hintmask 01011000
          -8 131 -3 111 -2 70 rrcurveto
          hintmask 10011000
          -69 callgsubr
          hintmask 00111000
          0 -26 -2 -42 vhcurveto
          hintmask 01011000
          -20 -24 0 2 -27 hvcurveto
          17 -144 0 -192 0 vvcurveto
          0 0 -192 -19 -195 vhcurveto
          0 44 4 55 vhcurveto
          14 14 -1 15 hhcurveto
          endchar
        </CharString>
        <CharString name="Kcommaaccent">
          65 -166 -45 callsubr
          59 17 callgsubr
          -122 103 hintmask 00010110
          hintmask 00100110
          177 -17 rmoveto
          hintmask 00010110
          -8 131 -3 111 -2 70 rrcurveto
          hintmask 00100110
          -69 callgsubr
          hintmask 00001110
          0 -26 -2 -42 vhcurveto
          hintmask 00010110
          -20 -24 0 2 -27 hvcurveto
          17 -144 0 -192 0 vvcurveto
          0 0 -192 -19 -195 vhcurveto
          0 44 4 55 vhcurveto
          14 14 -1 15 hhcurveto
          hintmask 11000001
          105 -73 -97 callgsubr
        </CharString>
        <CharString name="L">
          -14 -30 100 -85 -21 739 -20 hstemhm
          hintmask 10100000
          372 -31 rmoveto
          hintmask 01100000
          -13 callgsubr
          hintmask 10100000
          -92 callsubr
          endchar
        </CharString>
        <CharString name="Lacute">
          -14 -30 100 -85 -21 739 -20 69 -21 200 -20 hstemhm
          hintmask 10100000
          372 -31 rmoveto
          hintmask 01100000
          -13 callgsubr
          hintmask 10100000
          -92 callsubr
          hintmask 00011000
          -296 796 -102 callgsubr
          endchar
        </CharString>
        <CharString name="Lcaron">
          -14 -30 100 -85 -21 634 -21 126 -20 43 -20 hstemhm
          213 103 hintmask 10010000
          372 -31 rmoveto
          hintmask 01010000
          -13 callgsubr
          hintmask 10010000
          -92 callsubr
          hintmask 00101100
          -56 705 -82 callsubr
        </CharString>
        <CharString name="Lcommaaccent">
          -14 -185 -45 callsubr
          47 100 -85 -21 739 -20 hstemhm
          140 103 hintmask 00101000
          372 -31 rmoveto
          hintmask 00011000
          -13 callgsubr
          hintmask 00101000
          -92 callsubr
          hintmask 11000100
          -129 -78 -97 callgsubr
        </CharString>
        <CharString name="Ldot">
          93 -30 100 -85 -21 331 129 279 -20 hstemhm
          329 129 hintmask 10010000
          372 -31 rmoveto
          hintmask 01010000
          -13 callgsubr
          hintmask 10010000
          -92 callsubr
          hintmask 00101000
          86 390 rmoveto
          -88 callsubr
          endchar
        </CharString>
        <CharString name="Lslash">
          -8 -30 100 -85 -21 739 -20 hstemhm
          -4 174 -111 111 hintmask 10110000
          236 429 rmoveto
          0 -27 -13 -39 -16 vhcurveto
          2 93 4 103 9 107 -144 -7 rcurveline
          16 -131 2 -159 1 -47 -23 -7 -23 -7 -21 -5 18 callgsubr
          66 24 rlineto
          hintmask 01101000
          -2 -75 -5 -116 -11 -107 rrcurveto
          0 66 6 147 vhcurveto
          hintmask 10110000
          36 42 0 -1 47 hvcurveto
          -13 callgsubr
          41 1 17 0 vhcurveto
          0 -102 -38 -101 vhcurveto
          -2 hlineto
          -2 41 -3 80 109 vvcurveto
          19 7 22 6 26 9 rrcurveto
          9 callgsubr
        </CharString>
        <CharString name="M">
          212 -1 -21 728 -20 hstem
          43 113 287 113 vstem
          577 -12 rmoveto
          -18 134 -3 197 43 vvcurveto
          69 1 139 11 136 vhcurveto
          0 -30 -7 -73 -18 -21 1 1 -24 vhcurveto
          -15 -151 -39 -152 -47 -165 -36 147 -25 147 -18 165 rrcurveto
          0 -39 -3 -62 -25 -28 1 1 -31 vhcurveto
          5 -75 1 -122 -73 vvcurveto
          -61 -1 -219 -14 -141 vhcurveto
          144 4 rlineto
          -10 96 -6 98 110 vvcurveto
          38 1 54 3 65 vhcurveto
          34 -135 27 -138 28 -170 125 -1 rcurveline
          5 63 23 103 0 vvcurveto
          0 15 70 34 157 vhcurveto
          4 -83 0 -58 0 vvcurveto
          0 0 -124 -12 -171 vhcurveto
          134 10 rlineto
          endchar
        </CharString>
        <CharString name="N">
          13 callsubr
          hstem
          2 callgsubr
          vstem
          -101 callgsubr
          endchar
        </CharString>
        <CharString name="Nacute">
          13 callsubr
          46 -21 200 -20 hstemhm
          2 callgsubr
          hintmask 11001100
          -101 callgsubr
          hintmask 00110000
          -250 39 -102 callgsubr
          endchar
        </CharString>
        <CharString name="Ncaron">
          13 callsubr
          62 -21 194 -20 hstemhm
          2 callgsubr
          hintmask 11001100
          -101 callgsubr
          hintmask 00110000
          -90 184 -106 callgsubr
        </CharString>
        <CharString name="Ncommaaccent">
          105 -166 -45 callsubr
          78 -21 718 -20 hstemhm
          41 121 37 103 38 117 hintmask 00111010
          -101 callgsubr
          hintmask 11000100
          -162 -807 -97 callgsubr
        </CharString>
        <CharString name="Ntilde">
          13 callsubr
          57 -34 callgsubr
          2 callgsubr
          hintmask 11000011
          -101 callgsubr
          hintmask 00100100
          -111 175 -94 callgsubr
        </CharString>
        <CharString name="O">
          -39 callsubr
          hstem
          24 128 200 128 vstem
          -103 callsubr
          endchar
        </CharString>
        <CharString name="OE">
          321 -26 82 -66 87 532 92 -58 58 -58 82 hstemhm
          24 128 200 134 hintmask 10010110
          634 315 rmoveto
          hintmask 10100110
          -4 33 -1 30 21 vvcurveto
          18 1 11 0 vhcurveto
          0 -55 -10 -91 -2 vhcurveto
          56 1 64 1 72 vhcurveto
          1 11 12 0 17 hhcurveto
          hintmask 10001110
          4 callgsubr
          -50 -64 2 3 -81 vhcurveto
          -4 1 -5 -4 vvcurveto
          20 -29 -35 12 -41 hhcurveto
          hintmask 01100110
          -154 -74 -168 -207 -208 77 -168 151 41 35 13 22 30 hvcurveto
          -2 -25 rlineto
          0 54 6 156 40 45 -12 callgsubr
          -5 43 -1 31 18 vvcurveto
          -56 callsubr
          -77 -20 -133 16 callgsubr
          38 -3 75 135 vvcurveto
          28 52 -1 -9 70 hvcurveto
          -282 35 rmoveto
          -26 callgsubr
        </CharString>
        <CharString name="Oacute">
          -39 callsubr
          51 -21 200 -52 callgsubr
          hintmask 11001100
          -103 callsubr
          hintmask 00110000
          -120 439 -102 callgsubr
          endchar
        </CharString>
        <CharString name="Obreve">
          -39 callsubr
          28 -41 callsubr
          24 128 -8 77 68 70 -7 128 hintmask 11001001
          -103 callsubr
          hintmask 00110110
          7 586 -105 callgsubr
        </CharString>
        <CharString name="Ocircumflex">
          -39 callsubr
          42 -21 194 -52 callgsubr
          hintmask 11001100
          -103 callsubr
          hintmask 00110000
          23 427 rmoveto
          -25 42 -53 121 0 vvcurveto
          0 -17 -2 -23 -12 -13 1 1 -14 vhcurveto
          0 -56 -99 -33 -65 vhcurveto
          34 -10 24 -6 32 -14 rrcurveto
          9 34 23 84 0 vvcurveto
          -10 27 -56 11 -49 vhcurveto
          30 8 19 10 37 10 rrcurveto
          endchar
        </CharString>
        <CharString name="Odieresis">
          -39 callsubr
          23 103 hstemhm
          24 128 -18 104 28 104 -18 128 hintmask 11010010
          -103 callsubr
          hintmask 00101100
          -114 449 -104 callsubr
        </CharString>
        <CharString name="Ograve">
          -39 callsubr
          37 -21 200 -52 callgsubr
          hintmask 11001100
          -103 callsubr
          hintmask 00110000
          -191 591 -90 callsubr
        </CharString>
        <CharString name="Ohungarumlaut">
          -39 callsubr
          44 -21 200 -52 callgsubr
          hintmask 11001100
          -103 callsubr
          hintmask 00110000
          -191 432 -77 callgsubr
        </CharString>
        <CharString name="Omacron">
          -39 callsubr
          34 -48 callsubr
          24 128 -13 227 -14 128 hintmask 11000101
          -103 callsubr
          hintmask 00011010
          14 498 -86 callsubr
          hintmask 00100010
          -33 callgsubr
          hintmask 00011010
          -60 callgsubr
        </CharString>
        <CharString name="Omega">
          84 -14 99 555 87 hstemhm
          33 122 -122 184 38 189 -125 125 hintmask 11010100
          450 96 rmoveto
          -8 -32 -27 -3 -28 hhcurveto
          -7 -6 -1 1 -7 hvcurveto
          hintmask 11100100
          50 vlineto
          92 45 9 161 61 vvcurveto
          296 -108 29 -94 vhcurveto
          hintmask 11101000
          -87 -122 -47 -270 -9 -4 -227 105 -50 hvcurveto
          -35 -17 vlineto
          -27 -25 3 6 -29 hvcurveto
          5 -112 rlineto
          176 174 hlineto
          -52 64 -10 188 0 vvcurveto
          158 34 70 50 51 29 -82 -141 0 0 -215 -64 -49 vhcurveto
          -167 195 110 vlineto
          endchar
        </CharString>
        <CharString name="Oslash">
          -87 callgsubr
          endchar
        </CharString>
        <CharString name="Oslashacute">
          -87 callgsubr
          hintmask 01011100
          -117 439 -102 callgsubr
          endchar
        </CharString>
        <CharString name="Otilde">
          -39 callsubr
          27 86 -39 39 -39 81 10 -52 callgsubr
          hintmask 11000011
          -103 callsubr
          hintmask 00100100
          2 540 -94 callgsubr
        </CharString>
        <CharString name="P">
          44 -10 -21 26 -21 245 75 328 81 hstemhm
          36 133 138 126 hintmask 01111100
          433 482 rmoveto
          215 -184 6 -73 -31 -52 -1 -9 -50 vhcurveto
          7 -80 0 -218 -10 callgsubr
          -8 95 -1 101 54 vvcurveto
          -31 callgsubr
          hintmask 10111100
          95 -5 43 -40 -99 vvcurveto
          endchar
        </CharString>
        <CharString name="Q">
          107 -214 166 691 82 hstemhm
          24 128 60 76 -76 244 -104 128 hintmask 11110100
          454 -109 rmoveto
          -10 43 -28 19 -32 -1 rrcurveto
          -45 -33 -35 -46 -4 hvcurveto
          -13 21 -1 20 5 vvcurveto
          38 17 20 21 15 vhcurveto
          101 46 53 144 170 vvcurveto
          207 -69 168 -159 -154 -74 -168 -207 -195 67 -159 132 -20 vhcurveto
          -10 -27 -1 -26 -11 vvcurveto
          -77 69 -49 67 65 43 36 51 6 -1 6 -1 6 vhcurveto
          -102 459 rmoveto
          hintmask 11101000
          -26 callgsubr
        </CharString>
        <CharString name="R">
          77 8 1 callsubr
          hstem
          46 121 vstem
          -98 callsubr
          endchar
        </CharString>
        <CharString name="Racute">
          77 8 1 callsubr
          51 -21 200 -20 hstemhm
          46 121 hintmask 11100100
          -98 callsubr
          hintmask 00011000
          -120 262 -102 callgsubr
          endchar
        </CharString>
        <CharString name="Rcaron">
          77 8 1 callsubr
          57 -21 194 -20 hstemhm
          46 121 hintmask 11100100
          -98 callsubr
          hintmask 00011000
          18 397 -106 callgsubr
        </CharString>
        <CharString name="Rcommaaccent">
          77 -166 -45 callsubr
          66 1 callsubr
          hstemhm
          46 121 18 103 hintmask 00111100
          -98 callsubr
          hintmask 11000010
          -40 -596 -97 callgsubr
        </CharString>
        <CharString name="S">
          -18 callsubr
          hstemhm
          25 117 -117 177 107 112 hintmask 10110100
          420 168 rmoveto
          1 9 0 8 8 vvcurveto
          89 -45 63 -106 67 vhcurveto
          -90 57 -38 35 62 vvcurveto
          53 43 26 36 vhcurveto
          0 23 0 20 -19 vhcurveto
          -20 -26 0 -36 0 vvcurveto
          -45 40 -24 32 25 66 9 87 86 -85 56 -98 -97 -102 -68 -134 -135 120 -62 51 -29 vhcurveto
          hintmask 11001100
          51 -29 62 -43 -82 vvcurveto
          -70 -60 -21 -34 -17 -28 12 22 -18 vhcurveto
          50 12 0 52 1 vvcurveto
          -64 callsubr
          93 104 42 147 13 vhcurveto
          endchar
        </CharString>
        <CharString name="Sacute">
          -18 callsubr
          55 -21 200 -93 callsubr
          -224 633 -102 callgsubr
          endchar
        </CharString>
        <CharString name="Scaron">
          -18 callsubr
          57 -21 194 -93 callsubr
          -75 764 -106 callgsubr
        </CharString>
        <CharString name="Scedilla">
          42 -175 -21 176 80 435 238 -88 88 hstemhm
          25 117 -117 177 19 63 25 112 hintmask 11011011
          284 -21 callsubr
          9 40 88 5 91 46 12 137 rlinecurve
          1 9 0 8 8 vvcurveto
          89 -45 63 -106 67 vhcurveto
          -90 57 -38 35 62 vvcurveto
          53 43 26 36 vhcurveto
          0 23 0 20 -19 vhcurveto
          -20 -26 0 -36 0 vvcurveto
          -45 40 -24 32 25 66 9 87 86 -85 56 -98 -97 -102 -68 -134 -135 120 -62 51 -29 vhcurveto
          51 -29 62 -43 -82 vvcurveto
          -70 -60 -21 -34 -17 -28 12 22 -18 vhcurveto
          50 12 0 52 1 vvcurveto
          hintmask 11100111
          69 -48 21 -38 -36 -57 -25 -84 -101 77 -52 90 -7 vhcurveto
          -30 -81 -61 callgsubr
          -68 callsubr
        </CharString>
        <CharString name="Scircumflex">
          -18 callsubr
          42 -21 194 -93 callsubr
          -78 617 rmoveto
          -25 42 -53 121 0 vvcurveto
          0 -17 -2 -23 -12 -13 1 1 -14 vhcurveto
          0 -56 -99 -33 -65 vhcurveto
          34 -10 24 -6 32 -14 rrcurveto
          9 34 23 84 0 vvcurveto
          -10 27 -56 11 -49 vhcurveto
          30 8 19 10 37 10 rrcurveto
          endchar
        </CharString>
        <CharString name="T">
          -18 1 25 callsubr
          hstemhm
          131 26 callgsubr
          hintmask 01100100
          hintmask 10101000
          260 -8 rmoveto
          hintmask 10110000
          -29 callgsubr
          hintmask 01110000
          -79 callsubr
          hintmask 01100100
          -35 callsubr
          endchar
        </CharString>
        <CharString name="Tbar">
          -18 1 -21 33 -21 316 90 187 118 hstemhm
          131 129 -116 102 -102 184 hintmask 10110100
          329 407 rmoveto
          hintmask 10111000
          -14 -5 -32 -3 -37 -1 rrcurveto
          15 vlineto
          61 0 60 2 62 vhcurveto
          hintmask 01110100
          120 3 rlineto
          hintmask 01111000
          26 vlineto
          hintmask 10110010
          25 1 20 3 33 vhcurveto
          -6 -109 -93 -2 -104 hhcurveto
          -59 hlineto
          5 -44 2 -25 1 -45 123 9 rcurveline
          3 -63 2 -63 1 -65 -32 2 -30 2 -21 4 rrcurveto
          2 -15 0 -14 -13 vvcurveto
          -20 -1 -20 -1 -17 vhcurveto
          55 hlineto
          28 hlineto
          -2 -101 -5 -107 -6 -120 rrcurveto
          -35 callsubr
          -7 105 -4 104 -2 106 31 -1 28 -2 23 -1 rrcurveto
          -1 9 0 24 24 vvcurveto
          23 0 21 1 3 vhcurveto
          endchar
        </CharString>
        <CharString name="Tcaron">
          -18 1 25 callsubr
          47 -21 194 -20 hstemhm
          131 26 callgsubr
          hintmask 01100001
          hintmask 10100010
          260 -8 rmoveto
          hintmask 10100100
          -29 callgsubr
          hintmask 01100100
          -79 callsubr
          hintmask 01100001
          -35 callsubr
          hintmask 00011000
          52 900 -106 callgsubr
        </CharString>
        <CharString name="Tcommaaccent">
          -18 -166 -45 callsubr
          59 25 callsubr
          hstemhm
          131 115 -108 103 -97 102 -102 116 hintmask 0001100010000000
          hintmask 0010100100000000
          260 -8 rmoveto
          hintmask 0010110000000000
          -29 callgsubr
          hintmask 0001110000000000
          -79 callsubr
          hintmask 0001100010000000
          -35 callsubr
          hintmask 1100001000000000
          -19 -82 -97 callgsubr
        </CharString>
        <CharString name="Thorn">
          46 -10 -21 26 -21 145 75 328 81 139 -20 hstemhm
          36 133 138 126 hintmask 01111110
          433 382 rmoveto
          216 -184 5 -73 vhcurveto
          139 vlineto
          -133 -12 rlineto
          7 -80 0 -255 -10 callgsubr
          -6 69 -2 49 -1 32 rrcurveto
          -31 callgsubr
          hintmask 10111110
          95 -5 43 -40 -99 vvcurveto
          endchar
        </CharString>
        <CharString name="U">
          -36 89 648 -55 callsubr
          hintmask 11011000
          -77 callsubr
          hintmask 11101000
          -105 callsubr
          endchar
        </CharString>
        <CharString name="Uacute">
          -20 callsubr
          75 -21 200 -55 callsubr
          hintmask 11000110
          -77 callsubr
          hintmask 11001010
          -105 callsubr
          hintmask 00110000
          -215 448 -102 callgsubr
          endchar
        </CharString>
        <CharString name="Ubreve">
          -20 callsubr
          45 86 112 -26 callsubr
          -25 77 68 70 -34 117 hintmask 1100010010000000
          -77 callsubr
          hintmask 1100100010000000
          -105 callsubr
          hintmask 0011001100000000
          -83 588 -105 callgsubr
        </CharString>
        <CharString name="Ucircumflex">
          -20 callsubr
          69 -21 194 -55 callsubr
          hintmask 11000110
          -77 callsubr
          hintmask 11001010
          -105 callsubr
          hintmask 00110000
          -73 439 rmoveto
          -25 42 -53 121 0 vvcurveto
          0 -17 -2 -23 -12 -13 1 1 -14 vhcurveto
          0 -56 -99 -33 -65 vhcurveto
          34 -10 24 -6 32 -14 rrcurveto
          9 34 23 84 0 vvcurveto
          -10 27 -56 11 -49 vhcurveto
          30 8 19 10 37 10 rrcurveto
          endchar
        </CharString>
        <CharString name="Udieresis">
          -20 callsubr
          52 103 -40 callsubr
          -41 104 28 104 -39 117 hintmask 11001001
          -77 callsubr
          hintmask 11010001
          -105 callsubr
          hintmask 00100110
          -210 463 -104 callsubr
        </CharString>
        <CharString name="Ugrave">
          -20 callsubr
          72 -21 200 -55 callsubr
          hintmask 11000110
          -77 callsubr
          hintmask 11001010
          -105 callsubr
          hintmask 00110000
          -265 611 -90 callsubr
        </CharString>
        <CharString name="Uhungarumlaut">
          -20 callsubr
          64 -21 200 -55 callsubr
          hintmask 11000110
          -77 callsubr
          hintmask 11001010
          -105 callsubr
          hintmask 00110000
          -304 437 -77 callgsubr
        </CharString>
        <CharString name="Umacron">
          -20 callsubr
          51 88 -69 -21 91 -26 callsubr
          -34 227 -37 117 hintmask 1100001010000000
          -77 callsubr
          hintmask 1100010010000000
          -105 callsubr
          hintmask 0001100100000000
          -80 500 -86 callsubr
          hintmask 0010000100000000
          -33 callgsubr
          hintmask 0001100100000000
          -60 callgsubr
        </CharString>
        <CharString name="Uogonek">
          -187 67 85 88 648 -26 callsubr
          5 56 95 117 hintmask 11101110
          275 -90 -67 callsubr
          24 13 24 15 20 hvcurveto
          hintmask 11110110
          159 10 25 185 161 44 -10 125 137 vvcurveto
          25 0 24 1 25 vhcurveto
          -138 -4 rlineto
          18 -140 12 -144 -154 vvcurveto
          -142 -30 -64 -56 -50 -20 53 99 160 15 28 30 300 vhcurveto
          -146 5 rlineto
          -12 -386 -5 18 -51 vvcurveto
          -139 24 -149 132 -24 vhcurveto
          4 callsubr
          endchar
        </CharString>
        <CharString name="Uring">
          -20 callsubr
          52 58 69 59 -40 callsubr
          -4 58 71 59 -28 117 hintmask 1100010010000000
          -77 callsubr
          hintmask 1100100010000000
          -105 callsubr
          hintmask 0011001100000000
          -148 504 -89 callgsubr
        </CharString>
        <CharString name="Utilde">
          -20 callsubr
          47 86 -39 39 -39 81 10 -55 callsubr
          hintmask 1100000110000000
          -77 callsubr
          hintmask 1100001010000000
          -105 callsubr
          hintmask 0010010000000000
          -93 545 rmoveto
          hintmask 0000100000000000
          0 -22 -52 -36 vhcurveto
          hintmask 0010010000000000
          -28 -19 42 -53 hhcurveto
          hintmask 0001010000000000
          -49 -18 -33 -47 -21 hvcurveto
          49 -48 rlineto
          hintmask 0010010000000000
          30 17 10 17 23 36 19 -47 39 hhcurveto
          60 35 78 7 callgsubr
        </CharString>
        <CharString name="V">
          23 -1 -21 724 -20 hstem
          151 123 vstem
          419 701 rmoveto
          -2 -24 -22 -1 -22 hhcurveto
          -25 -25 1 3 -27 hvcurveto
          -5 -187 -23 -222 -33 -192 -31 192 -22 221 -9 187 rrcurveto
          -2 -38 -32 -2 -36 -12 -13 1 -13 hhcurveto
          54 -232 30 -236 29 -240 184 -12 rcurveline
          19 239 28 240 68 244 rrcurveto
          endchar
        </CharString>
        <CharString name="W">
          -22 callgsubr
          hstemhm
          39 122 104 108 -108 124 99 125 hintmask 10111010
          458 698 rmoveto
          10 -47 20 -138 -197 vvcurveto
          hintmask 10110110
          -126 -5 -107 -45 -43 -22 132 84 24 -2 13 18 315 vhcurveto
          -124 5 rlineto
          3 -127 1 -82 -50 vvcurveto
          -50 -1 -18 0 vhcurveto
          -72 -23 -168 -42 -42 0 123 107 189 33 191 0 vhcurveto
          -143 4 rlineto
          0 -12 -193 -200 vvcurveto
          hintmask 01111010
          -165 11 -171 117 6 95 -1 99 41 vhcurveto
          -106 36 94 0 3 hhcurveto
          128 43 160 183 189 -16 197 7 callgsubr
        </CharString>
        <CharString name="Wacute">
          -22 callgsubr
          25 -21 200 -95 callgsubr
          -292 26 -102 callgsubr
          endchar
        </CharString>
        <CharString name="Wcircumflex">
          -22 callgsubr
          55 -21 194 -95 callgsubr
          -149 53 rmoveto
          -25 42 -53 121 0 vvcurveto
          0 -17 -2 -23 -12 -13 1 1 -14 vhcurveto
          0 -56 -99 -33 -65 vhcurveto
          34 -10 24 -6 32 -14 rrcurveto
          9 34 23 84 0 vvcurveto
          -10 27 -56 11 -49 vhcurveto
          30 8 19 10 37 10 rrcurveto
          endchar
        </CharString>
        <CharString name="Wdieresis">
          -22 callgsubr
          31 103 hstemhm
          39 122 46 104 -46 108 -108 124 -50 104 45 125 hintmask 1010101001000000
          458 698 rmoveto
          10 -47 20 -138 -197 vvcurveto
          hintmask 1010100101000000
          -126 -5 -107 -45 -43 -22 132 84 24 -2 13 18 315 vhcurveto
          -124 5 rlineto
          3 -127 1 -82 -50 vvcurveto
          -50 -1 -18 0 vhcurveto
          -72 -23 -168 -42 -42 0 123 107 189 33 191 0 vhcurveto
          -143 4 rlineto
          0 -12 -193 -200 vvcurveto
          hintmask 0110101001000000
          -165 11 -171 117 6 95 -1 99 41 vhcurveto
          -106 36 94 0 3 hhcurveto
          128 43 160 183 189 -16 197 0 hvcurveto
          hintmask 0001010010000000
          -286 70 -104 callsubr
        </CharString>
        <CharString name="Wgrave">
          -22 callgsubr
          43 -21 200 -95 callgsubr
          -350 210 -90 callsubr
        </CharString>
        <CharString name="X">
          16 -6 -21 37 -21 713 -20 hstemhm
          hintmask 01100000
          hintmask 10100000
          417 -11 rmoveto
          -50 107 -55 114 -52 127 43 120 48 122 63 121 rrcurveto
          hintmask 01100000
          -1 -22 -19 0 -20 hhcurveto
          -27 -26 1 2 -29 hvcurveto
          -22 -82 -22 -74 -22 -69 -25 71 -25 74 -22 80 -46 -2 -39 -2 -51 -1 59 -131 53 -119 46 -114 -46 -126 -51 -111 -60 -116 137 -7 rcurveline
          25 71 24 74 26 75 26 -72 24 -70 22 -71 rrcurveto
          6 48 39 3 48 hhcurveto
          endchar
        </CharString>
        <CharString name="Y">
          -1 callsubr
          hstem
          163 117 vstem
          -96 callsubr
          endchar
        </CharString>
        <CharString name="Yacute">
          -1 callsubr
          67 -21 200 -20 hstemhm
          163 117 hintmask 11001000
          -96 callsubr
          hintmask 00110000
          -233 75 -102 callgsubr
          endchar
        </CharString>
        <CharString name="Ycircumflex">
          -1 callsubr
          66 -21 194 -20 hstemhm
          163 117 hintmask 11001000
          -96 callsubr
          hintmask 00110000
          -82 71 rmoveto
          -25 42 -53 121 0 vvcurveto
          0 -17 -2 -23 -12 -13 1 1 -14 vhcurveto
          0 -56 -99 -33 -65 vhcurveto
          34 -10 24 -6 32 -14 rrcurveto
          9 34 23 84 0 vvcurveto
          -10 27 -56 11 -49 vhcurveto
          30 8 19 10 37 10 rrcurveto
          endchar
        </CharString>
        <CharString name="Ydieresis">
          -1 callsubr
          57 103 hstemhm
          102 104 -43 117 -46 104 hintmask 11001000
          -96 callsubr
          hintmask 00110100
          -218 103 -104 callsubr
        </CharString>
        <CharString name="Ygrave">
          -1 callsubr
          50 -21 200 -20 hstemhm
          163 117 hintmask 11001000
          -96 callsubr
          hintmask 00110000
          -276 224 -90 callsubr
        </CharString>
        <CharString name="Z">
          2 callsubr
          hstem
          -87 callsubr
          endchar
        </CharString>
        <CharString name="Zacute">
          2 callsubr
          51 -21 200 -20 hstemhm
          hintmask 11000000
          -87 callsubr
          hintmask 00110000
          -191 175 -102 callgsubr
          endchar
        </CharString>
        <CharString name="Zcaron">
          2 callsubr
          62 -21 194 -20 hstemhm
          hintmask 11000000
          -87 callsubr
          hintmask 00110000
          -45 315 -106 callgsubr
        </CharString>
        <CharString name="Zdotaccent">
          2 callsubr
          34 103 hstemhm
          138 104 hintmask 11000000
          -87 callsubr
          hintmask 00110000
          -114 196 rmoveto
          -100 callgsubr
        </CharString>
        <CharString name="a">
          -65 callsubr
          -9 callsubr
          hintmask 11010100
          -86 callgsubr
          hintmask 10101100
          -107 callsubr
          endchar
        </CharString>
        <CharString name="aacute">
          -65 callsubr
          53 -21 200 6 callgsubr
          hintmask 11000101
          -86 callgsubr
          hintmask 10100011
          -107 callsubr
          hintmask 00011000
          -93 368 -102 callgsubr
          endchar
        </CharString>
        <CharString name="abreve">
          -65 callsubr
          25 -41 callsubr
          21 104 -104 140 -67 77 68 70 -50 106 hintmask 1100010001000000
          -86 callgsubr
          hintmask 1010001001000000
          -107 callsubr
          hintmask 0001100110000000
          51 510 -105 callgsubr
        </CharString>
        <CharString name="acircumflex">
          -65 callsubr
          52 -21 194 6 callgsubr
          hintmask 11000101
          -86 callgsubr
          hintmask 10100011
          -107 callsubr
          hintmask 00011000
          64 364 rmoveto
          -25 42 -53 121 0 vvcurveto
          0 -17 -2 -23 -12 -13 1 1 -14 vhcurveto
          0 -56 -99 -33 -65 vhcurveto
          34 -10 24 -6 32 -14 rrcurveto
          9 34 23 84 0 vvcurveto
          -10 27 -56 11 -49 vhcurveto
          30 8 19 10 37 10 rrcurveto
          endchar
        </CharString>
        <CharString name="acute">
          -222 -19 callsubr
          endchar
        </CharString>
        <CharString name="adieresis">
          -65 callsubr
          32 103 hstemhm
          21 104 -104 140 -80 104 28 104 -58 106 hintmask 1100100010000000
          -86 callgsubr
          hintmask 1010010010000000
          -107 callsubr
          hintmask 0001001100000000
          -73 385 -104 callsubr
        </CharString>
        <CharString name="ae">
          -4 callsubr
          hstemhm
          21 104 -104 140 98 -52 callsubr
          hintmask 1000101010100000
          hintmask 0101001011000000
          -32 callsubr
          hintmask 1001001011000000
          145 41 78 103 94 vvcurveto
          104 -73 57 -88 vhcurveto
          hintmask 1000011011000000
          -78 callgsubr
          hintmask 1001000111000000
          8 callgsubr
          hintmask 0011001011000000
          -28 callsubr
          endchar
        </CharString>
        <CharString name="aeacute">
          -4 callsubr
          51 -21 200 -20 hstemhm
          21 104 -104 140 98 -52 callsubr
          hintmask 1000100010101000
          hintmask 0101000010110000
          -32 callsubr
          hintmask 1001000010110000
          145 41 78 103 94 vvcurveto
          104 -73 57 -88 vhcurveto
          hintmask 1000010010110000
          -78 callgsubr
          hintmask 1001000001110000
          8 callgsubr
          hintmask 0011000010110000
          -28 callsubr
          hintmask 0000001100000000
          30 346 -102 callgsubr
          endchar
        </CharString>
        <CharString name="agrave">
          -65 callsubr
          58 -21 200 6 callgsubr
          hintmask 11000101
          -86 callgsubr
          hintmask 10100011
          -107 callsubr
          hintmask 00011000
          -145 539 -90 callsubr
        </CharString>
        <CharString name="amacron">
          -65 callsubr
          30 -48 callsubr
          21 104 -104 140 -72 227 -57 106 hintmask 1100001001000000
          -86 callgsubr
          hintmask 1010000101000000
          -107 callsubr
          hintmask 0000110010000000
          58 421 -86 callsubr
          hintmask 0001000010000000
          -33 callgsubr
          hintmask 0000110010000000
          -60 callgsubr
        </CharString>
        <CharString name="ampersand">
          82 -53 100 608 80 hstemhm
          8 116 -23 99 56 92 -11 112 hintmask 11011000
          478 -10 rmoveto
          -28 28 -24 29 -23 28 rrcurveto
          14 30 32 78 94 vvcurveto
          18 -1 19 -3 19 vhcurveto
          -111 -25 rlineto
          2 -22 1 -20 -19 vvcurveto
          -27 -2 -23 -4 -20 vhcurveto
          -65 103 -28 80 0 vvcurveto
          -3 7 -2 6 -2 7 rrcurveto
          hintmask 11100100
          49 68 68 84 94 vvcurveto
          83 -53 26 -45 -52 -97 -33 -174 -48 7 -48 13 -49 vhcurveto
          -56 -75 -57 -58 -109 vvcurveto
          -107 65 -87 122 44 47 12 26 39 vhcurveto
          12 -16 rlineto
          -180 307 rmoveto
          30 -73 40 -72 43 -66 rrcurveto
          -15 -23 -25 -3 -16 hhcurveto
          hintmask 11011000
          -57 -25 43 61 39 11 44 22 42 hvcurveto
          99 341 rmoveto
          -38 -6 -30 -45 -63 vhcurveto
          -3 25 -2 21 20 vvcurveto
          68 19 35 16 vhcurveto
          hintmask 11100100
          15 6 -17 -21 hvcurveto
          endchar
        </CharString>
        <CharString name="aogonek">
          6 -173 67 80 93 274 227 -73 73 hstemhm
          21 104 -104 140 98 48 -48 106 hintmask 11101010
          369 -76 -67 callsubr
          26 16 27 16 21 hvcurveto
          39 2 rlineto
          hintmask 11100101
          -11 55 -2 87 85 50 1 50 41 vvcurveto
          110 -49 103 -123 -122 -48 -78 -54 -55 30 -40 40 39 28 24 44 0 -1 33 -32 20 vhcurveto
          hintmask 11011010
          18 13 20 15 30 hhcurveto
          41 22 -24 -89 5 hvcurveto
          -13 -28 -22 -26 -28 -23 rrcurveto
          -46 -38 -129 -26 18 callsubr
          -107 62 -28 51 49 43 25 44 30 vhcurveto
          2 -22 3 -21 4 -20 19 1 rcurveline
          4 callsubr
          -154 289 rmoveto
          -36 -12 -28 -59 -48 hhcurveto
          -26 -15 24 29 43 57 40 39 28 hvcurveto
          13 9 13 13 11 13 rrcurveto
          endchar
        </CharString>
        <CharString name="approxequal">
          123 130 27 callsubr
          27 133 -61 61 -61 128 15 -20 hstemhm
          hintmask 01101001
          428 572 rmoveto
          hintmask 01011001
          -43 callgsubr
          hintmask 10000101
          -31 callsubr
          -66 -133 rmoveto
          hintmask 10000010
          -43 callgsubr
          hintmask 10001001
          -31 callsubr
          endchar
        </CharString>
        <CharString name="aring">
          -65 callsubr
          33 58 69 59 hstemhm
          21 104 -104 140 -63 58 71 59 -27 106 hintmask 1100010001000000
          -86 callgsubr
          hintmask 1010001001000000
          -107 callsubr
          hintmask 0001100110000000
          -31 427 -89 callgsubr
        </CharString>
        <CharString name="asciicircum">
          -63 368 -21 356 -20 hstem
          334 389 rmoveto
          -37 79 -77 235 0 vvcurveto
          0 -28 -2 -35 -17 -19 0 2 -18 vhcurveto
          0 -57 -193 -46 -123 vhcurveto
          43 -13 33 -8 41 -19 rrcurveto
          10 67 33 188 0 vvcurveto
          -12 29 -127 20 -112 vhcurveto
          125 38 rlineto
          endchar
        </CharString>
        <CharString name="asciitilde">
          112 249 27 callsubr
          15 -20 hstemhm
          hintmask 01101000
          422 464 rmoveto
          hintmask 01010000
          -43 callgsubr
          hintmask 10001000
          -31 callsubr
          endchar
        </CharString>
        <CharString name="asterisk">
          -34 407 -21 322 -20 hstem
          123 705 rmoveto
          1 7 -51 6 -42 vhcurveto
          -32 20 -38 24 -3 3 rrcurveto
          -1 -4 -41 -103 0 vvcurveto
          98 -20 -74 -61 81 -86 56 121 80 -118 67 96 -79 53 90 23 rlineto
          0 -41 111 2 -2 vhcurveto
          -4 -40 -28 -23 -34 hvcurveto
          9 89 rlineto
          0 -86 -3 -19 vhcurveto
          -4 hlineto
          endchar
        </CharString>
        <CharString name="at">
          231 -20 -21 132 50 370 58 hstemhm
          27 96 65 88 -88 103 63 77 85 91 hintmask 11111011
          607 304 rmoveto
          229 -173 36 -99 -139 -169 -71 -226 -129 20 -184 244 vhcurveto
          64 vlineto
          -115 11 -53 77 147 vvcurveto
          167 66 86 139 150 38 -104 -106 -103 -25 -57 -30 vhcurveto
          hintmask 11110111
          -30 0 57 48 56 12 111 0 hvcurveto
          -87 7 rlineto
          -1 -11 0 -13 -13 vvcurveto
          -23 21 -24 -68 callgsubr
          -62 -58 -27 -117 -113 38 -42 61 hvcurveto
          0 54 1 28 41 vhcurveto
          -35 15 26 -21 46 hhcurveto
          58 93 29 184 hvcurveto
          -253 7 rmoveto
          -74 0 -13 1 -12 vhcurveto
          -22 -46 -20 -68 callgsubr
          -28 -9 42 52 53 14 39 23 hvcurveto
          0 27 -1 14 -40 vhcurveto
          endchar
        </CharString>
        <CharString name="atilde">
          -65 callsubr
          37 86 -39 39 -39 81 10 6 callgsubr
          hintmask 1100000101000000
          -86 callgsubr
          hintmask 1010000011000000
          -107 callsubr
          hintmask 0001001000000000
          43 477 -55 callgsubr
        </CharString>
        <CharString name="b">
          36 -33 89 393 114 172 -20 hstemhm
          34 113 -105 105 151 111 hintmask 11101100
          hintmask 11110100
          29 733 rmoveto
          7 -158 6 -157 -158 vvcurveto
          -94 -2 -95 -6 -95 vhcurveto
          110 -2 rlineto
          54 vlineto
          -59 39 52 -2 7 hhcurveto
          77 90 73 217 235 -53 71 -94 hvcurveto
          0 -65 -2 -44 -79 vhcurveto
          4 84 6 84 8 85 rrcurveto
          35 -678 rmoveto
          0 -31 8 -31 62 vhcurveto
          63 1 64 2 64 vhcurveto
          37 9 25 94 53 hhcurveto
          34 30 -43 -146 -163 -46 -41 -35 -4 -4 0 1 -3 hvcurveto
          endchar
        </CharString>
        <CharString name="backslash">
          40 14 -21 719 -20 hstem
          14 702 rmoveto
          60 -124 139 -346 70 -239 rrcurveto
          0 72 11 55 vhcurveto
          12 hlineto
          -110 202 -116 330 -45 176 rrcurveto
          endchar
        </CharString>
        <CharString name="bar">
          -169 -46 -21 873 -20 hstem
          56 114 vstem
          190 806 rmoveto
          -1 -31 -26 -1 -28 hhcurveto
          -20 -20 0 2 -24 hvcurveto
          14 -141 1 -143 -142 vvcurveto
          -60 -7 -367 -8 -20 vhcurveto
          11 callgsubr
          -17 162 -6 164 164 vvcurveto
          126 4 127 16 125 vhcurveto
          endchar
        </CharString>
        <CharString name="braceleft">
          5 callgsubr
          16 187 -139 106 -78 78 hintmask 11110100
          273 804 rmoveto
          1 -11 -12 1 -11 hhcurveto
          -117 -58 -71 -113 hvcurveto
          -63 28 -42 -45 vvcurveto
          -46 -28 -38 -48 vhcurveto
          hintmask 11110010
          -117 vlineto
          hintmask 11111000
          8 hlineto
          46 30 -35 -45 hvcurveto
          -54 -37 -46 -53 vvcurveto
          -116 95 -48 98 -15 vhcurveto
          21 125 rlineto
          0 -17 -2 -16 -49 -25 24 41 vhcurveto
          39 33 92 39 vvcurveto
          hintmask 11110100
          53 -32 55 -55 13 vhcurveto
          hintmask 11111000
          54 11 37 44 56 44 -40 94 42 vvcurveto
          37 28 32 35 20 20 -1 -8 16 vhcurveto
          endchar
        </CharString>
        <CharString name="braceright">
          5 callgsubr
          89 107 -107 191 -151 104 hintmask 11110010
          10 689 rmoveto
          8 16 20 1 20 hhcurveto
          35 28 -32 -37 hvcurveto
          hintmask 11111000
          -42 -40 -94 -44 vvcurveto
          -56 37 -44 54 -11 vhcurveto
          -55 -13 -32 -55 -53 -39 33 -92 -39 vvcurveto
          -41 -25 -24 -49 -16 -17 2 0 vhcurveto
          21 -125 rlineto
          hintmask 11110010
          98 15 95 48 116 vvcurveto
          hintmask 11111000
          53 -37 46 54 vvcurveto
          45 29 35 47 vhcurveto
          hintmask 11110100
          3 2 0 3 hhcurveto
          117 vlineto
          -48 -28 38 46 hvcurveto
          45 28 42 63 vvcurveto
          113 -58 71 -117 -11 -12 -1 -1 -11 vhcurveto
          endchar
        </CharString>
        <CharString name="bracketleft">
          -107 -78 101 767 -20 hstemhm
          42 131 -118 118 hintmask 11100000
          273 24 rmoveto
          hintmask 11010000
          -92 -2 rlineto
          hintmask 11100000
          -5 113 -3 143 113 vvcurveto
          97 2 96 5 97 vhcurveto
          41 26 -1 -1 26 hvcurveto
          -2 111 rlineto
          0 -157 -5 -72 -3 vhcurveto
          11 -142 2 -113 -142 vvcurveto
          -153 -3 -153 -10 -153 vhcurveto
          -3 72 73 -1 86 hhcurveto
          endchar
        </CharString>
        <CharString name="bracketright">
          -107 -78 101 767 -20 hstemhm
          117 118 -118 131 hintmask 11010000
          17 -78 rmoveto
          86 73 1 3 72 hvcurveto
          hintmask 11100000
          -10 153 -3 153 153 vvcurveto
          hintmask 11010000
          142 2 113 11 142 vhcurveto
          -72 3 -157 5 0 vvcurveto
          -2 -111 rlineto
          1 26 26 1 41 hhcurveto
          5 -97 2 -96 -97 vvcurveto
          -113 -3 -143 -5 -113 vhcurveto
          -92 2 rlineto
          endchar
        </CharString>
        <CharString name="breve">
          -180 719 86 112 -20 hstem
          1 77 68 70 vstem
          216 902 -105 callgsubr
        </CharString>
        <CharString name="brokenbar">
          -167 -46 -21 873 -20 hstem
          55 117 vstem
          187 -62 rmoveto
          0 -7 264 -5 133 vhcurveto
          -117 -33 hlineto
          -141 -10 -228 0 vhcurveto
          4 42 24 1 37 hhcurveto
          32 868 rmoveto
          -1 -31 -24 -1 -25 hhcurveto
          -19 -19 0 2 -24 hvcurveto
          0 10 -243 4 -122 vhcurveto
          117 hlineto
          122 6 158 5 85 vhcurveto
          endchar
        </CharString>
        <CharString name="bullet">
          -106 264 189 hstem
          51 189 vstem
          240 358 rmoveto
          53 -42 42 -51 -53 -43 -42 -53 -51 43 -43 53 51 42 43 51 vhcurveto
          endchar
        </CharString>
        <CharString name="c">
          -2 callsubr
          hstem
          22 125 92 149 vstem
          -96 callgsubr
          endchar
        </CharString>
        <CharString name="cacute">
          -2 callsubr
          50 -21 200 -20 hstemhm
          22 125 92 149 hintmask 11001100
          -96 callgsubr
          hintmask 00110000
          -192 223 -102 callgsubr
          endchar
        </CharString>
        <CharString name="caron">
          -151 749 -21 194 -20 hstem
          246 891 -106 callgsubr
        </CharString>
        <CharString name="ccaron">
          -2 callsubr
          47 -21 194 -20 hstemhm
          22 125 92 149 hintmask 11001100
          -96 callgsubr
          hintmask 00110000
          -65 349 -106 callgsubr
        </CharString>
        <CharString name="ccedilla">
          12 -196 236 468 67 hstemhm
          22 125 68 63 -39 149 hintmask 11110000
          278 -21 callsubr
          6 27 rlineto
          90 3 78 94 76 vvcurveto
          77 -49 14 -22 vhcurveto
          hintmask 11101000
          -21 -57 -14 -62 0 0 -49 44 -22 hvcurveto
          -23 -44 -40 -68 callgsubr
          -56 -17 106 134 135 31 93 48 hvcurveto
          0 38 -1 21 -49 vhcurveto
          -39 -20 0 -47 0 vvcurveto
          -64 47 -11 22 22 55 9 90 89 -77 71 -89 -90 -114 -52 -243 -211 78 -81 81 -17 vhcurveto
          -27 -72 -61 callgsubr
          hvcurveto
          hintmask 11110000
          -68 callsubr
        </CharString>
        <CharString name="ccircumflex">
          -2 callsubr
          45 -21 194 -20 hstemhm
          22 125 92 149 hintmask 11001100
          -96 callgsubr
          hintmask 00110000
          -60 215 rmoveto
          -25 42 -53 121 0 vvcurveto
          0 -17 -2 -23 -12 -13 1 1 -14 vhcurveto
          0 -56 -99 -33 -65 vhcurveto
          34 -10 24 -6 32 -14 rrcurveto
          9 34 23 84 0 vvcurveto
          -10 27 -56 11 -49 vhcurveto
          30 8 19 10 37 10 rrcurveto
          endchar
        </CharString>
        <CharString name="cdotaccent">
          -2 callsubr
          29 103 hstemhm
          22 125 10 104 -22 149 hintmask 11010100
          -96 callgsubr
          hintmask 00101000
          -131 240 rmoveto
          -100 callgsubr
        </CharString>
        <CharString name="cedilla">
          -267 -175 -21 206 -20 hstem
          67 63 vstem
          130 -21 callsubr
          17 70 rlineto
          -35 hlineto
          -42 -111 -61 callgsubr
          -68 callsubr
        </CharString>
        <CharString name="cent">
          -56 -136 -21 185 212 76 207 -54 54 -54 237 hstemhm
          21 100 24 72 -22 119 hintmask 11001110
          317 395 rmoveto
          hintmask 11010101
          71 -62 57 -71 -72 -91 -50 -194 -194 82 -57 74 73 64 77 62 61 -39 12 -18 -17 -45 -12 -49 0 0 -39 34 -18 vhcurveto
          -18 -35 -32 -68 callgsubr
          -44 -14 85 107 108 25 82 38 hvcurveto
          0 30 -1 17 -38 vhcurveto
          -32 -17 1 -37 0 vvcurveto
          -52 38 -8 17 18 44 7 72 vhcurveto
          -100 -505 rmoveto
          32 -22 70 -4 20 vhcurveto
          -25 hlineto
          -2 -20 -19 -72 -29 vvcurveto
          -34 18 -14 18 18 18 14 33 vhcurveto
          768 vmoveto
          hintmask 11100110
          34 -18 14 -18 -18 -18 -14 -32 -33 22 -70 4 -19 vhcurveto
          25 hlineto
          2 19 19 72 29 vvcurveto
          endchar
        </CharString>
        <CharString name="circumflex">
          -151 749 -21 194 -20 hstem
          246 759 rmoveto
          -25 42 -53 121 0 vvcurveto
          0 -17 -2 -23 -12 -13 1 1 -14 vhcurveto
          0 -56 -99 -33 -65 vhcurveto
          34 -10 24 -6 32 -14 rrcurveto
          9 34 23 84 0 vvcurveto
          -10 27 -56 11 -49 vhcurveto
          30 8 19 10 37 10 rrcurveto
          endchar
        </CharString>
        <CharString name="colon">
          -186 -18 129 254 129 hstem
          41 19 callgsubr
          170 429 rmoveto
          -88 callsubr
          -383 vmoveto
          -88 callsubr
          endchar
        </CharString>
        <CharString name="comma">
          -213 -55 15 callgsubr
          27 19 callgsubr
          156 46 rmoveto
          -80 callsubr
          endchar
        </CharString>
        <CharString name="copyright">
          70 136 36 225 87 -27 27 39 30 hstemhm
          32 50 39 65 55 80 59 55 hintmask 10111111
          32 345 rmoveto
          -149 90 -60 111 112 90 63 146 148 -90 60 -112 -111 -90 -56 -152 vhcurveto
          50 3 rmoveto
          128 66 47 83 82 67 -51 -124 -123 -67 -53 -82 -83 -66 51 125 vhcurveto
          239 -80 rmoveto
          46 -37 4 -7 -6 -30 -7 -23 -15 14 -11 14 2 3 0 1 3 vhcurveto
          -2 -36 15 callsubr
          -42 -13 59 57 57 9 57 36 hvcurveto
          0 13 0 8 -8 vhcurveto
          -9 -11 0 -13 0 vvcurveto
          hintmask 11011111
          -18 19 -10 16 21 16 15 22 23 -24 27 -54 -55 -61 -36 -103 -104 59 -42 59 35 47 21 48 vhcurveto
          endchar
        </CharString>
        <CharString name="currency">
          106 164 -21 58 61 200 60 62 -20 hstem
          93 100 109 97 vstem
          302 365 rmoveto
          -48 -9 -55 -45 -43 -12 50 53 51 11 46 44 43 11 -46 -51 vhcurveto
          166 -122 rmoveto
          -16 9 -28 23 -34 31 rrcurveto
          6 18 3 20 21 vvcurveto
          19 -3 18 -5 17 vhcurveto
          25 25 23 23 20 17 -20 16 -76 76 -4 8 -8 -15 -20 -25 -26 -31 rrcurveto
          6 -18 -19 3 -22 hhcurveto
          -22 -20 -3 -6 -18 hvcurveto
          -21 24 -18 22 -13 18 -31 -40 -36 -30 -28 -25 18 -18 22 -21 21 -22 rrcurveto
          -5 -17 -2 -19 -20 vvcurveto
          -24 4 -22 7 -20 vhcurveto
          -26 -24 -24 -21 -19 -14 39 -31 31 -36 25 -28 61 65 rcurveline
          -6 17 18 -3 20 hhcurveto
          22 20 3 7 17 hvcurveto
          63 -68 16 20 76 76 8 4 rlinecurve
          endchar
        </CharString>
        <CharString name="d">
          35 -28 112 386 98 167 20 callgsubr
          hintmask 11110100
          -5 callgsubr
          hintmask 11111000
          -46 callgsubr
          hintmask 11110100
          -126 -538 rmoveto
          hintmask 11111000
          -27 callgsubr
          endchar
        </CharString>
        <CharString name="dagger">
          -43 -46 -21 614 122 137 -20 hstem
          120 115 vstem
          333 -63 callgsubr
          1 -56 0 -56 -55 vvcurveto
          -60 -7 -367 -8 -20 vhcurveto
          11 callgsubr
          -17 162 -6 164 164 -27 callsubr
        </CharString>
        <CharString name="daggerdbl">
          -25 -62 233 -217 -21 116 122 376 122 137 -20 hstemhm
          129 120 hintmask 01111100
          342 -63 callgsubr
          hintmask 10011100
          1 -56 0 -56 -55 vvcurveto
          -27 -1 -88 -3 -91 vhcurveto
          -35 2 -33 3 -29 4 -42 callsubr
          76 hlineto
          18 hlineto
          -3 -62 -3 -47 -2 -7 rrcurveto
          11 callgsubr
          -4 36 -4 36 -2 36 85 -4 rcurveline
          -2 12 0 31 29 vvcurveto
          28 0 27 2 4 vhcurveto
          0 -39 -2 -54 vhcurveto
          -4 85 -1 86 86 -27 callsubr
        </CharString>
        <CharString name="dcaron">
          204 -28 112 386 98 22 -45 callsubr
          37 20 callgsubr
          75 103 hintmask 1100110100000000
          -5 callgsubr
          hintmask 1100111000000000
          -46 callgsubr
          hintmask 1100110100000000
          -126 -538 rmoveto
          hintmask 1100111000000000
          -27 callgsubr
          hintmask 0011000010000000
          281 432 -82 callsubr
        </CharString>
        <CharString name="dcroat">
          35 -28 112 386 98 42 124 1 -20 hstemhm
          24 123 136 106 -106 120 -120 152 hintmask 11011100
          436 698 rmoveto
          -7 -2 -9 -2 -12 -2 4 41 rcurveline
          -141 2 rlineto
          1 -15 1 -15 -14 vvcurveto
          -21 1 -21 3 -17 10 callsubr
          -18 -1 -18 -1 -14 vhcurveto
          hintmask 11101100
          49 hlineto
          14 hlineto
          3 -91 rlineto
          -45 49 -46 -68 callgsubr
          -28 callgsubr
          147 5 146 9 147 vhcurveto
          11 11 -1 11 hhcurveto
          19 callsubr
          -150 -503 rmoveto
          hintmask 11101010
          24 callgsubr
          hvcurveto
          hintmask 11101001
          156 42 45 36 25 19 -26 -21 14 vhcurveto
          2 -63 1 -63 -63 vvcurveto
          endchar
        </CharString>
        <CharString name="degree">
          -167 503 58 69 59 hstem
          21 58 71 59 vstem
          150 595 -89 callgsubr
        </CharString>
        <CharString name="dieresis">
          -161 721 103 hstem
          0 104 28 104 vstem
          104 772 -104 callsubr
        </CharString>
        <CharString name="divide">
          42 110 129 34 121 32 129 hstem
          152 19 callgsubr
          413 407 rmoveto
          -4 callgsubr
          -28 -2 -27 -1 -22 vhcurveto
          84 hlineto
          -5 callsubr
          -132 83 rmoveto
          -88 callsubr
          -316 vmoveto
          -88 callsubr
          endchar
        </CharString>
        <CharString name="dollar">
          -66 -130 -21 185 173 135 189 -53 53 -53 234 hstemhm
          41 88 13 73 -21 100 -100 114 hintmask 1100111000000000
          308 408 rmoveto
          66 -38 57 -88 -86 -55 -62 -67 -68 31 -43 57 -49 vhcurveto
          57 -50 8 -18 -33 vvcurveto
          -33 -27 -16 -13 vhcurveto
          hintmask 1110010010000000
          0 -16 1 -14 9 vhcurveto
          22 17 0 23 0 vvcurveto
          41 -26 24 -37 -44 -19 -31 -38 -36 42 -68 101 103 28 84 50 51 -30 40 -65 51 vhcurveto
          hintmask 1110011000000000
          -65 51 -5 21 37 vvcurveto
          hintmask 1101010010000000
          31 21 28 32 vhcurveto
          0 20 -1 17 -27 vhcurveto
          -28 -17 1 -33 0 vvcurveto
          -46 38 -12 19 19 40 18 48 vhcurveto
          -93 -512 rmoveto
          hintmask 1101010100000000
          32 -21 70 -6 20 vhcurveto
          -24 hlineto
          -2 -20 -20 -72 -29 vvcurveto
          -34 18 -14 19 19 17 14 33 vhcurveto
          769 vmoveto
          hintmask 1110010010000000
          33 -17 14 -19 -19 -18 -14 -32 -33 23 -70 5 -19 vhcurveto
          24 hlineto
          2 19 19 72 30 vvcurveto
          endchar
        </CharString>
        <CharString name="dotaccent">
          -293 721 103 hstem
          0 104 vstem
          104 772 rmoveto
          -100 callgsubr
        </CharString>
        <CharString name="dotlessi">
          -195 -16 callgsubr
          hstem
          43 114 vstem
          -94 callsubr
          endchar
        </CharString>
        <CharString name="dotlessj">
          -203 -64 callgsubr
          610 -20 hstemhm
          42 109 -109 122 hintmask 10110000
          hintmask 01110000
          29 534 -65 callgsubr
          hintmask 10101000
          -83 callsubr
          endchar
        </CharString>
        <CharString name="e">
          -48 callgsubr
          hstemhm
          22 -52 callsubr
          hintmask 11101000
          383 105 rmoveto
          -79 callgsubr
          vhcurveto
          hintmask 11110000
          -104 callgsubr
          endchar
        </CharString>
        <CharString name="eacute">
          -48 callgsubr
          54 -21 200 -20 hstemhm
          22 -52 callsubr
          hintmask 11001010
          383 105 rmoveto
          -79 callgsubr
          vhcurveto
          hintmask 11001100
          -104 callgsubr
          hintmask 00110000
          -82 229 -102 callgsubr
          endchar
        </CharString>
        <CharString name="ebreve">
          -48 callgsubr
          25 -41 callsubr
          22 125 -54 77 64 140 -136 70 -46 112 hintmask 1100100010000000
          383 105 rmoveto
          -79 callgsubr
          vhcurveto
          hintmask 1100101000000000
          -104 callgsubr
          hintmask 0011010100000000
          46 370 -105 callgsubr
        </CharString>
        <CharString name="ecaron">
          -48 callgsubr
          45 -21 194 -20 hstemhm
          22 -52 callsubr
          hintmask 11001010
          383 105 rmoveto
          -79 callgsubr
          vhcurveto
          hintmask 11001100
          -104 callgsubr
          hintmask 00110000
          61 349 -106 callgsubr
        </CharString>
        <CharString name="ecircumflex">
          -48 callgsubr
          56 -21 194 -20 hstemhm
          22 -52 callsubr
          hintmask 11001010
          383 105 rmoveto
          -79 callgsubr
          vhcurveto
          hintmask 11001100
          -104 callgsubr
          hintmask 00110000
          63 228 rmoveto
          -25 42 -53 121 0 vvcurveto
          0 -17 -2 -23 -12 -13 1 1 -14 vhcurveto
          0 -56 -99 -33 -65 vhcurveto
          34 -10 24 -6 32 -14 rrcurveto
          9 34 23 84 0 vvcurveto
          -10 27 -56 11 -49 vhcurveto
          30 8 19 10 37 10 rrcurveto
          endchar
        </CharString>
        <CharString name="edieresis">
          -48 callgsubr
          34 103 hstemhm
          22 125 -63 104 28 104 -86 140 -112 112 hintmask 11010001
          383 105 rmoveto
          -79 callgsubr
          vhcurveto
          hintmask 11010010
          -104 callgsubr
          hintmask 00101100
          -74 247 -104 callsubr
        </CharString>
        <CharString name="edotaccent">
          -48 callgsubr
          29 103 hstemhm
          22 125 1 104 -18 140 -112 112 hintmask 11010010
          383 105 rmoveto
          -79 callgsubr
          vhcurveto
          hintmask 11010100
          -104 callgsubr
          hintmask 00101000
          -10 242 rmoveto
          -100 callgsubr
        </CharString>
        <CharString name="egrave">
          -48 callgsubr
          52 -21 200 -20 hstemhm
          22 -52 callsubr
          hintmask 11001010
          383 105 rmoveto
          -79 callgsubr
          vhcurveto
          hintmask 11001100
          -104 callgsubr
          hintmask 00110000
          -128 393 -90 callsubr
        </CharString>
        <CharString name="eight">
          59 -17 88 574 88 hstem
          29 117 164 117 vstem
          228 -17 rmoveto
          23 callgsubr
          22 callsubr
          -97 -102 -68 -134 -93 55 -60 53 -30 vhcurveto
          -53 -24 -55 -49 -90 vvcurveto
          -134 102 -68 97 vhcurveto
          82 573 rmoveto
          -102 -46 -42 -36 -18 vhcurveto
          -37 17 -45 41 104 vvcurveto
          53 43 36 42 36 43 -36 -53 vhcurveto
          -164 -396 rmoveto
          99 45 39 37 15 vhcurveto
          37 -15 45 -40 -98 vvcurveto
          -53 -43 -36 -36 -39 -46 36 53 vhcurveto
          endchar
        </CharString>
        <CharString name="ellipsis">
          152 -18 129 hstem
          27 129 54 129 54 129 cntrmask 01110000
          156 46 rmoveto
          -88 callsubr
          183 hmoveto
          -88 callsubr
          183 hmoveto
          -88 callsubr
          endchar
        </CharString>
        <CharString name="emacron">
          -48 callgsubr
          31 -48 callsubr
          22 125 -59 227 -81 140 -112 112 hintmask 1100010010000000
          383 105 rmoveto
          -79 callgsubr
          vhcurveto
          hintmask 1100010100000000
          -104 callgsubr
          hintmask 0001101000000000
          53 282 -86 callsubr
          hintmask 0010001000000000
          -33 callgsubr
          hintmask 0001101000000000
          -60 callgsubr
        </CharString>
        <CharString name="emdash">
          333 273 -49 callgsubr
          689 407 rmoveto
          -9 -31 -133 -4 -140 hhcurveto
          hintmask 10000000
          -140 -146 -73 callgsubr
          hintmask 01100000
          -70 callgsubr
          28 39 0 46 hhcurveto
          hintmask 10000000
          175 270 -2 -5 90 hvcurveto
          hintmask 01100000
          -84 callgsubr
          endchar
        </CharString>
        <CharString name="endash">
          134 273 -49 callgsubr
          490 407 rmoveto
          -9 -31 -83 -4 -90 hhcurveto
          hintmask 10000000
          -90 -97 -73 callgsubr
          hintmask 01100000
          -70 callgsubr
          28 30 0 33 hhcurveto
          hintmask 10000000
          123 145 -2 -5 90 hvcurveto
          hintmask 01100000
          -84 callgsubr
          endchar
        </CharString>
        <CharString name="eng">
          39 -64 callgsubr
          540 105 hstemhm
          -1 callgsubr
          hintmask 10111000
          36 543 rmoveto
          4 -128 1 -105 -90 vvcurveto
          -90 -1 -74 -2 -66 -11 callsubr
          -2 rlineto
          -1 68 0 54 47 vvcurveto
          56 0 48 2 51 vhcurveto
          hintmask 01111000
          27 151 48 1 0 vvcurveto
          55 13 -59 -124 hvcurveto
          10 -5 -3 -496 -116 hhcurveto
          -5 -8 1 3 -8 hvcurveto
          29 22 0 26 0 vvcurveto
          37 -27 40 -48 -47 -27 -37 -44 -42 19 -73 112 224 25 405 192 152 -45 92 -97 -2 -61 4 -72 -43 vhcurveto
          3 40 rlineto
          endchar
        </CharString>
        <CharString name="eogonek">
          4 -173 67 605 75 hstemhm
          22 125 72 56 -41 149 -121 121 hintmask 11100100
          337 -76 -67 callsubr
          30 22 31 18 22 hvcurveto
          41 24 27 41 46 vvcurveto
          -23 callgsubr
          -37 34 -16 vhcurveto
          hintmask 11110000
          -14 -27 15 callsubr
          -40 -21 54 81 -8 hvcurveto
          hintmask 11101000
          145 41 78 103 94 vvcurveto
          104 -73 57 -88 -88 -103 -66 -228 -242 103 -71 92 9 8 1 1 9 vhcurveto
          -19 -28 -5 -26 -17 -67 callgsubr
          -114 539 rmoveto
          -70 -48 -62 -67 -36 vhcurveto
          hintmask 11110000
          36 vlineto
          114 14 105 53 31 17 -40 -47 vhcurveto
          endchar
        </CharString>
        <CharString name="equal">
          76 173 121 -107 -21 207 121 13 -20 hstemhm
          hintmask 10100000
          430 507 -14 callsubr
          hintmask 01010000
          -75 -81 4 9 -58 hvcurveto
          21 callgsubr
          28 28 0 28 hhcurveto
          -5 callsubr
          hintmask 10100000
          -200 vmoveto
          -4 callgsubr
          hintmask 10010000
          24 callsubr
          hintmask 10100000
          13 callgsubr
          hintmask 10010000
          -84 callgsubr
          endchar
        </CharString>
        <CharString name="eth">
          28 -28 78 447 78 222 -20 hstem
          22 116 145 117 vstem
          322 776 rmoveto
          0 -32 -15 -41 -16 vhcurveto
          -15 18 -16 17 -18 17 -160 -12 rcurveline
          4 -3 43 -25 50 -50 -16 -4 -14 -4 -15 -3 17 -34 9 -35 8 -27 32 11 24 9 22 7 12 -16 11 -18 11 -20 rrcurveto
          1 -7 -7 1 -7 8 callsubr
          146 47 191 174 hvcurveto
          2 vlineto
          36 -6 142 -85 144 vhcurveto
          14 4 16 4 18 6 rrcurveto
          -9 18 -26 75 8 vvcurveto
          -41 -502 -62 callsubr
          endchar
        </CharString>
        <CharString name="exclam">
          -181 -18 129 592 -20 hstemhm
          40 129 -104 76 hintmask 11100000
          32 703 rmoveto
          21 -176 10 -188 2 -179 rrcurveto
          76 hlineto
          8 178 16 177 20 188 rrcurveto
          -16 -657 rmoveto
          36 -12 callsubr
          vhcurveto
          hintmask 11010000
          -36 -29 -29 -36 -35 29 -29 36 35 29 29 35 hvcurveto
          endchar
        </CharString>
        <CharString name="exclamdown">
          -189 -147 -21 592 129 hstemhm
          43 129 -101 76 hintmask 11010000
          180 -168 rmoveto
          -21 176 -10 188 -2 179 rrcurveto
          -76 hlineto
          -8 -178 -16 -177 -20 -188 rrcurveto
          hintmask 11100000
          16 657 rmoveto
          -36 29 -29 35 36 29 29 36 35 -29 29 -36 -35 -29 -29 -35 vhcurveto
          endchar
        </CharString>
        <CharString name="f">
          -101 -9 -21 27 -21 457 109 58 203 -81 81 10 callgsubr
          hintmask 10101010
          370 694 rmoveto
          hintmask 01101100
          -10 callsubr
          -33 callsubr
          hintmask 10110100
          -15 callgsubr
          -3 -40 -40 -3 -39 hhcurveto
          36 vlineto
          84 4 66 64 vhcurveto
          -24 callsubr
          vhcurveto
          endchar
        </CharString>
        <CharString name="fi">
          93 -9 -21 27 -21 456 102 46 228 -78 78 10 callgsubr
          149 109 -109 134 hintmask 1010110100000000
          451 537 rmoveto
          1 vlineto
          -3 -40 -65 -1 -70 hhcurveto
          -98 38 hlineto
          67 0 91 91 26 24 -11 -12 21 vhcurveto
          hintmask 1011001010000000
          -23 -27 0 -34 -3 vvcurveto
          -34 32 -29 40 36 36 34 46 5 0 4 -1 5 vhcurveto
          61 -10 -65 73 -111 hhcurveto
          -108 -99 -65 -151 hvcurveto
          -54 vlineto
          -24 1 -22 1 -16 2 5 -116 rcurveline
          16 2 20 1 23 1 rrcurveto
          2 -89 3 -106 -95 vvcurveto
          hintmask 0111010100000000
          -64 -1 -59 -3 -47 -11 callsubr
          6 rlineto
          1 -3 232 224 -1 hvcurveto
          48 -1 50 -1 45 -2 rrcurveto
          4 -81 2 -76 -78 vvcurveto
          -68 -1 -71 -1 -80 -11 callsubr
          4 rlineto
          55 vlineto
          -18 callgsubr
          endchar
        </CharString>
        <CharString name="five">
          51 -21 81 645 -20 hstemhm
          27 179 -154 101 160 112 hintmask 11011000
          214 -21 rmoveto
          127 84 131 126 89 -40 67 -84 52 hvcurveto
          hintmask 11101000
          -54 33 -43 0 -54 5 7 112 rcurveline
          0 197 -4 36 vhcurveto
          5 115 rlineto
          0 -273 -11 -59 -16 vhcurveto
          -21 -292 rlineto
          0 115 0 54 -24 vhcurveto
          80 -35 22 -46 -71 vvcurveto
          -109 -57 -41 -37 -17 -27 12 21 -19 vhcurveto
          50 13 0 53 0 vvcurveto
          -64 callsubr
          vhcurveto
          endchar
        </CharString>
        <CharString name="fl">
          86 -9 -21 27 -21 457 109 188 78 10 callgsubr
          160 105 hintmask 10111010
          297 542 rmoveto
          -3 -40 -40 -3 -39 hhcurveto
          36 vlineto
          hintmask 10110110
          67 0 91 91 22 22 -8 -10 19 vhcurveto
          4 -113 2 -125 -123 vvcurveto
          -126 -2 -125 -4 -110 -11 callsubr
          -2 rlineto
          -2 169 -2 93 95 vvcurveto
          91 2 92 8 160 vhcurveto
          hintmask 01111010
          60 -9 -55 60 -104 hhcurveto
          -111 -103 -61 -155 hvcurveto
          -33 callsubr
          -15 callgsubr
          endchar
        </CharString>
        <CharString name="florin">
          31 -221 81 -81 203 481 109 -6 -20 54 203 -81 81 hstemhm
          -67 143 -21 177 -117 117 hintmask 1010100100000000
          228 463 rmoveto
          37 -1 37 -3 37 -3 rrcurveto
          hintmask 1001100100000000
          6 116 rlineto
          hintmask 1010010100000000
          -3 -40 -39 -3 -39 hhcurveto
          6 vlineto
          84 2 66 65 vhcurveto
          -24 callsubr
          -10 callsubr
          hintmask 1010100100000000
          -25 vlineto
          -21 1 -21 2 -20 2 5 -116 rcurveline
          hintmask 1010101010000000
          19 2 20 2 20 1 rrcurveto
          2 -120 5 -168 -163 vvcurveto
          -85 -3 -65 -64 vhcurveto
          hintmask 0110100100000000
          18 26 1 29 4 vvcurveto
          hintmask 1010101010000000
          -11 callgsubr
        </CharString>
        <CharString name="four">
          34 13 -21 174 105 426 -20 hstemhm
          250 110 -110 114 hintmask 11110000
          375 5 rmoveto
          -4 54 -3 56 -2 51 rrcurveto
          hintmask 11101000
          43 105 -47 hlineto
          -1 58 -1 57 76 vvcurveto
          64 1 90 3 81 vhcurveto
          -146 hlineto
          0 -177 -409 -33 -45 vhcurveto
          2 -77 rlineto
          239 hlineto
          -61 -2 -59 -1 -54 vhcurveto
          4 279 rmoveto
          -112 hlineto
          111 246 rlineto
          1 -53 0 -58 -59 vvcurveto
          endchar
        </CharString>
        <CharString name="fraction">
          -66 94 -21 559 -20 hstem
          233 632 rmoveto
          -36 -120 -111 -270 -84 -158 rrcurveto
          4 4 0 4 hhcurveto
          50 37 -11 0 hvcurveto
          88 234 81 191 60 124 rrcurveto
          endchar
        </CharString>
        <CharString name="g">
          -53 callgsubr
          12 callsubr
          132 108 hintmask 10111010
          -101 callsubr
          hintmask 01110110
          -46 callsubr
          endchar
        </CharString>
        <CharString name="gbreve">
          -53 callgsubr
          31 86 112 -20 12 callsubr
          -48 77 68 70 -35 108 hintmask 1011001000100000
          -101 callsubr
          hintmask 0111000100100000
          -46 callsubr
          hintmask 0000110011000000
          30 359 -105 callgsubr
        </CharString>
        <CharString name="gcircumflex">
          -53 callgsubr
          52 -21 194 -20 12 callsubr
          132 108 hintmask 1011001010000000
          -101 callsubr
          hintmask 0111000110000000
          -46 callsubr
          hintmask 0000110000000000
          55 207 rmoveto
          -25 42 -53 121 0 vvcurveto
          0 -17 -2 -23 -12 -13 1 1 -14 vhcurveto
          0 -56 -99 -33 -65 vhcurveto
          34 -10 24 -6 32 -14 rrcurveto
          9 34 23 84 0 vvcurveto
          -10 27 -56 11 -49 vhcurveto
          30 8 19 10 37 10 rrcurveto
          endchar
        </CharString>
        <CharString name="gcommaaccent">
          -53 callgsubr
          57 -45 callsubr
          12 callsubr
          12 103 17 108 hintmask 1011001001000000
          -101 callsubr
          hintmask 0111000101000000
          -46 callsubr
          hintmask 0000110010000000
          -125 237 -36 callgsubr
        </CharString>
        <CharString name="gdotaccent">
          -53 callgsubr
          33 103 12 callsubr
          3 104 25 108 hintmask 1011010010000000
          -101 callsubr
          hintmask 0111001010000000
          -46 callsubr
          hintmask 0000100100000000
          -30 229 rmoveto
          -100 callgsubr
        </CharString>
        <CharString name="germandbls">
          162 -30 73 -73 219 -178 -21 475 116 147 87 hstemhm
          5 179 -111 111 30 156 -132 105 -57 57 -57 110 37 125 hintmask 1001110001010000
          558 125 rmoveto
          83 -58 42 -42 36 vhcurveto
          -43 36 -72 49 78 79 53 73 65 vvcurveto
          hintmask 1001101000110000
          74 -41 75 -111 -138 -29 -103 -130 -4 vhcurveto
          -71 -2 rlineto
          0 3 -29 -43 vvcurveto
          -13 0 -14 -1 -15 vhcurveto
          hintmask 0011110001010000
          70 -2 rlineto
          -52 1 -52 -1 -56 vhcurveto
          -62 -2 -154 -17 -100 vhcurveto
          0 23 2 42 22 26 0 -2 30 vhcurveto
          -9 167 -5 176 0 vvcurveto
          330 17 67 32 33 20 -31 -44 vhcurveto
          -75 -48 -85 -77 vvcurveto
          -77 55 -50 32 -29 vhcurveto
          hintmask 1001110010010000
          31 -28 77 -67 -47 vvcurveto
          -46 -20 -29 -38 vhcurveto
          0 -22 0 -19 14 vhcurveto
          36 18 0 38 0 vvcurveto
          hintmask 0101110100010000
          56 -52 20 -34 -33 -37 -30 -52 -77 67 -60 97 84 93 58 89 3 vhcurveto
          endchar
        </CharString>
        <CharString name="grave">
          -222 740 -21 200 -20 hstem
          79 919 -90 callsubr
        </CharString>
        <CharString name="greater">
          -14 138 -21 492 -20 hstem
          55 117 rmoveto
          0 204 100 102 33 vhcurveto
          -2 29 -1 28 26 vvcurveto
          50 3 37 0 vhcurveto
          -83 41 -198 148 0 vvcurveto
          -51 -148 68 -21 98 -42 77 -48 rlinecurve
          -60 -39 -57 -25 -126 -40 rrcurveto
          endchar
        </CharString>
        <CharString name="guillemotleft">
          210 14 callsubr
          288 169 -74 callsubr
          311 113 -74 callsubr
          endchar
        </CharString>
        <CharString name="guillemotright">
          210 14 callsubr
          340 56 -75 callsubr
          -269 -113 -75 callsubr
          endchar
        </CharString>
        <CharString name="guilsinglleft">
          -80 14 callsubr
          288 169 -74 callsubr
          endchar
        </CharString>
        <CharString name="guilsinglright">
          -80 14 callsubr
          50 56 -75 callsubr
          endchar
        </CharString>
        <CharString name="h">
          35 6 callsubr
          115 166 -20 16 callsubr
          hintmask 11101010
          hintmask 11110010
          -71 callsubr
          hintmask 11100110
          -15 callsubr
          3 84 5 84 5 84 rrcurveto
          endchar
        </CharString>
        <CharString name="hbar">
          35 6 callsubr
          115 28 137 1 -20 hstemhm
          7 153 -117 99 -99 191 52 116 hintmask 11101001
          235 698 rmoveto
          hintmask 11011001
          -13 -5 -29 -3 -35 -1 4 54 rcurveline
          -132 2 3 -51 -10 1 -9 1 -7 2 rlinecurve
          1 -13 0 -13 -12 -18 -1 -18 -14 vvcurveto
          30 hlineto
          4 -87 2 -87 -87 vvcurveto
          -120 -4 -120 -7 -119 -11 callsubr
          -2 rlineto
          -1 41 0 42 41 vvcurveto
          65 0 66 2 66 vhcurveto
          28 154 56 1 0 vvcurveto
          hintmask 11100101
          56 2 26 callsubr
          -30 -154 hvcurveto
          114 -14 rlineto
          26 109 6 116 122 vvcurveto
          -15 callsubr
          hintmask 11100011
          1 39 2 39 2 40 81 -3 rcurveline
          19 callsubr
          endchar
        </CharString>
        <CharString name="hcircumflex">
          35 6 callsubr
          115 27 17 122 -20 21 16 16 callsubr
          hintmask 1101001010000000
          hintmask 1101010010000000
          -71 callsubr
          hintmask 1101000110000000
          -15 callsubr
          3 84 5 84 5 84 rrcurveto
          hintmask 0010100000000000
          215 -112 rmoveto
          -20 34 -43 97 0 vvcurveto
          0 -13 -1 -19 vhcurveto
          -10 -10 1 -11 hhcurveto
          0 -45 -79 -27 -52 vhcurveto
          27 -9 20 -4 25 -12 rrcurveto
          8 28 18 67 0 vvcurveto
          -8 22 -45 9 -39 vhcurveto
          24 6 15 8 30 8 rrcurveto
          endchar
        </CharString>
        <CharString name="hungarumlaut">
          -75 -19 callsubr
          51 -166 -102 callgsubr
          endchar
        </CharString>
        <CharString name="hyphen">
          73 273 -49 callgsubr
          429 407 -89 callsubr
        </CharString>
        <CharString name="i">
          -198 -5 -21 635 28 callgsubr
          hintmask 11010000
          -59 callsubr
          hintmask 11100000
          -18 callgsubr
          endchar
        </CharString>
        <CharString name="iacute">
          -196 -16 callgsubr
          83 -21 200 -20 hstemhm
          43 114 hintmask 11001000
          -94 callsubr
          hintmask 00110000
          -103 76 -102 callgsubr
          endchar
        </CharString>
        <CharString name="ibreve">
          -195 -16 callgsubr
          51 -41 callsubr
          -6 77 -28 114 -18 70 hintmask 11000100
          -94 callsubr
          hintmask 00111010
          36 214 -105 callgsubr
        </CharString>
        <CharString name="icircumflex">
          -196 -16 callgsubr
          80 -21 194 -20 hstemhm
          43 114 hintmask 11001000
          -94 callsubr
          hintmask 00110000
          51 70 rmoveto
          -25 42 -53 121 0 vvcurveto
          0 -17 -2 -23 -12 -13 1 1 -14 vhcurveto
          0 -56 -99 -33 -65 vhcurveto
          34 -10 24 -6 32 -14 rrcurveto
          9 34 23 84 0 vvcurveto
          -10 27 -56 11 -49 vhcurveto
          30 8 19 10 37 10 rrcurveto
          endchar
        </CharString>
        <CharString name="idieresis">
          -196 -16 callgsubr
          62 103 hstemhm
          -17 104 -44 114 -42 104 hintmask 11001000
          -94 callsubr
          hintmask 00110100
          -86 93 -104 callsubr
        </CharString>
        <CharString name="igrave">
          -196 -16 callgsubr
          79 -21 200 -20 hstemhm
          43 114 hintmask 11001000
          -94 callsubr
          hintmask 00110000
          -138 238 -90 callsubr
        </CharString>
        <CharString name="ij">
          -4 -64 callgsubr
          71 -21 635 152 -136 28 callgsubr
          56 152 -122 109 hintmask 0011001000000000
          -59 callsubr
          hintmask 0011010000000000
          -18 callgsubr
          hintmask 1000100100000000
          57 -3 -65 callgsubr
          hintmask 1000100010000000
          -83 callsubr
          hintmask 0100100010000000
          169 vmoveto
          -35 callgsubr
          vhcurveto
          hintmask 1000100100000000
          28 callsubr
        </CharString>
        <CharString name="imacron">
          -195 -16 callgsubr
          60 -48 callsubr
          -11 227 -173 114 hintmask 11000010
          -94 callsubr
          hintmask 00011100
          43 129 -86 callsubr
          hintmask 00100100
          -33 callgsubr
          hintmask 00011100
          -60 callgsubr
        </CharString>
        <CharString name="infinity">
          243 200 109 80 94 11 -20 hstemhm
          26 113 369 107 hintmask 11011000
          614 364 rmoveto
          68 -6 -64 51 -66 hhcurveto
          -51 -66 -39 -33 -38 hvcurveto
          hintmask 10111000
          47 -38 -67 36 -61 hhcurveto
          -79 -52 -68 -72 -87 56 -67 82 52 64 43 37 37 hvcurveto
          -39 38 63 -32 57 hhcurveto
          87 53 61 78 hvcurveto
          5 -1 6 5 vvcurveto
          hintmask 11011000
          -152 25 rmoveto
          23 23 -13 -27 -27 -28 -13 -24 -19 -36 21 18 -25 hvcurveto
          18 29 48 23 9 hhcurveto
          -284 -78 rmoveto
          -21 -18 10 26 19 21 13 16 29 27 -18 -14 18 hvcurveto
          -18 -24 -34 -18 -14 hhcurveto
          endchar
        </CharString>
        <CharString name="integral">
          74 -161 81 -81 203 618 203 -81 81 hstemhm
          -7 143 48 112 hintmask 10011100
          296 50 rmoveto
          -9 528 0 27 27 vvcurveto
          84 2 66 65 vhcurveto
          hintmask 10101100
          -24 callsubr
          -10 callsubr
          -97 9 -248 -237 vvcurveto
          -85 -3 -65 -64 vhcurveto
          hintmask 01101100
          18 26 1 29 4 vvcurveto
          -11 callgsubr
        </CharString>
        <CharString name="iogonek">
          -198 -173 67 715 152 hstemhm
          19 152 -139 56 -43 110 hintmask 11100000
          hintmask 11010000
          150 -76 rmoveto
          -14 -12 -13 -16 -19 hhcurveto
          hintmask 11001000
          -10 -8 6 11 23 12 23 14 20 hvcurveto
          hintmask 11100000
          41 1 rlineto
          55 vlineto
          hintmask 11001000
          -18 callgsubr
          -144 -2 rlineto
          13 -155 5 -130 -147 vvcurveto
          -42 0 -42 -1 -45 vhcurveto
          16 1 rlineto
          -22 -31 -6 -28 -18 -67 callgsubr
          -18 812 rmoveto
          42 -34 34 -42 vhcurveto
          hintmask 11010000
          -42 -34 -34 -42 -42 34 -34 42 28 callsubr
        </CharString>
        <CharString name="itilde">
          -195 -16 callgsubr
          50 -34 callgsubr
          43 114 hintmask 11000010
          -94 callsubr
          hintmask 00100100
          30 168 -94 callgsubr
        </CharString>
        <CharString name="j">
          -203 -64 callgsubr
          701 152 hstemhm
          12 152 -122 109 hintmask 10110000
          29 534 -65 callgsubr
          hintmask 10101000
          -83 callsubr
          hintmask 01101000
          169 vmoveto
          -35 callgsubr
          vhcurveto
          hintmask 10110000
          28 callsubr
        </CharString>
        <CharString name="jcircumflex">
          -203 -64 callgsubr
          610 -20 70 -21 194 -20 hstemhm
          42 109 -109 122 hintmask 10100100
          hintmask 01100100
          29 534 -65 callgsubr
          hintmask 10100010
          -83 callsubr
          hintmask 00011000
          56 62 rmoveto
          -25 42 -53 121 0 vvcurveto
          0 -17 -2 -23 -12 -13 1 1 -14 vhcurveto
          0 -56 -99 -33 -65 vhcurveto
          34 -10 24 -6 32 -14 rrcurveto
          9 34 23 84 0 vvcurveto
          -10 27 -56 11 -49 vhcurveto
          30 8 19 10 37 10 rrcurveto
          endchar
        </CharString>
        <CharString name="k">
          20 9 7 callsubr
          hintmask 10101000
          -44 callgsubr
          hintmask 10110000
          0 6 -77 26 -66 vhcurveto
          130 hlineto
          -47 callsubr
          rrcurveto
          hintmask 01100100
          -7 callsubr
          endchar
        </CharString>
        <CharString name="kcommaaccent">
          20 -166 -45 callsubr
          67 7 callsubr
          -6 103 hintmask 0010101000000000
          -44 callgsubr
          hintmask 0010110000000000
          0 6 -77 26 -66 vhcurveto
          130 hlineto
          -47 callsubr
          rrcurveto
          hintmask 0001100100000000
          -7 callsubr
          hintmask 1100000010000000
          97 -831 -97 callgsubr
        </CharString>
        <CharString name="kgreenlandic">
          20 9 -21 29 -21 548 -20 hstemhm
          28 121 hintmask 10110000
          36 541 rmoveto
          10 -114 4 -112 -22 -325 121 -2 rcurveline
          -2 104 -2 84 1 69 rrcurveto
          101 3 10 -109 0 vvcurveto
          0 6 -77 26 -66 vhcurveto
          130 hlineto
          hintmask 01110000
          -47 callsubr
          -132 12 rcurveline
          -23 -84 -43 -91 -63 -69 2 115 6 69 9 55 rrcurveto
          endchar
        </CharString>
        <CharString name="l">
          -210 9 -21 766 -14 callgsubr
          hintmask 11100000
          hintmask 11010000
          -85 callgsubr
          endchar
        </CharString>
        <CharString name="lacute">
          -210 9 -21 766 -20 70 -21 200 -14 callgsubr
          hintmask 11001000
          hintmask 11000100
          -85 callgsubr
          hintmask 00110000
          -82 66 -102 callgsubr
          endchar
        </CharString>
        <CharString name="lcaron">
          -41 9 -21 602 -45 callsubr
          56 -14 callgsubr
          58 103 hintmask 10011000
          hintmask 10010100
          -85 callgsubr
          hintmask 01100010
          161 -85 -82 callsubr
        </CharString>
        <CharString name="lcommaaccent">
          -210 -166 -45 callsubr
          67 -21 766 -14 callgsubr
          -119 103 hintmask 00111000
          hintmask 00110100
          -85 callgsubr
          hintmask 11000010
          -16 -841 -97 callgsubr
        </CharString>
        <CharString name="ldotaccent">
          -53 9 -21 307 129 330 -14 callgsubr
          22 129 hintmask 10110000
          hintmask 10101000
          -85 callgsubr
          hintmask 01000100
          151 -392 rmoveto
          -88 callsubr
          endchar
        </CharString>
        <CharString name="less">
          -14 138 -21 492 -20 hstem
          354 246 rmoveto
          -126 40 -57 25 -60 39 77 48 98 42 68 21 -51 148 rcurveline
          0 -198 -148 -83 -41 vhcurveto
          0 3 -37 -50 vvcurveto
          -26 -1 -28 -2 -29 vhcurveto
          102 -33 204 -100 0 vvcurveto
          endchar
        </CharString>
        <CharString name="logicalnot">
          80 142 -21 152 121 13 -20 hstemhm
          304 119 hintmask 10110000
          435 126 rmoveto
          0 -7 148 -5 133 vhcurveto
          -2 -1 1 1 rlineto
          -38 callgsubr
          hintmask 11010000
          -50 callgsubr
          hintmask 10110000
          -70 callgsubr
          hintmask 11010000
          84 hlineto
          63 63 -1 -1 60 hvcurveto
          -3 -70 -5 -80 0 vvcurveto
          4 42 24 1 37 hhcurveto
          36 hlineto
          endchar
        </CharString>
        <CharString name="lslash">
          -149 9 -21 766 -20 hstemhm
          1 163 -113 113 -113 127 -127 188 hintmask 11010000
          241 429 rmoveto
          hintmask 11001000
          0 -32 -15 -45 -18 vhcurveto
          2 100 4 104 8 151 -127 3 rcurveline
          3 -157 3 -126 1 -114 -21 -7 -20 -6 -19 -4 18 callgsubr
          23 8 19 8 18 6 rrcurveto
          hintmask 11100000
          -92 -2 -86 -3 -92 -11 callsubr
          -2 rlineto
          -1 90 0 73 65 vvcurveto
          81 vlineto
          hintmask 11000100
          78 25 rlineto
          9 callgsubr
        </CharString>
        <CharString name="m">
          200 6 -21 444 140 hstemhm
          31 111 -98 98 99 97 -97 111 102 112 hintmask 11010110
          hintmask 11101010
          352 255 rmoveto
          40 -1 35 -2 30 vhcurveto
          18 63 35 6 0 vvcurveto
          42 10 -54 14 callgsubr
          -23 -139 hvcurveto
          110 -4 rlineto
          10 76 15 124 70 vvcurveto
          213 -27 101 -84 vhcurveto
          hintmask 11100110
          -7 -79 2 -100 -35 hvcurveto
          81 -20 -34 17 -39 hhcurveto
          -6 -50 1 -75 -38 hvcurveto
          3 46 -111 2 rlineto
          3 -103 2 -68 -62 vvcurveto
          -93 -4 -77 -9 -150 -11 callsubr
          -2 rlineto
          -2 115 -1 73 70 vvcurveto
          30 0 31 1 32 vhcurveto
          17 86 34 4 0 vvcurveto
          34 16 -40 -90 -95 -4 -96 -9 -104 hvcurveto
          110 1 rlineto
          9 120 5 12 118 vvcurveto
          endchar
        </CharString>
        <CharString name="macron">
          -168 750 -48 callsubr
          2 227 hintmask 01110000
          229 839 -86 callsubr
          hintmask 10010000
          -33 callgsubr
          hintmask 01110000
          -60 callgsubr
        </CharString>
        <CharString name="minus">
          76 273 -49 callgsubr
          430 407 -89 callsubr
        </CharString>
        <CharString name="mu">
          41 -236 -20 36 -21 235 108 -93 -21 561 -20 hstemhm
          41 114 145 102 hintmask 01101110
          412 -7 rmoveto
          -5 155 -5 78 94 vvcurveto
          61 2 67 6 99 vhcurveto
          -111 2 rlineto
          1 -69 0 -54 -47 vvcurveto
          hintmask 10011110
          -44 0 -37 -1 -38 vhcurveto
          -27 -158 -49 -68 callgsubr
          -55 -13 59 124 0 0 93 31 154 hvcurveto
          -124 14 rlineto
          -12 -71 -7 -163 0 vvcurveto
          -5 -59 3 -59 -77 vvcurveto
          -157 -2 -201 0 vhcurveto
          4 42 19 1 34 hhcurveto
          35 hlineto
          0 -4 107 -4 119 vhcurveto
          -1 7 7 -1 7 hhcurveto
          0 64 2 44 77 vhcurveto
          -2 -22 -2 -24 -1 -26 rrcurveto
          endchar
        </CharString>
        <CharString name="multiply">
          30 160 -21 381 -20 hstem
          404 239 rmoveto
          -24 13 -40 34 -44 43 34 32 34 31 31 28 -20 16 -76 76 -4 8 -13 -23 -32 -38 -40 -42 -31 34 -28 33 -21 29 -31 -40 -36 -30 -28 -25 29 -28 29 -29 29 -30 rrcurveto
          -35 -33 -36 -30 -30 -22 39 -31 31 -36 25 -28 29 31 31 31 31 31 35 -37 33 -36 29 -32 16 20 76 76 8 4 rrcurveto
          endchar
        </CharString>
        <CharString name="n">
          39 6 callsubr
          105 hstem
          -1 callgsubr
          vstem
          36 543 -99 callgsubr
          endchar
        </CharString>
        <CharString name="nacute">
          39 6 callsubr
          105 44 -21 200 -20 hstemhm
          -1 callgsubr
          hintmask 11001100
          36 543 -99 callgsubr
          hintmask 00110000
          28 85 -102 callgsubr
          endchar
        </CharString>
        <CharString name="napostrophe">
          139 6 callsubr
          105 21 -45 callsubr
          hstemhm
          32 103 6 107 145 115 hintmask 00111000
          135 666 rmoveto
          29 -23 23 -28 -29 -23 -23 -29 -25 18 -21 24 -4 vhcurveto
          -7 -21 -10 -11 0 vvcurveto
          32 -15 rlineto
          30 30 16 25 42 vvcurveto
          hintmask 11000110
          1 -123 -99 callgsubr
          endchar
        </CharString>
        <CharString name="nbspace">
          -187 endchar
        </CharString>
        <CharString name="ncaron">
          39 6 callsubr
          105 50 -21 194 -20 hstemhm
          -1 callgsubr
          hintmask 11001100
          36 543 -99 callgsubr
          hintmask 00110000
          178 220 -106 callgsubr
        </CharString>
        <CharString name="ncommaaccent">
          39 -166 -45 callsubr
          67 -21 476 105 hstemhm
          41 107 18 103 24 115 hintmask 00111010
          36 543 -99 callgsubr
          hintmask 11000100
          106 -631 -97 callgsubr
        </CharString>
        <CharString name="nine">
          80 -32 77 -77 229 59 96 286 80 hstemhm
          25 114 -101 146 142 123 hintmask 10111010
          25 494 rmoveto
          hintmask 01110110
          -157 85 -81 87 46 47 23 46 36 vhcurveto
          -195 -3 -58 -85 -50 hhcurveto
          0 -33 0 -19 23 vhcurveto
          21 22 0 35 0 vvcurveto
          55 -35 17 -36 -36 -39 -29 -60 -60 46 -80 122 122 121 104 259 259 -89 128 -141 -126 -68 -81 -143 vhcurveto
          hintmask 10111010
          191 144 rmoveto
          52 42 -68 -142 12 hvcurveto
          -53 -34 -36 -23 -30 hhcurveto
          -48 -35 57 85 91 29 53 48 hvcurveto
          endchar
        </CharString>
        <CharString name="notequal">
          62 81 213 -203 -21 102 122 77 123 90 -20 hstemhm
          hintmask 10011000
          423 307 rmoveto
          -28 -8 -57 -4 -64 -1 32 77 rcurveline
          41 -1 39 -2 37 -2 rrcurveto
          hintmask 01111000
          -84 callgsubr
          -14 -4 -21 -4 -26 -2 12 27 12 25 12 25 -127 10 rcurveline
          -9 -30 -9 -30 -10 -30 rrcurveto
          -73 -79 4 9 -56 hvcurveto
          -24 callgsubr
          80 hlineto
          -10 -25 -10 -26 -12 -27 -49 2 -46 4 -37 6 -42 callsubr
          73 hlineto
          -15 -30 -16 -30 -17 -32 rrcurveto
          12 hlineto
          54 63 -11 0 hvcurveto
          38 102 69 -1 67 -2 60 -3 rlinecurve
          -84 callgsubr
          endchar
        </CharString>
        <CharString name="ntilde">
          39 6 callsubr
          105 43 -34 callgsubr
          -1 callgsubr
          hintmask 11000011
          36 543 -99 callgsubr
          hintmask 00100100
          161 209 -94 callgsubr
        </CharString>
        <CharString name="numbersign">
          67 126 -21 81 107 60 97 140 -20 hstemhm
          33 184 -107 107 52 95 -95 162 hintmask 11110110
          270 583 rmoveto
          -1 0 -19 -31 hvcurveto
          -74 vlineto
          -53 -2 2 117 -108 2 1 -124 -78 -3 rlineto
          -97 vlineto
          79 3 1 -62 rlineto
          -1 -45 -33 0 -1 hhcurveto
          -2 -107 82 2 1 -75 96 5 1 72 rlineto
          hintmask 11111001
          59 1 rlineto
          -50 1 -35 0 vhcurveto
          91 5 3 82 64 2 2 107 rlineto
          -1 -25 0 -38 -1 vhcurveto
          2 66 60 2 rlineto
          99 vlineto
          -56 -3 4 127 rlineto
          0 -107 -7 -2 vhcurveto
          -1 -222 rmoveto
          -22 1 -21 -21 vvcurveto
          -57 -2 1 64 rlineto
          endchar
        </CharString>
        <CharString name="o">
          -39 callgsubr
          hstem
          22 116 145 118 vstem
          -102 callsubr
          endchar
        </CharString>
        <CharString name="oacute">
          -39 callgsubr
          55 -21 200 -30 callgsubr
          hintmask 11001100
          -102 callsubr
          hintmask 00110000
          -79 305 -102 callgsubr
          endchar
        </CharString>
        <CharString name="obreve">
          -39 callgsubr
          26 86 112 -7 callgsubr
          -16 77 68 70 -54 118 hintmask 11001001
          -102 callsubr
          hintmask 00110110
          54 446 -105 callgsubr
        </CharString>
        <CharString name="ocircumflex">
          -39 callgsubr
          50 -21 194 -30 callgsubr
          hintmask 11001100
          -102 callsubr
          hintmask 00110000
          51 297 rmoveto
          -25 42 -53 121 0 vvcurveto
          0 -17 -2 -23 -12 -13 1 1 -14 vhcurveto
          0 -56 -99 -33 -65 vhcurveto
          34 -10 24 -6 32 -14 rrcurveto
          9 34 23 84 0 vvcurveto
          -10 27 -56 11 -49 vhcurveto
          30 8 19 10 37 10 rrcurveto
          endchar
        </CharString>
        <CharString name="odieresis">
          -39 callgsubr
          25 103 0 callgsubr
          -45 104 28 104 -46 118 hintmask 11010010
          -102 callsubr
          hintmask 00101100
          -86 313 -104 callsubr
        </CharString>
        <CharString name="oe">
          267 -28 78 -78 224 -208 -21 532 75 1 -7 callgsubr
          145 127 87 140 -112 112 hintmask 1001011010000000
          646 105 rmoveto
          hintmask 0101011100000000
          -23 callgsubr
          -37 34 -16 vhcurveto
          -14 -27 15 callsubr
          -40 -21 54 81 -8 hvcurveto
          145 41 78 103 94 vvcurveto
          104 -73 57 -88 -44 -48 -17 -45 -37 vhcurveto
          40 -30 -43 23 -57 8 callsubr
          56 44 27 46 31 hvcurveto
          -57 38 54 -21 50 hhcurveto
          91 75 61 77 hvcurveto
          -365 169 -62 callsubr
          242 108 rmoveto
          hintmask 1000111100000000
          17 callsubr
          31 17 -40 -47 vhcurveto
          hintmask 0011011100000000
          -10 -1 -10 -1 -10 vhcurveto
          endchar
        </CharString>
        <CharString name="ogonek">
          -240 -173 67 134 -20 hstem
          0 56 vstem
          118 -76 -67 callsubr
          43 46 46 13 15 hvcurveto
          -34 13 rlineto
          -67 -52 -14 -50 -28 -37 callsubr
        </CharString>
        <CharString name="ograve">
          -39 callgsubr
          50 -21 200 -30 callgsubr
          hintmask 11001100
          -102 callsubr
          hintmask 00110000
          -143 466 -90 callsubr
        </CharString>
        <CharString name="ohungarumlaut">
          -39 callgsubr
          45 -21 200 -30 callgsubr
          hintmask 11001100
          -102 callsubr
          hintmask 00110000
          -165 295 -77 callgsubr
        </CharString>
        <CharString name="omacron">
          -39 callgsubr
          32 -48 callsubr
          22 116 -30 227 -52 118 hintmask 11000101
          -102 callsubr
          hintmask 00011010
          52 358 -86 callsubr
          hintmask 00100010
          -33 callgsubr
          hintmask 00011010
          -60 callgsubr
        </CharString>
        <CharString name="one">
          -113 13 -21 705 -20 hstemhm
          116 -53 callsubr
          hintmask 11010000
          hintmask 11100000
          245 5 rmoveto
          -13 178 -1 194 0 0 -1 34 51 vvcurveto
          64 1 90 3 81 vhcurveto
          -123 -6 rlineto
          0 -82 -113 -33 -45 vhcurveto
          85 -72 38 67 rlineto
          hintmask 11010000
          2 -134 rlineto
          0 0 -226 -5 -176 vhcurveto
          129 13 rlineto
          endchar
        </CharString>
        <CharString name="onehalf">
          249 19 53 -35 -21 250 123 272 -20 hstemhm
          118 71 353 76 hintmask 10111100
          609 85 rmoveto
          -1 -68 -10 -88 -2 vhcurveto
          8 12 14 18 30 24 rrcurveto
          -71 callgsubr
          -247 547 -80 callgsubr
          -260 -307 rmoveto
          -8 79 -2 80 93 vvcurveto
          hintmask 01111100
          29 1 34 1 31 vhcurveto
          hintmask 10111100
          -99 -3 rlineto
          0 -52 -57 -22 -22 vhcurveto
          58 -50 42 50 rlineto
          -92 -1 -11 -179 -1 hhcurveto
          endchar
        </CharString>
        <CharString name="onequarter">
          194 31 137 -119 -21 87 53 493 -20 hstemhm
          118 71 266 77 hintmask 10011100
          541 35 -73 callsubr
          -260 -307 -25 callsubr
          rlineto
          hintmask 01111100
          -92 -1 -11 -179 -1 hhcurveto
          350 -140 25 callgsubr
        </CharString>
        <CharString name="onesuperior">
          -172 329 -21 353 -20 hstem
          106 71 vstem
          187 315 -25 callsubr
          -1 -88 -8 -147 -4 -36 rlinecurve
          94 7 rlineto
          endchar
        </CharString>
        <CharString name="ordfeminine">
          -103 249 68 -49 -21 114 56 164 136 hstemhm
          23 71 -71 96 68 75 hintmask 10111010
          271 369 rmoveto
          -7 31 -2 49 49 33 1 32 27 vvcurveto
          66 -35 61 -86 vhcurveto
          hintmask 01110110
          -85 -34 -46 -33 -33 21 -24 28 27 20 15 26 0 -1 20 -22 12 hvcurveto
          8 10 13 8 19 2 rrcurveto
          31 17 -11 -58 3 hvcurveto
          -9 -17 -15 -15 -19 -13 rrcurveto
          -33 -23 -90 -16 -79 vvcurveto
          -64 44 -17 35 34 30 14 27 22 vhcurveto
          1 -13 2 -13 3 -11 rrcurveto
          79 -47 -25 callgsubr
          -84 289 rmoveto
          -1 -21 -2 -22 -21 vvcurveto
          -23 -10 -20 -32 -31 hhcurveto
          -18 -11 14 17 27 39 22 28 18 hvcurveto
          9 5 9 8 8 8 rrcurveto
          endchar
        </CharString>
        <CharString name="ordmasculine">
          -95 249 68 -49 -21 115 41 280 41 hstemhm
          16 80 109 80 hintmask 10111100
          285 546 rmoveto
          105 -47 73 -87 -84 -51 -73 -105 -105 54 -79 81 85 49 79 105 vhcurveto
          -80 hmoveto
          -82 -9 -61 -45 -43 -12 61 82 83 11 54 44 vhcurveto
          hintmask 01111100
          43 11 -54 -83 hvcurveto
          71 -228 -25 callgsubr
          endchar
        </CharString>
        <CharString name="oslash">
          27 callgsubr
          hstemhm
          22 116 143 119 hintmask 11101100
          20 callsubr
          hintmask 11011100
          -81 callgsubr
          endchar
        </CharString>
        <CharString name="oslashacute">
          27 callgsubr
          40 -21 200 -7 callgsubr
          143 119 hintmask 11100011
          20 callsubr
          hintmask 11010011
          -81 callgsubr
          hintmask 00001100
          -85 301 -102 callgsubr
          endchar
        </CharString>
        <CharString name="otilde">
          -39 callgsubr
          27 86 -39 39 -39 81 10 -30 callgsubr
          hintmask 11000011
          -102 callsubr
          hintmask 00100100
          30 402 -94 callgsubr
        </CharString>
        <CharString name="p">
          35 9 callsubr
          61 -61 95 hstemhm
          43 101 141 123 hintmask 11011100
          151 -198 rmoveto
          -5 81 -3 78 -1 77 rrcurveto
          47 -58 54 -1 0 vvcurveto
          82 83 77 228 199 -55 82 -98 -40 -39 -33 -54 -28 hvcurveto
          3 54 -111 -1 rlineto
          2 -64 1 -62 -61 vvcurveto
          -181 -8 -171 -15 -188 vhcurveto
          121 341 rmoveto
          68 1 67 2 69 vhcurveto
          hintmask 11101100
          28 9 35 93 39 23 callsubr
          -28 -22 36 24 -14 hvcurveto
          endchar
        </CharString>
        <CharString name="paragraph">
          249 -14 -21 39 -21 237 85 327 83 hstemhm
          21 126 143 113 -113 122 50 126 -112 112 -112 120 hintmask 0111110010000000
          604 -31 rmoveto
          -11 146 -5 145 146 vvcurveto
          101 3 102 5 101 vhcurveto
          -1 -13 -16 0 -17 -65 -94 6 -127 hhcurveto
          hintmask 0111110001000000
          -146 -97 -85 -161 -174 109 -75 86 hvcurveto
          0 39 0 39 9 vhcurveto
          -2 -82 -4 -82 -3 -82 rrcurveto
          134 hlineto
          -10 132 -6 132 132 vvcurveto
          88 2 88 7 89 vhcurveto
          57 hlineto
          4 -90 3 -89 -89 vvcurveto
          -136 -5 -138 -9 -137 vhcurveto
          -166 430 rmoveto
          hintmask 1011101010000000
          -29 0 -29 -1 -28 vhcurveto
          -3 -12 -11 -1 -9 hhcurveto
          -82 -34 91 84 hvcurveto
          hintmask 1011110100000000
          54 15 50 28 20 vhcurveto
          0 39 28 50 3 4 0 -1 4 vhcurveto
          4 -79 2 -78 -79 vvcurveto
          endchar
        </CharString>
        <CharString name="parenleft">
          -107 -89 -21 903 -20 hstem
          21 121 vstem
          216 793 rmoveto
          -121 -101 -74 -163 -163 vvcurveto
          -202 54 -122 130 -152 vhcurveto
          74 82 rlineto
          -95 95 -42 156 143 vvcurveto
          116 32 150 117 100 vhcurveto
          endchar
        </CharString>
        <CharString name="parenright">
          -107 -89 -21 903 -20 hstem
          148 121 vstem
          -1 732 rmoveto
          117 -100 32 -150 -116 vvcurveto
          -143 -42 -156 -95 -95 vhcurveto
          74 -82 rlineto
          130 152 54 122 202 vvcurveto
          163 -74 163 -121 101 vhcurveto
          endchar
        </CharString>
        <CharString name="partialdiff">
          29 -28 78 447 78 222 -20 hstem
          23 116 145 117 vstem
          208 -28 rmoveto
          175 6 18 224 137 vvcurveto
          48 -10 232 -190 178 vhcurveto
          -160 -12 7 -4 115 -69 76 -139 rlinecurve
          1 -7 -7 1 -7 8 callsubr
          hvcurveto
          74 302 -62 callsubr
          endchar
        </CharString>
        <CharString name="percent">
          265 -6 callgsubr
          hintmask 10111111
          -43 callsubr
          vhcurveto
          hintmask 11011111
          -30 callsubr
          -247 413 -80 callgsubr
          -285 -135 rmoveto
          -103 -18 -28 -29 -31 -16 32 99 vhcurveto
          hintmask 10111111
          91 18 39 29 31 16 -29 -101 vhcurveto
          346 -268 rmoveto
          hintmask 11011111
          -36 callsubr
          endchar
        </CharString>
        <CharString name="period">
          -214 -18 129 hstem
          27 19 callgsubr
          156 46 rmoveto
          -88 callsubr
          endchar
        </CharString>
        <CharString name="periodcentered">
          -204 295 129 hstem
          32 19 callgsubr
          161 359 rmoveto
          -88 callsubr
          endchar
        </CharString>
        <CharString name="perthousand">
          565 -6 callgsubr
          28 89 94 89 hintmask 1011111111000000
          -43 callsubr
          -103 48 -79 88 86 50 79 103 vhcurveto
          300 hmoveto
          -20 callgsubr
          vhcurveto
          hintmask 1101111111000000
          -30 callsubr
          -547 413 -80 callgsubr
          -285 -135 rmoveto
          -103 -18 -28 -29 -31 -16 32 99 vhcurveto
          hintmask 1011111111000000
          91 18 39 29 31 16 -29 -101 vhcurveto
          346 -268 rmoveto
          -36 callsubr
          300 hmoveto
          hintmask 1101111111000000
          -36 callsubr
          endchar
        </CharString>
        <CharString name="pi">
          112 -5 -21 473 118 5 -20 hstemhm
          7 208 -114 114 89 114 hintmask 10110100
          hintmask 11001100
          500 570 rmoveto
          -3 -51 -112 -2 -107 hhcurveto
          -90 -88 1 3 -43 hvcurveto
          -4 -126 21 1 32 2 37 1 rlinecurve
          -16 callsubr
          71 2 71 5 73 vhcurveto
          25 26 -1 25 hhcurveto
          -16 callsubr
          hintmask 10110100
          69 2 70 4 70 vhcurveto
          32 -2 27 -2 19 -3 rrcurveto
          endchar
        </CharString>
        <CharString name="plus">
          44 152 -21 140 123 125 -20 hstem
          158 121 vstem
          292 -66 callgsubr
          -42 callgsubr
          endchar
        </CharString>
        <CharString name="plusminus">
          63 -39 121 -107 -21 317 123 125 -20 hstemhm
          168 121 hintmask 10111000
          302 -66 callgsubr
          hintmask 01111000
          -42 callgsubr
          122 -36 rmoveto
          -4 callgsubr
          -28 -2 -27 -1 -22 vhcurveto
          84 hlineto
          -5 callsubr
          endchar
        </CharString>
        <CharString name="product">
          117 1 -21 33 -21 606 97 8 -20 hstemhm
          103 26 callgsubr
          51 26 callgsubr
          hintmask 0110100001000000
          hintmask 1001100010000000
          412 -8 rmoveto
          hintmask 1010010100000000
          -29 callgsubr
          hintmask 1010100100000000
          61 0 61 2 62 vhcurveto
          90 2 rlineto
          26 vlineto
          25 1 20 3 33 vhcurveto
          hintmask 0110100100000000
          -6 -109 -171 -2 -128 hhcurveto
          hintmask 0110001100000000
          -67 hlineto
          hintmask 1010100010000000
          5 -44 2 -25 1 -45 rrcurveto
          hintmask 1010100100000000
          24 2 29 2 30 1 rrcurveto
          4 -73 2 -72 -76 vvcurveto
          -118 -5 -124 -8 -143 vhcurveto
          -35 callsubr
          hintmask 0110100100000000
          -29 callgsubr
          59 0 59 2 60 vhcurveto
          70 3 rlineto
          4 -75 2 -76 -78 vvcurveto
          -118 -5 -124 -8 -143 vhcurveto
          hintmask 0110100001000000
          -35 callsubr
          endchar
        </CharString>
        <CharString name="q">
          32 9 callsubr
          58 -58 95 hstemhm
          25 123 134 106 -93 93 hintmask 11011010
          288 532 rmoveto
          3 -69 rlineto
          63 -28 -42 39 -43 hhcurveto
          -99 -54 -82 -199 -226 82 -79 81 2 54 0 59 47 hvcurveto
          -2 -77 -4 -78 -3 -81 115 1 rcurveline
          -4 155 -5 137 144 vvcurveto
          91 2 93 5 102 vhcurveto
          -100 -261 rmoveto
          -42 0 -42 -1 -41 vhcurveto
          -21 -11 -24 -42 -31 hhcurveto
          hintmask 11101100
          -39 -41 61 153 125 26 55 32 42 36 -103 -40 11 hvcurveto
          endchar
        </CharString>
        <CharString name="question">
          53 -22 139 350 249 hstemhm
          18 173 -53 139 -116 30 105 131 hintmask 11010100
          427 518 rmoveto
          152 -104 46 -101 -106 -98 -55 -104 vhcurveto
          hintmask 11100100
          -55 42 -35 43 50 38 28 58 0 -1 38 -32 31 vhcurveto
          26 17 16 -68 callgsubr
          37 59 -35 -61 -144 -123 -34 -12 -205 hvcurveto
          81 2 rlineto
          38 170 147 34 152 vvcurveto
          -150 -470 rmoveto
          38 -32 31 -38 vhcurveto
          hintmask 11001100
          -38 -31 -31 -38 -38 31 -32 38 38 32 32 38 hvcurveto
          endchar
        </CharString>
        <CharString name="questiondown">
          50 -172 77 -77 249 350 139 hstemhm
          20 131 19 139 -53 30 -30 173 hintmask 01110010
          20 26 rmoveto
          -152 104 -46 101 106 98 55 103 56 -42 35 -43 -50 -38 -28 -58 0 0 -38 33 -31 vhcurveto
          hintmask 10110100
          -26 -16 -16 -1 0 vvcurveto
          -37 -59 35 61 144 123 34 12 205 hvcurveto
          -81 -2 rlineto
          -38 -170 -147 -34 -152 vvcurveto
          hintmask 10111000
          150 470 rmoveto
          -38 32 -31 38 38 31 31 38 38 -31 32 -38 -38 -32 -32 -38 vhcurveto
          endchar
        </CharString>
        <CharString name="quotedbl">
          -64 492 -21 265 -20 hstem
          309 736 rmoveto
          -1 -31 -7 -1 -30 hhcurveto
          -24 -10 0 2 -23 hvcurveto
          16 -107 8 -158 0 vvcurveto
          74 hlineto
          0 10 148 17 117 vhcurveto
          -159 hmoveto
          -32 callgsubr
        </CharString>
        <CharString name="quotedblbase">
          -58 -55 15 callgsubr
          27 129 26 19 callgsubr
          156 46 rmoveto
          -80 callsubr
          155 hmoveto
          -80 callsubr
          endchar
        </CharString>
        <CharString name="quotedblleft">
          -71 572 15 callgsubr
          22 129 26 19 callgsubr
          177 616 rmoveto
          -36 -58 callsubr
          -55 rlinecurve
          -155 hmoveto
          -36 -58 callsubr
          -55 rlinecurve
          endchar
        </CharString>
        <CharString name="quotedblright">
          -74 572 15 callgsubr
          18 129 26 19 callgsubr
          147 668 rmoveto
          41 -12 callsubr
          -36 -29 -29 -36 -31 23 -26 30 -6 vhcurveto
          -9 -27 -13 -13 -58 callgsubr
          50 rlinecurve
          155 5 rmoveto
          -51 callgsubr
          -6 vhcurveto
          -9 -27 -13 -13 -45 callgsubr
          endchar
        </CharString>
        <CharString name="quoteleft">
          -225 571 15 callgsubr
          23 19 callgsubr
          23 620 rmoveto
          -41 -58 callsubr
          -50 rlinecurve
          endchar
        </CharString>
        <CharString name="quoteright">
          -228 571 15 callgsubr
          19 19 callgsubr
          148 667 rmoveto
          41 -12 callsubr
          -36 -29 -29 -36 -31 23 -26 30 -6 vhcurveto
          -9 -27 -13 -13 -58 callgsubr
          50 rlinecurve
          endchar
        </CharString>
        <CharString name="quotesinglbase">
          -213 -55 15 callgsubr
          27 19 callgsubr
          156 46 rmoveto
          -80 callsubr
          endchar
        </CharString>
        <CharString name="quotesingle">
          -222 492 -21 265 -20 hstem
          150 736 rmoveto
          -32 callgsubr
        </CharString>
        <CharString name="r">
          0 -9 1 callgsubr
          hstemhm
          44 99 -99 115 70 164 hintmask 11001100
          -83 callgsubr
          hintmask 10110100
          -66 callsubr
          hintmask 11001100
          -41 callgsubr
          endchar
        </CharString>
        <CharString name="racute">
          0 -9 1 callgsubr
          46 -21 200 -78 callsubr
          9 653 -102 callgsubr
          endchar
        </CharString>
        <CharString name="radical">
          101 14 -21 719 -20 hstem
          -1 297 rmoveto
          104 -295 rlineto
          0 3 1 5 1 vhcurveto
          4 3 callsubr
          -137 10 rcurveline
          -36 -140 -80 -236 -87 -193 rrcurveto
          -18 80 -17 84 0 vvcurveto
          endchar
        </CharString>
        <CharString name="rcaron">
          0 -9 1 callgsubr
          51 -21 194 -78 callsubr
          162 787 -106 callgsubr
        </CharString>
        <CharString name="rcommaaccent">
          0 -192 -45 callsubr
          75 1 callgsubr
          hstemhm
          42 103 -101 99 -99 115 70 164 hintmask 0011000110000000
          -83 callgsubr
          hintmask 0010101010000000
          -66 callsubr
          hintmask 0011000110000000
          -41 callgsubr
          hintmask 1100010000000000
          -14 -96 -97 callgsubr
        </CharString>
        <CharString name="registered">
          -74 406 24 24 184 -81 -20 127 20 hstemhm
          27 33 -33 107 -107 187 45 37 hintmask 11011001
          27 545 rmoveto
          -99 60 -40 74 75 60 41 98 98 -60 41 -75 -74 -60 -38 -101 vhcurveto
          33 2 rmoveto
          85 45 32 55 55 44 -34 -83 -82 -44 -35 -55 -55 -45 34 83 vhcurveto
          161 -93 rmoveto
          -31 24 35 57 -46 13 rrcurveto
          hintmask 11010011
          29 10 6 30 0 vvcurveto
          37 -33 13 -28 1 -13 5 -9 -44 vhcurveto
          2 -18 1 -66 0 vvcurveto
          -1 5 2 -70 -6 -28 rrcurveto
          hintmask 11010101
          39 1 rlineto
          78 5 vlineto
          29 5 -31 -18 hvcurveto
          -5 vlineto
          0 0 -16 8 -11 vhcurveto
          -2 132 rmoveto
          hintmask 10111001
          0 -5 -30 -32 -3 -3 0 1 -4 vhcurveto
          56 vlineto
          1 5 4 0 4 hhcurveto
          30 4 -28 7 callgsubr
        </CharString>
        <CharString name="ring">
          -209 718 58 69 59 hstem
          0 58 71 59 vstem
          129 810 -89 callgsubr
        </CharString>
        <CharString name="s">
          -23 callsubr
          hstemhm
          11 158 -132 110 81 126 -126 143 hintmask 10101100
          371 440 rmoveto
          hintmask 11010100
          82 -48 72 -109 -108 -69 -78 -84 -84 39 -54 71 -62 vhcurveto
          71 -62 10 -22 -42 vvcurveto
          hintmask 10101100
          -41 -33 -20 -17 vhcurveto
          0 -19 0 -18 13 vhcurveto
          28 21 0 29 0 vvcurveto
          51 -33 30 -46 -56 -23 -38 -48 -45 52 -86 127 vhcurveto
          hintmask 11010010
          128 36 106 62 62 -38 53 -81 63 hvcurveto
          -81 63 -7 25 48 vvcurveto
          38 26 35 40 vhcurveto
          0 25 -1 23 -34 vhcurveto
          -35 -21 0 -41 0 vvcurveto
          -57 47 -15 24 24 50 22 60 vhcurveto
          endchar
        </CharString>
        <CharString name="sacute">
          -23 callsubr
          45 -21 200 -95 callsubr
          -184 212 -102 callgsubr
          endchar
        </CharString>
        <CharString name="scaron">
          -23 callsubr
          49 -21 194 -95 callsubr
          -57 345 -106 callgsubr
        </CharString>
        <CharString name="scedilla">
          -11 -175 -21 554 236 -67 67 hstemhm
          11 158 -132 110 48 63 -30 126 -126 143 hintmask 11010100
          258 -21 callsubr
          8 32 rlineto
          118 7 34 101 60 vvcurveto
          62 -38 53 -81 63 vhcurveto
          -81 63 -7 25 48 vvcurveto
          38 26 35 40 vhcurveto
          0 25 -1 23 -34 vhcurveto
          -35 -21 0 -41 0 vvcurveto
          -57 47 -15 24 24 50 22 60 vhcurveto
          hintmask 10101010
          82 -48 72 -109 -108 -69 -78 -84 -84 39 -54 71 -62 vhcurveto
          71 -62 10 -22 -42 vvcurveto
          -41 -33 -20 -17 vhcurveto
          0 -19 0 -18 13 vhcurveto
          28 21 0 29 0 vvcurveto
          51 -33 30 -46 vhcurveto
          hintmask 11001001
          -56 -23 -38 -48 -42 44 -76 107 -11 hvcurveto
          -28 -75 -61 callgsubr
          hvcurveto
          hintmask 11010100
          -68 callsubr
        </CharString>
        <CharString name="scircumflex">
          -23 callsubr
          45 -21 194 -95 callsubr
          -55 209 rmoveto
          -25 42 -53 121 0 vvcurveto
          0 -17 -2 -23 -12 -13 1 1 -14 vhcurveto
          0 -56 -99 -33 -65 vhcurveto
          34 -10 24 -6 32 -14 rrcurveto
          9 34 23 84 0 vvcurveto
          -10 27 -56 11 -49 vhcurveto
          30 8 19 10 37 10 rrcurveto
          endchar
        </CharString>
        <CharString name="section">
          59 -151 81 685 238 -88 88 hstemhm
          32 117 -117 177 107 112 hintmask 11010100
          hintmask 11001100
          32 651 rmoveto
          -51 16 -40 24 -32 vhcurveto
          -25 -32 -15 -43 -52 vvcurveto
          -135 120 -62 51 -29 vhcurveto
          51 -29 62 -43 -82 vvcurveto
          -70 -60 -21 -34 -17 -28 12 22 -18 vhcurveto
          50 13 0 51 1 vvcurveto
          hintmask 10110100
          -64 callsubr
          96 115 47 167 44 -11 38 -25 35 vhcurveto
          22 33 14 43 57 vvcurveto
          89 -45 63 -106 67 vhcurveto
          -90 57 -38 35 62 vvcurveto
          53 43 26 36 vhcurveto
          0 23 0 20 -19 vhcurveto
          -20 -26 0 -36 0 vvcurveto
          -45 40 -24 32 25 66 9 87 86 -85 56 -98 -97 -102 -68 -134 vhcurveto
          284 -380 rmoveto
          -6 -1 -5 -4 vvcurveto
          -38 26 rlineto
          hintmask 11010100
          -90 57 -38 35 62 vvcurveto
          7 0 6 2 6 vhcurveto
          19 -13 19 -10 14 -7 rrcurveto
          51 -29 62 -43 -82 vvcurveto
          endchar
        </CharString>
        <CharString name="semicolon">
          -185 -55 -21 441 129 hstem
          41 19 callgsubr
          170 46 rmoveto
          -80 callsubr
          383 vmoveto
          -88 callsubr
          endchar
        </CharString>
        <CharString name="seven">
          -52 16 -21 584 122 hstem
          14 576 rmoveto
          211 7 -68 -173 -75 -251 -21 -159 rlinecurve
          124 -5 15 140 74 312 60 143 rlinecurve
          0 -4 105 5 vvcurveto
          1 -13 0 -20 -81 -202 -6 0 vhcurveto
          endchar
        </CharString>
        <CharString name="six">
          80 -32 80 286 95 60 229 -77 77 hstemhm
          28 123 142 146 -101 114 hintmask 11011010
          452 192 rmoveto
          hintmask 11101100
          156 -85 81 -88 -46 -47 -23 -46 -35 vhcurveto
          195 2 59 86 50 hhcurveto
          0 33 -1 19 -22 vhcurveto
          -21 -23 0 -34 0 vvcurveto
          -55 35 -17 36 36 39 29 60 60 -46 80 -122 -122 -121 -104 -259 -259 89 -128 141 126 68 81 143 vhcurveto
          hintmask 11101010
          -191 -144 rmoveto
          -52 -42 67 142 -13 hvcurveto
          54 35 35 23 31 hhcurveto
          47 36 -57 -85 -91 -29 -53 -48 hvcurveto
          endchar
        </CharString>
        <CharString name="slash">
          40 14 -21 719 -20 hstem
          286 712 rmoveto
          -45 -176 -116 -330 -110 -202 rrcurveto
          12 3 callsubr
          rrcurveto
          endchar
        </CharString>
        <CharString name="space">
          -187 endchar
        </CharString>
        <CharString name="sterling">
          -22 -19 75 116 77 124 196 -60 60 hstemhm
          58 88 81 125 hintmask 11011100
          289 257 rmoveto
          -6 -20 -43 -2 -47 hhcurveto
          -12 61 -21 61 50 vvcurveto
          51 24 37 42 vhcurveto
          0 26 -1 17 -14 vhcurveto
          -17 -15 -11 -24 -23 vvcurveto
          -33 27 -26 29 30 39 13 68 vhcurveto
          64 -2 -55 51 -86 hhcurveto
          -98 -53 -61 -85 -57 16 -58 11 -57 hvcurveto
          -23 1 -22 2 -18 10 callsubr
          -16 -1 -15 -1 -13 vhcurveto
          49 hlineto
          24 -7 hlineto
          -22 -4 -59 -42 -44 vhcurveto
          -62 vlineto
          hintmask 11101100
          293 hlineto
          -8 100 -57 -15 -55 -7 -58 -3 rlinecurve
          19 47 3 47 1 24 102 -3 rcurveline
          -1 7 -1 21 19 vvcurveto
          19 1 17 1 3 vhcurveto
          endchar
        </CharString>
        <CharString name="t">
          -107 -3 21 callsubr
          -111 111 hintmask 11101000
          -72 callgsubr
          hintmask 11110000
          -69 callsubr
          endchar
        </CharString>
        <CharString name="tbar">
          -107 -3 -21 299 89 71 115 192 -20 hstemhm
          71 126 -113 113 hintmask 11110100
          280 373 rmoveto
          -15 -5 -34 -3 -40 -1 rrcurveto
          23 1 24 1 24 vhcurveto
          29 -2 31 -3 31 -5 -2 125 rcurveline
          -29 -2 -28 -1 -28 -1 rrcurveto
          hintmask 11111000
          3 65 3 65 5 66 -124 -2 rcurveline
          1 -65 2 -65 -65 vvcurveto
          -26 1 -27 1 -26 2 -4 -116 rcurveline
          28 2 28 2 27 1 rrcurveto
          -1 -24 0 -24 -24 vvcurveto
          -29 1 -26 2 -19 4 rrcurveto
          2 -14 0 -14 -13 vvcurveto
          -21 -1 -20 -1 -16 vhcurveto
          55 hlineto
          16 hlineto
          -3 -100 -4 -99 -5 -98 127 -2 rcurveline
          -5 98 -2 99 98 vvcurveto
          3 vlineto
          33 -1 32 -1 24 -2 rrcurveto
          22 callgsubr
          endchar
        </CharString>
        <CharString name="tcaron">
          62 -3 -21 457 112 45 -45 callsubr
          44 -20 hstemhm
          71 127 -111 111 124 103 hintmask 11001010
          -72 callgsubr
          hintmask 11001100
          -69 callsubr
          hintmask 00110001
          217 -76 -82 callsubr
        </CharString>
        <CharString name="tcommaaccent">
          -107 -180 -45 callsubr
          69 21 callsubr
          -119 103 -95 111 hintmask 00111001
          -72 callgsubr
          hintmask 00111100
          -69 callsubr
          hintmask 11000010
          -26 -846 -97 callgsubr
        </CharString>
        <CharString name="thorn">
          36 9 callsubr
          95 196 -20 hstemhm
          21 121 -98 98 144 123 hintmask 11111010
          152 -198 rmoveto
          -4 67 -3 81 -2 87 rrcurveto
          48 -58 53 -68 callgsubr
          82 83 77 228 199 -55 82 -98 -43 -42 -38 -62 -28 hvcurveto
          2 110 3 103 4 83 -111 -1 rcurveline
          2 -64 1 -77 -83 vvcurveto
          -245 -8 -299 -15 -188 vhcurveto
          hintmask 11110110
          121 534 rmoveto
          hintmask 11111010
          28 8 37 104 41 23 callsubr
          -26 -22 33 26 -16 hvcurveto
          115 vlineto
          endchar
        </CharString>
        <CharString name="three">
          40 -17 88 -88 238 274 238 hstemhm
          26 163 -26 245 -117 117 hintmask 10101000
          hintmask 10110100
          163 314 rmoveto
          5 hlineto
          25 98 -9 -145 -53 -43 -36 -36 hvcurveto
          0 -24 0 -20 19 vhcurveto
          21 25 0 37 0 vvcurveto
          45 -40 24 -32 vhcurveto
          hintmask 01110100
          -25 -66 -9 -87 -86 85 -56 98 23 callgsubr
          hintmask 10101000
          22 callsubr
          -98 -85 -56 -86 vhcurveto
          hintmask 10110100
          -87 66 -9 25 32 40 24 45 0 -1 36 -20 26 vhcurveto
          20 19 24 -68 callgsubr
          hintmask 10101000
          36 43 -36 -53 -143 -91 -12 -29 -5 -3 1 7 callgsubr
        </CharString>
        <CharString name="threequarters">
          249 31 137 -119 -21 87 53 127 123 137 123 hstemhm
          27 107 68 77 235 77 hintmask 10011111
          118 -47 callgsubr
          vhcurveto
          hintmask 01111111
          -59 callgsubr
          482 -474 -73 callsubr
          -4 -454 25 callgsubr
        </CharString>
        <CharString name="threesuperior">
          -85 295 123 137 123 hstem
          30 107 68 77 vstem
          121 -47 callgsubr
          -59 callgsubr
          endchar
        </CharString>
        <CharString name="tilde">
          -109 738 -34 callgsubr
          hintmask 10010000
          246 876 rmoveto
          hintmask 00100000
          0 -22 -52 -36 vhcurveto
          hintmask 10010000
          -28 -19 42 -53 hhcurveto
          hintmask 01010000
          -49 -18 -33 -47 -21 hvcurveto
          49 -48 rlineto
          hintmask 10010000
          30 17 10 17 23 36 19 -47 39 hhcurveto
          60 35 78 7 callgsubr
        </CharString>
        <CharString name="trademark">
          238 363 -21 296 52 hstem
          120 60 97 70 vstem
          592 346 rmoveto
          -10 64 -2 95 24 vvcurveto
          33 1 65 6 63 vhcurveto
          0 -18 -3 -43 -10 -12 0 1 -14 vhcurveto
          -9 -70 -21 -69 -29 -84 -22 69 -13 71 -11 79 rrcurveto
          0 -29 -1 -44 vhcurveto
          -35 hlineto
          3 -38 1 -64 -34 vvcurveto
          -6 8 -44 -17 -145 vhcurveto
          84 2 rlineto
          -15 112 6 6 23 vvcurveto
          19 -1 28 2 34 vhcurveto
          20 -65 16 -67 17 -82 rrcurveto
          73 hlineto
          5 62 22 65 18 65 rrcurveto
          3 -42 0 -29 0 vvcurveto
          0 0 -60 -8 -81 vhcurveto
          -325 6 rmoveto
          -6 69 -3 69 70 vvcurveto
          27 0 27 1 27 vhcurveto
          71 2 rlineto
          5 -1 5 4 vvcurveto
          12 1 10 2 15 vhcurveto
          -3 -57 -51 -1 -54 hhcurveto
          -51 hlineto
          2 -22 2 -12 1 -22 70 4 rcurveline
          3 -37 1 -39 -39 vvcurveto
          -54 -2 -58 -5 -65 vhcurveto
          3 23 20 3 22 hhcurveto
          endchar
        </CharString>
        <CharString name="two">
          32 0 87 -72 -21 501 238 hstemhm
          22 163 103 116 hintmask 10111000
          390 112 rmoveto
          -2 -105 -19 -133 -4 vhcurveto
          11 31 23 48 47 49 rrcurveto
          hintmask 01111000
          70 74 101 79 163 vvcurveto
          hintmask 10111000
          134 -102 68 -97 -98 -85 -56 -86 -87 66 -9 25 32 40 24 45 0 -1 36 -20 26 vhcurveto
          20 19 24 -68 callgsubr
          44 36 -24 -86 -106 -57 -69 -72 -68 hvcurveto
          -121 -113 -12 -125 -44 vvcurveto
          -10 1 -6 0 vhcurveto
          0 66 6 162 41 46 -12 callgsubr
          -5 43 -1 31 18 vvcurveto
          14 1 7 0 vhcurveto
          endchar
        </CharString>
        <CharString name="twosuperior">
          -77 302 53 -35 -21 250 123 hstemhm
          211 76 hintmask 10110000
          278 368 rmoveto
          -1 -68 -10 -88 -2 vhcurveto
          hintmask 01110000
          8 12 14 18 30 24 rrcurveto
          hintmask 10110000
          -71 callgsubr
          endchar
        </CharString>
        <CharString name="u">
          -54 callgsubr
          hstem
          -13 callsubr
          vstem
          -107 callgsubr
          endchar
        </CharString>
        <CharString name="uacute">
          -54 callgsubr
          77 -21 200 -8 callgsubr
          hintmask 11001100
          -107 callgsubr
          hintmask 00110000
          -82 624 -102 callgsubr
          endchar
        </CharString>
        <CharString name="ubreve">
          -54 callgsubr
          40 -41 callsubr
          29 115 -22 77 68 70 -48 102 hintmask 11001001
          -107 callgsubr
          hintmask 00110110
          63 757 -105 callgsubr
        </CharString>
        <CharString name="ucircumflex">
          -54 callgsubr
          77 -21 194 -8 callgsubr
          hintmask 11001100
          -107 callgsubr
          hintmask 00110000
          64 621 rmoveto
          -25 42 -53 121 0 vvcurveto
          0 -17 -2 -23 -12 -13 1 1 -14 vhcurveto
          0 -56 -99 -33 -65 vhcurveto
          34 -10 24 -6 32 -14 rrcurveto
          9 34 23 84 0 vvcurveto
          -10 27 -56 11 -49 vhcurveto
          30 8 19 10 37 10 rrcurveto
          endchar
        </CharString>
        <CharString name="udieresis">
          -54 callgsubr
          56 103 hstemhm
          29 115 -47 104 28 104 -44 102 hintmask 11010010
          -107 callgsubr
          hintmask 00101100
          -73 641 -104 callsubr
        </CharString>
        <CharString name="ugrave">
          -54 callgsubr
          69 -21 200 -8 callgsubr
          hintmask 11001100
          -107 callgsubr
          hintmask 00110000
          -115 782 -90 callsubr
        </CharString>
        <CharString name="uhungarumlaut">
          -54 callgsubr
          68 -21 200 -8 callgsubr
          hintmask 11001100
          -107 callgsubr
          hintmask 00110000
          -154 615 -77 callgsubr
        </CharString>
        <CharString name="umacron">
          -54 callgsubr
          47 -48 callsubr
          29 115 -32 227 -50 102 hintmask 11000101
          -107 callgsubr
          hintmask 00011010
          65 670 -86 callsubr
          hintmask 00100010
          -33 callgsubr
          hintmask 00011010
          -60 callgsubr
        </CharString>
        <CharString name="underscore">
          74 -190 -49 callgsubr
          430 -56 -89 callsubr
        </CharString>
        <CharString name="uni00AD">
          73 273 -49 callgsubr
          429 407 -89 callsubr
        </CharString>
        <CharString name="uni0312">
          -225 590 -45 callsubr
          hstem
          36 103 vstem
          36 625 -36 callgsubr
        </CharString>
        <CharString name="uni0315">
          -228 590 -45 callsubr
          hstem
          32 103 vstem
          135 666 -82 callsubr
        </CharString>
        <CharString name="uni0326">
          -213 -166 -45 callsubr
          hstem
          40 103 vstem
          143 -90 -97 callgsubr
        </CharString>
        <CharString name="uogonek">
          39 -173 67 94 114 -86 -21 554 -20 hstemhm
          29 115 119 56 -30 102 hintmask 11011100
          381 -76 -67 callsubr
          30 22 31 18 22 hvcurveto
          hintmask 11011010
          42 -1 rlineto
          -5 155 -5 78 94 vvcurveto
          61 2 67 6 99 vhcurveto
          -111 2 rlineto
          1 -69 0 -54 -47 vvcurveto
          -44 0 -37 -1 -38 vhcurveto
          -27 -158 -49 -68 callgsubr
          -55 -13 59 124 0 0 93 31 154 hvcurveto
          -124 14 rlineto
          -16 -97 -6 -101 -107 vvcurveto
          -153 45 -100 97 vhcurveto
          hintmask 10111100
          0 64 2 44 77 vhcurveto
          -2 -22 -2 -24 -1 -26 rrcurveto
          33 hlineto
          -36 -39 -8 -36 -22 -37 callsubr
        </CharString>
        <CharString name="uring">
          -54 callgsubr
          41 58 69 59 hstemhm
          29 115 -20 58 71 59 -23 102 hintmask 11001001
          -107 callgsubr
          hintmask 00110110
          -21 667 -89 callgsubr
        </CharString>
        <CharString name="utilde">
          -54 callgsubr
          38 86 -39 39 -39 81 10 -8 callgsubr
          hintmask 11000011
          -107 callgsubr
          hintmask 00100100
          57 710 -94 callgsubr
        </CharString>
        <CharString name="v">
          13 1 -21 564 -20 hstem
          266 544 rmoveto
          -11 -140 -19 -152 -32 -140 -25 139 -17 150 -15 138 -140 -6 rcurveline
          51 -194 36 -165 35 -194 141 3 rcurveline
          38 199 47 166 62 194 rrcurveto
          endchar
        </CharString>
        <CharString name="w">
          186 -22 110 -96 -21 566 -3 callsubr
          hintmask 10111100
          -51 callsubr
          hintmask 01111100
          -100 callsubr
          endchar
        </CharString>
        <CharString name="wacute">
          -21 callgsubr
          21 -21 200 -3 callsubr
          hintmask 10100111
          -51 callsubr
          hintmask 01100111
          -100 callsubr
          hintmask 00011000
          -282 23 -102 callgsubr
          endchar
        </CharString>
        <CharString name="wcircumflex">
          -21 callgsubr
          44 -21 194 -3 callsubr
          hintmask 10100111
          -51 callsubr
          hintmask 01100111
          -100 callsubr
          hintmask 00011000
          -133 43 rmoveto
          -25 42 -53 121 0 vvcurveto
          0 -17 -2 -23 -12 -13 1 1 -14 vhcurveto
          0 -56 -99 -33 -65 vhcurveto
          34 -10 24 -6 32 -14 rrcurveto
          9 34 23 84 0 vvcurveto
          -10 27 -56 11 -49 vhcurveto
          30 8 19 10 37 10 rrcurveto
          endchar
        </CharString>
        <CharString name="wdieresis">
          186 -22 110 -96 -21 565 103 -102 -20 hstemhm
          38 110 35 104 -47 93 -18 104 21 110 hintmask 1001101010000000
          -51 callsubr
          hintmask 0101101010000000
          -100 callsubr
          hintmask 0010010100000000
          -267 59 -104 callsubr
        </CharString>
        <CharString name="wgrave">
          -21 callgsubr
          30 -21 200 -3 callsubr
          hintmask 10100111
          -51 callsubr
          hintmask 01100111
          -100 callsubr
          hintmask 00011000
          -339 198 -90 callsubr
        </CharString>
        <CharString name="x">
          5 -1 -21 559 -20 hstem
          402 -1 rmoveto
          -55 93 -51 86 -45 88 39 82 48 80 59 89 -137 14 rcurveline
          -18 -56 -20 -52 -22 -49 -22 51 -19 54 -18 58 -141 -6 rcurveline
          52 -92 50 -88 45 -90 -44 -85 -48 -82 -52 -93 147 -15 rcurveline
          16 58 16 53 19 50 25 -55 22 -56 20 -58 134 21 rcurveline
          endchar
        </CharString>
        <CharString name="y">
          -54 callsubr
          hstemhm
          29 115 147 101 hintmask 10111100
          -76 callsubr
          hintmask 01111100
          -98 callgsubr
          endchar
        </CharString>
        <CharString name="yacute">
          -54 callsubr
          64 -21 200 11 callsubr
          hintmask 10110011
          -76 callsubr
          hintmask 01110011
          -98 callgsubr
          hintmask 00001100
          -200 76 -102 callgsubr
          endchar
        </CharString>
        <CharString name="ycircumflex">
          -54 callsubr
          51 -21 194 11 callsubr
          hintmask 10110011
          -76 callsubr
          hintmask 01110011
          -98 callgsubr
          hintmask 00001100
          -57 60 rmoveto
          -25 42 -53 121 0 vvcurveto
          0 -17 -2 -23 -12 -13 1 1 -14 vhcurveto
          0 -56 -99 -33 -65 vhcurveto
          34 -10 24 -6 32 -14 rrcurveto
          9 34 23 84 0 vvcurveto
          -10 27 -56 11 -49 vhcurveto
          30 8 19 10 37 10 rrcurveto
          endchar
        </CharString>
        <CharString name="ydieresis">
          -54 callsubr
          59 103 hstemhm
          29 115 -43 104 28 104 -46 101 hintmask 1011010010000000
          -76 callsubr
          hintmask 0111010010000000
          -98 callgsubr
          hintmask 0000101100000000
          -205 109 -104 callsubr
        </CharString>
        <CharString name="yen">
          -14 -23 166 -148 -21 92 77 41 74 294 -20 32 -20 hstemhm
          147 105 -105 182 hintmask 10011010
          331 265 rmoveto
          -14 -3 -23 -3 -28 -1 28 99 30 97 37 98 rrcurveto
          -37 -37 3 5 -36 hvcurveto
          -14 -92 -16 -97 -23 -94 -27 93 -13 98 -19 96 rrcurveto
          hintmask 01110110
          -37 -6 -47 -2 -38 -1 43 -98 40 -98 37 -101 -27 2 -26 2 -21 3 rrcurveto
          2 -13 0 -12 -12 vvcurveto
          -16 -1 -15 -1 -13 vhcurveto
          88 hlineto
          -14 -1 -13 -13 vvcurveto
          -32 1 -31 3 -24 10 callsubr
          -16 -1 -15 -1 -13 vhcurveto
          21 21 1 21 hhcurveto
          21 hlineto
          -1 -32 -3 -32 -2 -32 119 5 rcurveline
          -3 29 -3 30 -2 30 79 -3 rcurveline
          -2 7 0 21 19 vvcurveto
          hintmask 10011001
          19 0 17 2 3 vhcurveto
          -17 -4 -31 -3 -36 -1 rrcurveto
          13 -1 13 -1 13 vhcurveto
          30 29 -1 -1 27 hvcurveto
          -2 7 0 20 19 vvcurveto
          19 0 17 2 3 vhcurveto
          endchar
        </CharString>
        <CharString name="ygrave">
          -54 callsubr
          47 -21 200 11 callsubr
          hintmask 10110011
          -76 callsubr
          hintmask 01110011
          -98 callgsubr
          hintmask 00001100
          -254 225 -90 callsubr
        </CharString>
        <CharString name="z">
          -2 callgsubr
          hstemhm
          -91 callgsubr
          endchar
        </CharString>
        <CharString name="zacute">
          -2 callgsubr
          61 -21 200 -20 hstemhm
          -91 callgsubr
          hintmask 00001100
          -195 154 -102 callgsubr
          endchar
        </CharString>
        <CharString name="zcaron">
          -2 callgsubr
          69 -21 194 -20 hstemhm
          -91 callgsubr
          hintmask 00001100
          -36 291 -106 callgsubr
        </CharString>
        <CharString name="zdotaccent">
          -2 callgsubr
          38 103 hstemhm
          132 104 -91 callgsubr
          hintmask 00001100
          -110 169 rmoveto
          -100 callgsubr
        </CharString>
        <CharString name="zero">
          97 -16 82 567 82 hstem
          29 128 180 128 vstem
          465 350 rmoveto
          207 -59 158 -159 -154 -64 -158 -207 -208 67 -158 151 149 69 158 208 vhcurveto
          -128 hmoveto
          -208 -39 -76 -51 -54 -36 84 200 184 41 99 49 54 36 -78 -205 vhcurveto
          endchar
        </CharString>
      <CharString index="0">
        401 -7 rmoveto
        -5 155 -5 78 94 vvcurveto
        61 2 67 6 99 vhcurveto
        -111 2 rlineto
        1 -69 0 -54 -47 vvcurveto
        -44 0 -37 -1 -38 vhcurveto
        -27 -158 -49 -68 callgsubr
        -55 -13 59 124 0 0 93 31 154 hvcurveto
        -124 14 rlineto
        -16 -97 -6 -40 callgsubr
        64 2 44 77 vhcurveto
        -2 -22 -2 -24 -1 -26 rrcurveto
        return
      </CharString>
      <CharString index="1">
        rmoveto
        -37 10 -19 10 -30 8 rrcurveto
        -11 -49 -27 -56 -10 vvcurveto
        0 -23 84 -9 34 vhcurveto
        -32 -14 -24 -6 -34 -10 rrcurveto
        33 -65 56 -99 0 vvcurveto
        1 14 13 1 12 hhcurveto
        23 17 -2 0 0 53 121 25 42 hvcurveto
        endchar
      </CharString>
      <CharString index="2">
        rmoveto
        0 -42 4 -28 8 vhcurveto
        -4 0 -4 -5 vvcurveto
        -46 -10 -50 -26 -27 -5 39 38 12 0 12 1 11 vhcurveto
        -76 -10 rlineto
        -2 -13 0 -13 -12 vvcurveto
        -81 31 -69 73 84 27 92 73 vhcurveto
        6 0 6 6 vvcurveto
        endchar
      </CharString>
      <CharString index="3">
        -38 callsubr
        -14 -27 15 callsubr
        -40 -21 54 81 -8 hvcurveto
        145 41 78 103 94 vvcurveto
        104 -73 57 -88 -88 -103 -66 -228 -242 103 -71 92 91 75 61 77 vhcurveto
        -121 307 rmoveto
        -70 -48 -62 -67 -36 vhcurveto
        36 vlineto
        114 14 105 53 31 17 -40 -47 vhcurveto
        return
      </CharString>
      <CharString index="4">
        12 387 4 -20 52 vvcurveto
        151 -28 164 -164 -173 -26 -192 -166 vhcurveto
        -105 11 -100 -100 vvcurveto
        111 254 rmoveto
        -2 42 -2 29 26 vvcurveto
        153 37 70 49 44 24 -61 -112 -53 -5 -46 -4 -46 vhcurveto
        -2 -21 -29 -1 -34 hhcurveto
        -18 -19 0 1 -20 hvcurveto
        return
      </CharString>
      <CharString index="5">
        rmoveto
        46 -34 129 139 rlineto
        0 -46 38 -33 23 vhcurveto
        return
      </CharString>
      <CharString index="6">
        334 713 rmoveto
        11 -94 1 -154 0 vvcurveto
        -29 0 -131 -6 -110 vhcurveto
        -51 156 -72 291 -11 63 rrcurveto
        0 -36 -6 -132 vhcurveto
        9 -109 1 -120 -65 vvcurveto
        -40 3 -11 -10 -350 vhcurveto
        24 hlineto
        19 31 0 -2 50 hvcurveto
        -13 111 0 111 0 vvcurveto
        0 0 127 10 165 vhcurveto
        48 -146 84 -316 7 -55 rrcurveto
        0 19 4 67 19 23 0 -1 28 vhcurveto
        -4 84 0 109 73 vvcurveto
        83 1 208 10 158 vhcurveto
        return
      </CharString>
      <CharString index="7">
        -106 callsubr
        endchar
      </CharString>
      <CharString index="8">
        rmoveto
        4 -128 1 -105 -90 vvcurveto
        -90 -1 -74 -2 -66 -11 callsubr
        -2 rlineto
        -1 68 0 54 47 vvcurveto
        56 0 48 2 51 vhcurveto
        27 151 48 1 0 vvcurveto
        55 13 26 callsubr
        -31 -154 hvcurveto
        114 -14 rlineto
        27 99 5 124 112 vvcurveto
        152 -45 92 -97 -2 -61 4 -72 -43 vhcurveto
        3 40 rlineto
        return
      </CharString>
      <CharString index="9">
        -55 -13 59 124 0 10 162 21 85 hvcurveto
        -124 14 rlineto
        -15 -97 -7 -40 callgsubr
        68 2 43 84 vhcurveto
        -1 -56 0 -45 -48 vvcurveto
        -99 callsubr
        187 14 152 vhcurveto
        return
      </CharString>
      <CharString index="10">
        rmoveto
        29 -23 23 -28 -29 -23 -23 -29 -24 18 -21 24 -5 vhcurveto
        -7 -21 -10 -11 0 vvcurveto
        32 -15 rlineto
        30 30 16 25 42 vvcurveto
        endchar
      </CharString>
      <CharString index="11">
        392 415 rmoveto
        89 -77 71 -89 -90 -114 -52 -243 -242 103 -71 92 91 80 96 77 -23 callgsubr
        -49 44 -22 vhcurveto
        -23 -44 -40 -68 callgsubr
        -56 -17 106 134 135 31 93 48 hvcurveto
        0 38 -1 21 -49 vhcurveto
        -39 -20 0 -47 0 vvcurveto
        -64 47 -11 22 22 55 9 90 vhcurveto
        return
      </CharString>
      <CharString index="12">
        -20 hstemhm
        39 122 104 108 -108 124 99 125 hintmask 1010011010000000
        458 698 rmoveto
        10 -47 20 -138 -197 vvcurveto
        hintmask 1010010110000000
        -126 -5 -107 -45 -43 -22 132 84 24 -2 13 18 315 vhcurveto
        -124 5 rlineto
        3 -127 1 -82 -50 vvcurveto
        -50 -1 -18 0 vhcurveto
        -72 -23 -168 -42 -42 0 123 107 189 33 191 0 vhcurveto
        -143 4 rlineto
        0 -12 -193 -200 vvcurveto
        hintmask 0110011010000000
        -165 11 -171 117 6 95 -1 99 41 vhcurveto
        -106 36 94 0 3 hhcurveto
        128 43 160 183 189 -16 197 0 hvcurveto
        hintmask 0001100000000000
        return
      </CharString>
      <CharString index="13">
        rmoveto
        hintmask 00001000
        0 -22 -52 -36 vhcurveto
        hintmask 00100100
        -28 -19 42 -53 hhcurveto
        hintmask 00010100
        -49 -18 -33 -47 -21 hvcurveto
        49 -48 rlineto
        hintmask 00100100
        30 17 10 17 23 36 19 -47 39 hhcurveto
        60 35 78 7 callgsubr
      </CharString>
      <CharString index="14">
        173 -5 rmoveto
        -11 150 -4 151 170 vvcurveto
        67 1 93 3 81 vhcurveto
        -123 -6 rlineto
        10 -92 0 -215 0 vvcurveto
        return
      </CharString>
      <CharString index="15">
        -20 hstemhm
        23 140 117 159 -78 92 hintmask 1110001010000000
        hintmask 1110001100000000
        453 147 rmoveto
        123 -78 9 -15 -15 -65 -17 -61 -40 31 -28 31 6 7 1 2 6 vhcurveto
        hintmask 1101001010000000
        -88 callgsubr
        vhcurveto
        hintmask 1110001100000000
        -44 callsubr
        hvcurveto
        hintmask 1110001010000000
        -116 -133 -94 -271 -271 127 -111 127 77 99 58 122 hvcurveto
        hintmask 0000110000000000
        return
      </CharString>
      <CharString index="16">
        hintmask 10010000
        340 546 rmoveto
        -7 -81 -76 -3 -79 hhcurveto
        -27 -27 0 1 -27 hvcurveto
        6 -117 rlineto
        hintmask 01100000
        65 12 58 8 64 1 -53 -127 -60 -118 -84 -124 3 -94 rcurveline
        5 70 69 3 69 hhcurveto
        40 40 -1 -2 40 hvcurveto
        -3 115 rlineto
        hintmask 10010000
        -63 -9 -64 -6 -62 -3 49 126 56 117 83 123 rrcurveto
        return
      </CharString>
      <CharString index="17">
        204 77 89 34 vhcurveto
        0 33 -1 19 -22 vhcurveto
        -21 -23 0 -34 0 vvcurveto
        -55 35 -17 36 36 39 29 60 60 -46 80 -122 -122 -121 -104 -259 -259 113 -128 127 126 58 94 96 vhcurveto
        return
      </CharString>
      <CharString index="18">
        rmoveto
        -18 -16 -16 -20 -18 -17 16 18 20 17 15 18 20 16 -15 -20 vhcurveto
        59 hmoveto
        52 -44 42 -50 -50 -44 -42 -52 -50 44 -42 50 50 44 42 50 vhcurveto
        endchar
      </CharString>
      <CharString index="19">
        -4 -93 -74 -68 callgsubr
        -90 -30 153 148 148 20 150 77 hvcurveto
        0 28 -1 19 -19 vhcurveto
        -21 -29 0 -34 0 vvcurveto
        -46 39 -26 37 return
      </CharString>
      <CharString index="20">
        107 -26 -21 21 82 587 82 5 -52 callgsubr
        hintmask 01101100
        377 730 rmoveto
        hintmask 01011100
        -4 -12 -4 -14 -6 -15 rrcurveto
        23 -30 -37 13 -44 hhcurveto
        -154 -74 -168 -207 -111 22 -100 43 -69 hvcurveto
        -12 -24 -12 -22 -11 -20 rrcurveto
        22 -9 65 -42 0 vvcurveto
        17 47 rlineto
        -16 27 31 -10 36 hhcurveto
        149 79 168 208 106 -18 95 -39 68 hvcurveto
        15 34 14 28 10 21 rrcurveto
        -210 -59 rmoveto
        32 23 -23 -38 15 hvcurveto
        -43 -106 -60 -137 -59 -125 rrcurveto
        -6 41 -2 46 49 vvcurveto
        hintmask 10101100
        162 26 131 74 vhcurveto
        100 -293 rmoveto
        -162 -28 -132 -72 -23 -19 13 24 -15 vhcurveto
        47 116 56 131 50 113 rrcurveto
        2 -32 2 -35 -36 vvcurveto
        return
      </CharString>
      <CharString index="21">
        378 -13 rmoveto
        -11 55 -2 87 85 50 1 50 41 vvcurveto
        110 -49 103 -123 vhcurveto
        return
      </CharString>
      <CharString index="22">
        34 754 rmoveto
        4 -192 3 -146 -134 vvcurveto
        -100 -1 -93 -4 -99 -11 callsubr
        -2 rlineto
        -1 90 0 73 65 vvcurveto
        175 3 121 12 239 vhcurveto
        return
      </CharString>
      <CharString index="23">
        -2 12 0 33 32 vvcurveto
        31 0 29 2 4 vhcurveto
        return
      </CharString>
      <CharString index="24">
        159 -20 rmoveto
        -6 106 -7 98 -3 100 rrcurveto
        117 12 36 87 65 hhcurveto
        4 4 -1 -1 4 hvcurveto
        -26 -19 -13 -29 -18 vvcurveto
        -26 7 -56 67 68 22 62 55 54 -38 65 -95 vhcurveto
        return
      </CharString>
      <CharString index="25">
        447 158 rmoveto
        74 -9 58 50 vvcurveto
        14 1 14 2 14 vhcurveto
        -2 -27 -25 0 -22 hhcurveto
        -83 -47 9 0 hvcurveto
        0 2 -19 -26 vvcurveto
        return
      </CharString>
      <CharString index="26">
        12 -22 -26 6 -29 hhcurveto
        -126 -69 -132 -189 -82 14 -70 30 -50 hvcurveto
        -14 -25 -11 -20 -9 -13 rrcurveto
        22 -9 65 -42 0 vvcurveto
        17 43 rlineto
        -9 21 23 -5 27 hhcurveto
        121 63 126 171 9 hvcurveto
        11 1 11 11 vvcurveto
        78 -14 67 -29 48 vhcurveto
        13 28 11 24 10 20 rrcurveto
        -170 -70 rmoveto
        16 13 -10 -16 10 hvcurveto
        -34 -83 -46 -103 -43 -90 rrcurveto
        30 vlineto
        170 38 102 46 vhcurveto
        59 -223 rmoveto
        -134 -9 -22 -90 -50 hhcurveto
        -12 -10 5 10 -8 hvcurveto
        36 85 40 92 37 85 rrcurveto
        return
      </CharString>
      <CharString index="27">
        rmoveto
        -36 -120 -111 -270 -84 -158 rrcurveto
        12 hlineto
        50 37 -11 0 hvcurveto
        88 234 81 191 60 124 rrcurveto
        return
      </CharString>
      <CharString index="28">
        77 -49 14 -22 -21 -57 -14 -62 return
      </CharString>
      <CharString index="29">
        -45 -48 -17 -46 -37 hvcurveto
        34 -28 -41 23 -57 hhcurveto
        -122 -48 -78 -54 -55 30 -40 40 39 28 24 44 0 -1 33 -32 20 hvcurveto
        18 13 20 15 30 hhcurveto
        41 22 -24 -89 5 hvcurveto
        -13 -28 -22 -26 -28 -23 rrcurveto
        -46 -38 -129 -26 18 callsubr
        -107 62 -28 51 68 56 47 81 27 vhcurveto
        -101 36 69 -34 64 hhcurveto
        91 75 61 77 hvcurveto
        -123 277 rmoveto
        17 callsubr
        vhcurveto
        return
      </CharString>
      <CharString index="30">
        -102 callgsubr
        51 -166 -102 callgsubr
        endchar
      </CharString>
      <CharString index="31">
        0 0 -236 -5 -176 vhcurveto
        129 13 rlineto
        return
      </CharString>
      <CharString index="32">
        646 -11 rmoveto
        -5 43 -1 31 18 vvcurveto
        -56 callsubr
        -76 -20 -134 16 callgsubr
        39 -3 77 132 -19 callgsubr
        12 vlineto
        54 0 59 1 67 vhcurveto
        1 11 13 -6 callsubr
        -48 -59 2 2 -75 vhcurveto
        return
      </CharString>
      <CharString index="33">
        0 23 5 108 vhcurveto
        -8 140 0 195 0 vvcurveto
        0 0 195 8 169 vhcurveto
        0 -31 -5 -67 vhcurveto
        -31 hlineto
        17 -102 1 -215 -11 vvcurveto
        -2 -21 -32 -2 -41 hhcurveto
        -19 -19 0 1 -21 hvcurveto
        66 2 140 7 130 vhcurveto
        0 -32 -5 -70 vhcurveto
        -32 hlineto
        19 -108 0 -235 0 vvcurveto
        0 0 -235 -21 -147 vhcurveto
        0 24 5 112 vhcurveto
        return
      </CharString>
      <CharString index="34">
        4 9 -58 -60 callsubr
        return
      </CharString>
      <CharString index="35">
        84 740 rmoveto
        1 -65 2 -65 -65 vvcurveto
        -26 1 -27 1 -26 2 -4 -116 rcurveline
        28 2 28 2 27 1 -2 -154 -6 -154 -8 -152 127 -2 rcurveline
        return
      </CharString>
      <CharString index="36">
        47 37 66 40 81 vvcurveto
        67 -68 38 -64 -65 -57 -32 -43 -43 44 -5 17 21 27 12 23 0 -1 18 -13 13 vhcurveto
        13 9 16 -68 callgsubr
        29 25 -12 -42 -53 -38 -35 -48 -34 hvcurveto
        -81 -57 -8 -61 -23 vvcurveto
        -5 1 -3 0 vhcurveto
        0 41 3 99 29 35 0 -1 41 vhcurveto
        -4 34 0 25 8 vvcurveto
        return
      </CharString>
      <CharString index="37">
        -28 -2 -27 -1 -22 vhcurveto
        return
      </CharString>
      <CharString index="38">
        1 8 7 1 7 hhcurveto
        112 -18 -99 -107 9 hvcurveto
        0 6 -81 30 -30 vhcurveto
        138 3 rlineto
        -41 48 -13 50 0 vvcurveto
        -28 105 37 132 -139 36 21 43 52 102 115 202 -166 15 rcurveline
        -16 vlineto
        -122 -56 -135 -81 -99 vhcurveto
        30 vlineto
        0 0 168 12 161 vhcurveto
        return
      </CharString>
      <CharString index="39">
        0 0 vvcurveto
        return
      </CharString>
      <CharString index="40">
        vvcurveto
        -37 27 -34 39 34 26 16 30 31 vhcurveto
        return
      </CharString>
      <CharString index="41">
        131 rmoveto
        -8 25 -4 54 -1 61 47 -1 46 -2 42 -2 rrcurveto
        -84 callgsubr
        -25 -8 -51 -4 -58 -1 2 46 4 44 6 35 rrcurveto
        -2 -20 -19 -1 -18 hhcurveto
        -28 -27 2 1 -22 hvcurveto
        -84 vlineto
        -40 vlineto
        -49 2 -46 4 -37 6 rrcurveto
        return
      </CharString>
      <CharString index="42">
        rmoveto
        10 -72 3 -172 -150 vvcurveto
        -86 -1 -79 -1 -50 vhcurveto
        -91 -2 -46 -39 -33 hhcurveto
        return
      </CharString>
      <CharString index="43">
        -272 67 -67 196 return
      </CharString>
      <CharString index="44">
        671 rmoveto
        0 -38 -2 -53 vhcurveto
        3 46 4 45 6 46 rrcurveto
        -1 -31 -26 -1 -28 hhcurveto
        -20 -20 0 2 -24 hvcurveto
        4 -45 4 -44 2 -45 -35 2 -33 3 -28 4 -42 callsubr
        76 hlineto
        24 hlineto
        return
      </CharString>
      <CharString index="45">
        -3 vlineto
        -1 vlineto
        0 35 1 75 62 90 -1 -2 120 vhcurveto
        -489 323 rmoveto
        -3 48 -1 35 31 vvcurveto
        141 29 65 57 45 23 -59 -109 -55 -5 -48 -4 -47 vhcurveto
        -2 -21 -29 -1 -34 hhcurveto
        -18 -19 0 1 -20 hvcurveto
        return
      </CharString>
</ttFont>
